<?xml version="1.0" encoding="UTF-8"?>
<svg xmlns="http://www.w3.org/2000/svg"
viewBox="0 0 200 200"
preserveAspectRatio="xMidYMid meet">
<g>
	<g>
		<circle fill="#F4EDDC" cx="100" cy="100" r="100"/>
		<linearGradient id="SVGID_1_" gradientUnits="userSpaceOnUse" x1="0" y1="100" x2="200" y2="100">
			<stop  offset="0" style="stop-color:#AA7925"/>
			<stop  offset="0.3893" style="stop-color:#8B5E1C"/>
			<stop  offset="0.5115" style="stop-color:#AD7A30"/>
			<stop  offset="0.6687" style="stop-color:#D59B47"/>
			<stop  offset="0.6974" style="stop-color:#C28C40"/>
			<stop  offset="0.8265" style="stop-color:#6F4B20"/>
			<stop  offset="0.8855" style="stop-color:#4E3113"/>
			<stop  offset="0.9307" style="stop-color:#7A5119"/>
			<stop  offset="0.954" style="stop-color:#8B5E1C"/>
			<stop  offset="1" style="stop-color:#D59B47"/>
		</linearGradient>
		<path fill="url(#SVGID_1_)" d="M100,5.368c52.18,0,94.632,42.452,94.632,94.632S152.18,194.632,100,194.632
			S5.368,152.18,5.368,100S47.82,5.368,100,5.368 M100,0C44.772,0,0,44.772,0,100s44.772,100,100,100s100-44.772,100-100
			S155.228,0,100,0L100,0z"/>
	</g>
	<g>
		<g transform="translate(602.000000, 405.000000)">
			<path fill-rule="evenodd" clip-rule="evenodd" fill="#987732" d="M-538.971-315.637c0.469,0.469,1.085,0.705,1.701,0.705
				s1.232-0.236,1.701-0.705l19.244-19.243c0.94-0.941,0.94-2.461,0-3.401c-0.941-0.941-2.461-0.941-3.401,0l-19.243,19.243
				C-539.911-318.098-539.911-316.578-538.971-315.637"/>
			<path fill-rule="evenodd" clip-rule="evenodd" fill="#987732" d="M-539.675-326.96c0.616,0,1.232-0.236,1.701-0.705l9.622-9.622
				c0.941-0.941,0.941-2.461,0-3.401c-0.94-0.941-2.461-0.941-3.401,0l-9.622,9.622c-0.941,0.941-0.941,2.461,0,3.401
				C-540.907-327.196-540.291-326.96-539.675-326.96"/>
			<path fill-rule="evenodd" clip-rule="evenodd" fill="#987732" d="M-451.379-307.012c-0.941-0.941-2.461-0.941-3.401,0
				l-19.243,19.243c-0.941,0.941-0.941,2.461,0,3.401c0.469,0.469,1.085,0.705,1.701,0.705c0.616,0,1.232-0.236,1.701-0.705
				l19.243-19.243C-450.439-304.551-450.439-306.071-451.379-307.012"/>
			<path fill-rule="evenodd" clip-rule="evenodd" fill="#987732" d="M-452.375-294.984l-9.622,9.622
				c-0.941,0.941-0.941,2.461,0,3.401c0.469,0.469,1.085,0.705,1.701,0.705s1.232-0.236,1.701-0.705l9.622-9.622
				c0.941-0.941,0.941-2.461,0-3.401C-449.914-295.925-451.434-295.925-452.375-294.984"/>
		</g>
		<path fill="#987732" d="M160.671,64.121c1.654-3.415,3.069-6.941,4.234-10.552c0.397-1.549,2.791-12.18-1.346-14.606
			c-0.795-0.413-1.699-0.57-2.587-0.448c-7.244,0.694-17.373,4.374-21.91,11.652c-4.028,6.14-6.724,13.056-7.913,20.302
			c-2.435,13.005-16.956,16.9-16.956,16.9s-14.414,4.92-15.44,5.321s1.163-4.813,4.974-8.355c3.811-3.542,7.587-6.771,7.986-10.258
			s0.448-6.487,0.448-6.487s0.436-4.682-3.729-3.609C101.53,65.8,95.356,69.7,90.747,75.151c-7.161,9.755-5.693,21.055-5.242,23.888
			c0.092,0.768-0.036,1.546-0.369,2.243c-0.228,0.531-0.569,1.005-0.999,1.39l-5.823,4.435l-22.675,17.173
			c-2.153,1.529-4.69,3.416-7.223,5.473l0,0l0,0c-4.582,3.705-9.087,7.949-11.126,11.605c-4.864,8.73-2.816,13.3-2.816,13.3
			s2.978,8.085,11.386,6.71c3.979-0.638,8.045-2.395,15.94-7.512c3.082-2,5.563-3.779,7.256-5.049l0,0
			c14.938-10.34,22.355-18.752,26.27-24.959c3.719-6.156,8.699-11.455,14.614-15.548c3.344-2.26,6.95-4.105,10.739-5.496
			c7.353-2.956,17.881-9.215,30.729-23.714C155.013,74.439,158.119,69.422,160.671,64.121z"/>
	</g>
</g>
</svg>
