<?xml version="1.0" encoding="utf-8"?>
<!-- Generator: Adobe Illustrator 30.0.0, SVG Export Plug-In . SVG Version: 9.03 Build 0)  -->
<svg version="1.1" id="card_title_1" xmlns="http://www.w3.org/2000/svg" xmlns:xlink="http://www.w3.org/1999/xlink" x="0px"
	 y="0px" width="500px" height="27.395px" viewBox="0 0 500 27.395" enable-background="new 0 0 500 27.395" xml:space="preserve">
<g>
	<polygon points="18.359,16.932 5.755,0.438 0,0.438 0,26.957 5.463,26.957 5.463,9.79 18.615,26.957 23.823,26.957 23.823,0.438 
		18.359,0.438 	"/>
	<path d="M35.953,0.438l-9.471,26.519h5.647l1.648-5.137h10.546l1.648,5.137h6.447L42.947,0.438H35.953z M35.227,17.304L39.05,5.389
		l3.824,11.915H35.227z"/>
	<path d="M70.414,17.121c0,1.725-0.462,3.036-1.385,3.935c-0.923,0.898-2.21,1.347-3.86,1.347c-1.652,0-2.945-0.449-3.88-1.347
		c-0.935-0.898-1.403-2.21-1.403-3.935V0.438h-6.119V16.72c0,2.187,0.442,4.081,1.33,5.683c0.886,1.603,2.161,2.836,3.824,3.698
		c1.664,0.862,3.65,1.293,5.957,1.293c2.306,0,4.298-0.432,5.974-1.293c1.675-0.862,2.956-2.095,3.842-3.698
		c0.886-1.602,1.33-3.496,1.33-5.683V0.438h-5.61V17.121z"/>
	<path d="M94.528,16.903h6.157v0.656c0,0.923-0.31,1.766-0.929,2.532c-0.619,0.764-1.446,1.365-2.477,1.803
		c-1.032,0.438-2.144,0.656-3.334,0.656c-1.603,0-3.011-0.413-4.225-1.238c-1.215-0.825-2.162-1.943-2.841-3.351
		c-0.68-1.409-1.02-2.939-1.02-4.591s0.316-3.139,0.947-4.463c0.631-1.323,1.53-2.361,2.695-3.114
		c1.167-0.752,2.501-1.129,4.008-1.129c1.505,0,2.841,0.377,4.007,1.129c1.165,0.753,2.076,1.798,2.732,3.133l5.137-2.039
		c-1.118-2.186-2.732-3.88-4.845-5.082C98.427,0.602,95.998,0,93.255,0c-2.648,0-5.01,0.578-7.086,1.731
		c-2.076,1.154-3.697,2.774-4.864,4.864c-1.165,2.088-1.748,4.456-1.748,7.103c0,2.623,0.54,4.972,1.621,7.049
		c1.08,2.076,2.587,3.703,4.517,4.881c1.93,1.179,4.133,1.767,6.612,1.767c2.088,0,3.988-0.432,5.7-1.293
		c1.176-0.592,2.182-1.396,3.042-2.383v3.239h4.99V12.349H94.528V16.903z"/>
	<polygon points="127.531,10.746 116.421,10.746 116.421,0.438 110.302,0.438 110.302,26.957 116.421,26.957 116.421,15.773 
		127.531,15.773 127.531,26.957 133.615,26.957 133.615,0.438 127.531,0.438 	"/>
	<polygon points="136.675,5.283 144.069,5.283 144.069,26.957 150.189,26.957 150.189,5.283 157.62,5.283 157.62,0.438 
		136.675,0.438 	"/>
	<polygon points="176.709,0.438 171.186,11.939 165.743,0.438 159.113,0.438 167.747,17.364 167.747,26.957 173.867,26.957 
		173.867,17.364 182.5,0.438 	"/>
	<polygon points="206.56,17.4 199.73,0.438 191.57,0.438 191.57,26.957 196.962,26.957 196.962,7.909 204.611,26.957 
		207.488,26.957 215.139,7.757 215.139,26.957 221.149,26.957 221.149,0.438 213.389,0.438 	"/>
	<path d="M233.279,0.438l-9.471,26.519h5.646l1.648-5.137h10.546l1.648,5.137h6.448l-9.471-26.519H233.279z M232.551,17.304
		l3.824-11.917l3.824,11.917H232.551z"/>
	<polygon points="247.34,5.283 254.735,5.283 254.735,26.957 260.855,26.957 260.855,5.283 268.286,5.283 268.286,0.438 
		247.34,0.438 	"/>
	<path d="M288.74,20.728c-1.446,0.801-3.102,1.202-4.972,1.202c-1.798,0-3.346-0.406-4.645-1.22c-1.299-0.813-2.289-1.9-2.968-3.261
		c-0.68-1.359-1.02-2.854-1.02-4.481c0-1.603,0.328-3.029,0.984-4.28s1.566-2.234,2.732-2.951c1.167-0.716,2.465-1.074,3.898-1.074
		c1.65,0,3.096,0.485,4.335,1.457c1.238,0.972,2.149,2.295,2.732,3.97l5.355-1.566c-0.655-1.748-1.585-3.253-2.787-4.516
		s-2.654-2.247-4.353-2.951C286.329,0.353,284.447,0,282.383,0c-2.599,0-4.925,0.578-6.976,1.731
		c-2.053,1.154-3.661,2.774-4.827,4.864c-1.165,2.088-1.748,4.456-1.748,7.103c0,2.648,0.583,5.015,1.748,7.104
		c1.167,2.088,2.774,3.709,4.827,4.862c2.051,1.154,4.414,1.731,7.086,1.731c2.913,0,5.524-0.692,7.832-2.077
		c2.306-1.384,4.031-3.266,5.172-5.646l-3.096-2.222C291.405,18.834,290.185,19.926,288.74,20.728z"/>
	<polygon points="315.568,10.746 304.458,10.746 304.458,0.438 298.338,0.438 298.338,26.957 304.458,26.957 304.458,15.773 
		315.568,15.773 315.568,26.957 321.652,26.957 321.652,0.438 315.568,0.438 	"/>
	<path d="M350.247,17.121c0,1.725-0.462,3.036-1.385,3.935c-0.923,0.898-2.21,1.347-3.86,1.347c-1.652,0-2.945-0.449-3.88-1.347
		c-0.935-0.898-1.403-2.21-1.403-3.935V0.438H333.6V16.72c0,2.187,0.442,4.081,1.33,5.683c0.886,1.603,2.161,2.836,3.824,3.698
		c1.664,0.862,3.65,1.293,5.957,1.293c2.306,0,4.298-0.432,5.974-1.293c1.675-0.862,2.956-2.095,3.842-3.698
		c0.886-1.602,1.33-3.496,1.33-5.683V0.438h-5.61V17.121z"/>
	<path d="M376.712,1.513c-1.543-0.717-3.334-1.075-5.373-1.075h-10.893v26.519h6.12v-8.962h4.772c1.966,0,3.72-0.345,5.263-1.037
		c1.542-0.692,2.75-1.688,3.624-2.988c0.875-1.298,1.312-2.846,1.312-4.644c0-1.797-0.418-3.369-1.257-4.717
		C379.443,3.261,378.252,2.229,376.712,1.513z M374.781,11.621c-0.377,0.631-0.911,1.104-1.603,1.42
		c-0.692,0.316-1.501,0.474-2.423,0.474h-4.188V5.173h4.188c1.433,0,2.556,0.358,3.37,1.075c0.813,0.717,1.22,1.742,1.22,3.078
		C375.345,10.225,375.156,10.99,374.781,11.621z"/>
	<path d="M404.961,16.903h6.156v0.656c0,0.923-0.31,1.766-0.929,2.532c-0.619,0.764-1.444,1.365-2.477,1.803
		c-1.032,0.438-2.143,0.656-3.333,0.656c-1.603,0-3.012-0.413-4.226-1.238s-2.161-1.943-2.841-3.351
		c-0.68-1.409-1.02-2.939-1.02-4.591s0.316-3.139,0.947-4.463c0.631-1.323,1.531-2.361,2.696-3.114
		c1.165-0.752,2.501-1.129,4.007-1.129s2.841,0.377,4.008,1.129c1.165,0.753,2.076,1.798,2.732,3.133l5.137-2.039
		c-1.118-2.186-2.733-3.88-4.845-5.082S406.43,0,403.686,0c-2.648,0-5.009,0.578-7.085,1.731c-2.077,1.154-3.698,2.774-4.864,4.864
		c-1.165,2.088-1.749,4.456-1.749,7.103c0,2.623,0.541,4.972,1.621,7.049c1.081,2.076,2.587,3.703,4.517,4.881
		c1.931,1.179,4.135,1.767,6.612,1.767c2.088,0,3.988-0.432,5.701-1.293c1.175-0.591,2.181-1.395,3.041-2.382v3.237h4.99V12.349
		h-11.511V16.903z"/>
	<path d="M427.728,0.438l-9.471,26.519h5.646l1.648-5.137h10.546l1.648,5.137h6.448l-9.471-26.519H427.728z M427.001,17.304
		l3.824-11.917l3.824,11.917H427.001z"/>
	<polygon points="461.806,17.401 454.976,0.438 446.816,0.438 446.816,26.957 452.207,26.957 452.207,7.906 459.858,26.957 
		462.735,26.957 470.384,7.76 470.384,26.957 476.395,26.957 476.395,0.438 468.636,0.438 	"/>
	<polygon points="487.323,22.112 487.323,15.81 498.543,15.81 498.543,11.111 487.323,11.111 487.323,5.283 499.636,5.283 
		499.636,0.438 481.204,0.438 481.204,26.957 500,26.957 500,22.112 	"/>
</g>
</svg>
