<?xml version="1.0" encoding="utf-8"?>
<!-- Generator: Adobe Illustrator 30.0.0, SVG Export Plug-In . SVG Version: 9.03 Build 0)  -->
<svg version="1.1" id="card_title_1" xmlns="http://www.w3.org/2000/svg" xmlns:xlink="http://www.w3.org/1999/xlink" x="0px"
	 y="0px" width="500px" height="27.709px" viewBox="0 0 500 27.709" enable-background="new 0 0 500 27.709" xml:space="preserve">
<g>
	<path fill="#231F20" d="M12.122,11.092l-0.958-0.185c-0.958-0.245-1.737-0.478-2.339-0.7C8.223,9.986,7.757,9.685,7.425,9.304
		c-0.332-0.38-0.497-0.866-0.497-1.455c0-0.614,0.178-1.148,0.534-1.603s0.847-0.798,1.473-1.032c0.626-0.233,1.37-0.35,2.229-0.35
		c1.277,0,2.635,0.247,4.072,0.737c1.436,0.492,2.671,1.142,3.703,1.953l1.364-4.349c-1.155-0.907-2.542-1.669-4.164-2.283
		C14.518,0.308,12.713,0,10.723,0c-1.965,0-3.722,0.332-5.27,0.995s-2.757,1.64-3.629,2.93c-0.873,1.29-1.308,2.843-1.308,4.662
		c0,1.424,0.301,2.629,0.903,3.61c0.602,0.983,1.554,1.806,2.856,2.47c1.302,0.662,3.045,1.228,5.233,1.694l0.921,0.222
		c1.473,0.344,2.547,0.742,3.224,1.197c0.674,0.455,1.012,1.1,1.012,1.935c0,0.639-0.184,1.191-0.552,1.657
		c-0.369,0.467-0.89,0.83-1.566,1.087c-0.676,0.258-1.455,0.387-2.34,0.387c-1.62,0-3.237-0.313-4.844-0.94
		c-1.609-0.626-2.942-1.357-3.998-2.192L0,24.024c1.032,1.007,2.499,1.874,4.404,2.598c1.902,0.724,3.973,1.087,6.208,1.087
		c2.039,0,3.851-0.332,5.435-0.995s2.825-1.646,3.721-2.948c0.896-1.302,1.345-2.862,1.345-4.679c0-2.211-0.706-3.925-2.118-5.14
		C17.582,12.732,15.291,11.78,12.122,11.092z"/>
	<path fill="#231F20" d="M43.902,20.966c-1.461,0.81-3.138,1.216-5.029,1.216c-1.819,0-3.384-0.411-4.698-1.234
		c-1.314-0.822-2.315-1.922-3.003-3.298c-0.688-1.375-1.032-2.886-1.032-4.532c0-1.621,0.332-3.064,0.995-4.329
		c0.663-1.265,1.584-2.26,2.764-2.985c1.179-0.724,2.493-1.086,3.942-1.086c1.671,0,3.133,0.491,4.386,1.473
		s2.174,2.322,2.763,4.016l5.416-1.584c-0.663-1.768-1.603-3.291-2.819-4.568c-1.216-1.277-2.684-2.272-4.403-2.985
		C41.464,0.358,39.561,0,37.472,0c-2.629,0-4.98,0.584-7.055,1.751c-2.076,1.168-3.704,2.806-4.883,4.92
		c-1.179,2.112-1.769,4.508-1.769,7.184c0,2.678,0.591,5.072,1.769,7.186c1.179,2.112,2.806,3.752,4.883,4.918
		c2.075,1.168,4.463,1.751,7.166,1.751c2.948,0,5.588-0.7,7.922-2.101c2.334-1.399,4.077-3.303,5.233-5.711l-3.132-2.248
		C46.598,19.05,45.363,20.155,43.902,20.966z"/>
	<path fill="#231F20" d="M73.987,13.56c0.958-1.277,1.436-2.763,1.436-4.458c0-1.793-0.418-3.34-1.253-4.642
		s-2.039-2.297-3.611-2.985c-1.572-0.688-3.414-1.032-5.526-1.032H53.611v26.824h6.189v-9.764h4.633l4.615,9.764h6.706
		l-5.423-10.848C71.835,15.746,73.059,14.798,73.987,13.56z M59.801,5.233h4.68c1.498,0,2.664,0.332,3.5,0.995
		c0.835,0.663,1.253,1.621,1.253,2.874c0,1.203-0.424,2.143-1.271,2.819c-0.848,0.676-1.971,1.013-3.372,1.013h-4.79V5.233z"/>
	<path fill="#231F20" d="M86.33,0.443l-9.58,26.824h5.712l1.667-5.196h10.667l1.667,5.196h6.521l-9.58-26.824H86.33z M85.596,17.503
		l3.867-12.052l3.868,12.052H85.596z"/>
	<polygon fill="#231F20" points="100.554,5.344 108.033,5.344 108.033,27.267 114.224,27.267 114.224,5.344 121.74,5.344 
		121.74,0.443 100.554,0.443 	"/>
	<path fill="#231F20" d="M142.429,20.966c-1.461,0.81-3.138,1.216-5.029,1.216c-1.819,0-3.384-0.411-4.698-1.234
		c-1.314-0.822-2.315-1.922-3.003-3.298c-0.688-1.375-1.032-2.886-1.032-4.532c0-1.621,0.332-3.064,0.995-4.329
		s1.584-2.26,2.764-2.985c1.179-0.724,2.493-1.086,3.942-1.086c1.671,0,3.133,0.491,4.386,1.473s2.174,2.322,2.763,4.016
		l5.416-1.584c-0.663-1.768-1.603-3.291-2.819-4.568s-2.684-2.272-4.403-2.985C139.991,0.358,138.088,0,135.999,0
		c-2.629,0-4.98,0.584-7.055,1.751c-2.076,1.168-3.704,2.806-4.883,4.92c-1.179,2.112-1.769,4.508-1.769,7.184
		c0,2.678,0.591,5.072,1.769,7.186c1.179,2.112,2.806,3.752,4.883,4.918c2.075,1.168,4.463,1.751,7.166,1.751
		c2.948,0,5.588-0.7,7.922-2.101c2.334-1.399,4.077-3.303,5.233-5.711l-3.132-2.248C145.125,19.05,143.89,20.155,142.429,20.966z"/>
	<polygon fill="#231F20" points="169.566,10.87 158.328,10.87 158.328,0.443 152.138,0.443 152.138,27.267 158.328,27.267 
		158.328,15.954 169.566,15.954 169.566,27.267 175.72,27.267 175.72,0.443 169.566,0.443 	"/>
	<polygon fill="#231F20" points="203.188,17.6 196.279,0.443 188.026,0.443 188.026,27.267 193.479,27.267 193.479,8 
		201.216,27.267 204.127,27.267 211.865,7.846 211.865,27.267 217.945,27.267 217.945,0.443 210.096,0.443 	"/>
	<path fill="#231F20" d="M230.214,0.443l-9.58,26.824h5.711l1.667-5.196h10.667l1.667,5.196h6.522l-9.58-26.824H230.214z
		 M229.478,17.503l3.868-12.053l3.868,12.053H229.478z"/>
	<polygon fill="#231F20" points="244.436,5.344 251.915,5.344 251.915,27.267 258.106,27.267 258.106,5.344 265.622,5.344 
		265.622,0.443 244.436,0.443 	"/>
	<path fill="#231F20" d="M286.312,20.966c-1.462,0.81-3.138,1.216-5.029,1.216c-1.819,0-3.384-0.411-4.699-1.234
		c-1.314-0.822-2.315-1.922-3.002-3.298c-0.688-1.375-1.032-2.886-1.032-4.532c0-1.621,0.332-3.064,0.995-4.329
		s1.584-2.26,2.763-2.985c1.18-0.724,2.493-1.086,3.943-1.086c1.669,0,3.132,0.491,4.384,1.473s2.174,2.322,2.763,4.016l5.416-1.584
		c-0.662-1.768-1.603-3.291-2.819-4.568s-2.684-2.272-4.403-2.985C283.874,0.358,281.97,0,279.883,0
		c-2.629,0-4.981,0.584-7.056,1.751c-2.076,1.168-3.703,2.806-4.883,4.92c-1.179,2.112-1.768,4.508-1.768,7.184
		c0,2.678,0.589,5.072,1.768,7.186c1.18,2.112,2.806,3.752,4.883,4.918c2.075,1.168,4.465,1.751,7.167,1.751
		c2.947,0,5.588-0.7,7.922-2.101c2.333-1.399,4.077-3.303,5.231-5.711l-3.132-2.248C289.008,19.05,287.773,20.155,286.312,20.966z"
		/>
	<polygon fill="#231F20" points="313.449,10.87 302.211,10.87 302.211,0.443 296.021,0.443 296.021,27.267 302.211,27.267 
		302.211,15.954 313.449,15.954 313.449,27.267 319.602,27.267 319.602,0.443 313.449,0.443 	"/>
	<path fill="#231F20" d="M348.526,17.318c0,1.745-0.467,3.071-1.401,3.98s-2.235,1.362-3.905,1.362
		c-1.671,0-2.979-0.454-3.924-1.362s-1.419-2.235-1.419-3.98V0.443h-6.189v16.47c0,2.212,0.448,4.128,1.345,5.748
		c0.896,1.621,2.186,2.869,3.868,3.741c1.683,0.872,3.691,1.308,6.025,1.308c2.333,0,4.347-0.436,6.043-1.308
		c1.694-0.872,2.99-2.119,3.886-3.741c0.896-1.62,1.345-3.536,1.345-5.748V0.443h-5.674V17.318z"/>
	<path fill="#231F20" d="M375.295,1.53c-1.561-0.725-3.372-1.087-5.435-1.087h-11.018v26.824h6.191v-9.065h4.827
		c1.989,0,3.763-0.349,5.324-1.049c1.56-0.7,2.782-1.708,3.666-3.022c0.885-1.313,1.327-2.879,1.327-4.698
		c0-1.817-0.423-3.408-1.271-4.772C378.058,3.298,376.853,2.255,375.295,1.53z M373.342,11.755
		c-0.381,0.639-0.921,1.117-1.621,1.436s-1.518,0.48-2.451,0.48h-4.236V5.233h4.236c1.45,0,2.586,0.362,3.409,1.087
		c0.822,0.725,1.234,1.762,1.234,3.113C373.913,10.342,373.722,11.116,373.342,11.755z"/>
	<path fill="#231F20" d="M403.869,17.097h6.226v0.663c0,0.933-0.313,1.787-0.94,2.561c-0.626,0.773-1.461,1.381-2.505,1.824
		c-1.044,0.443-2.168,0.663-3.371,0.663c-1.621,0-3.047-0.418-4.275-1.253c-1.228-0.835-2.186-1.965-2.874-3.389
		c-0.688-1.425-1.032-2.973-1.032-4.643s0.319-3.175,0.958-4.514c0.639-1.338,1.549-2.388,2.727-3.15
		c1.179-0.761,2.53-1.142,4.053-1.142s2.874,0.381,4.054,1.142c1.179,0.762,2.1,1.819,2.763,3.169l5.196-2.063
		c-1.131-2.211-2.764-3.925-4.901-5.14S405.354,0,402.579,0c-2.678,0-5.066,0.584-7.166,1.751c-2.101,1.168-3.741,2.806-4.919,4.92
		c-1.179,2.112-1.769,4.508-1.769,7.184c0,2.653,0.547,5.029,1.64,7.13c1.094,2.1,2.616,3.746,4.569,4.937
		c1.953,1.192,4.182,1.788,6.688,1.788c2.112,0,4.034-0.436,5.767-1.308c1.189-0.598,2.206-1.411,3.076-2.409v3.275h5.048V12.491
		h-11.643V17.097z"/>
	<path fill="#231F20" d="M426.898,0.443l-9.58,26.824h5.711l1.667-5.196h10.667l1.667,5.196h6.522l-9.58-26.824H426.898z
		 M426.162,17.503L430.03,5.45l3.868,12.053H426.162z"/>
	<polygon fill="#231F20" points="461.367,17.601 454.458,0.443 446.205,0.443 446.205,27.267 451.658,27.267 451.658,7.997 
		459.396,27.267 462.307,27.267 470.044,7.849 470.044,27.267 476.124,27.267 476.124,0.443 468.276,0.443 	"/>
	<polygon fill="#231F20" points="487.177,22.366 487.177,15.991 498.527,15.991 498.527,11.238 487.177,11.238 487.177,5.344 
		499.631,5.344 499.631,0.443 480.988,0.443 480.988,27.267 500,27.267 500,22.366 	"/>
</g>
</svg>
