<?xml version="1.0" encoding="utf-8"?>
<!-- Generator: Adobe Illustrator 30.0.0, SVG Export Plug-In . SVG Version: 9.03 Build 0)  -->
<svg version="1.1" id="hand1" xmlns="http://www.w3.org/2000/svg" xmlns:xlink="http://www.w3.org/1999/xlink" x="0px" y="0px"
	 width="50px" height="50px" viewBox="0 0 50 50" enable-background="new 0 0 50 50" xml:space="preserve">
<g>
	<g>
		<path fill="#1A1D1E" d="M26.947,33.841c1.634-0.148,2.228-1.898,3.672-2.019l8.995-0.001c0.76,0.121,0.766,1.202,0,1.322
			l-8.913,0.009c-0.477,0.069-1.159,0.84-1.573,1.144c-0.65,0.477-1.33,0.77-2.143,0.831c-0.13,0.01-0.653-0.037-0.701,0.033
			l-0.146,2.352c0.357,0.213,0.747,0.369,1.097,0.594c3.856,2.484,3.851,7.878,0.317,10.656c-1.671,1.313-4.283,1.581-6.239,0.81
			c-0.116-0.046-0.528-0.22-0.603-0.279c-0.047-0.037-0.066-0.059-0.061-0.123l0-3.451c-0.215-0.681-1.15-0.638-1.28,0.074
			l-0.009,3.46c-0.631,0.285-1.407,0.646-2.106,0.703c-2.677,0.219-4.851-0.591-6.363-2.852c-2.58-3.858-0.273-9.102,4.225-9.924
			c0.106-0.047,0.056-0.554,0.065-0.678c0.046-0.683,0.121-1.367,0.178-2.049c-0.666-0.685-0.707-1.574-0.33-2.423
			c-0.795-0.839-0.809-2.023-0.49-3.077c-0.875-1.048-0.912-2.452-0.209-3.606c-0.816-1.078-0.564-2.973,0.831-3.403
			c0.599-0.185,1.403-0.008,2.034-0.077c0.531-2.181,1.133-4.361,2.119-6.383c-0.473-1.609,0.792-3.328,1.779-4.497
			c1.617-1.915,3.684-3.424,6.075-1.597c0.061,0.046,0.129,0.157,0.192,0.175c0.092,0.027,0.215-0.003,0.318,0.012
			c3.302,0.48,3.358,3.745,2.992,6.396c-0.146,1.059-0.492,2.495-1.353,3.2c-0.116,0.095-0.391,0.224-0.449,0.322
			c-0.139,0.233-0.349,1.161-0.429,1.48c-0.034,0.135-0.186,0.627-0.133,0.714c0.034,0.054,1.008,0.439,1.171,0.519
			c0.849,0.417,1.651,0.93,2.437,1.454c0.656,0,1.322,0.048,1.972-0.029c1.254,0.129,2.745-0.185,3.968-0.036
			c0.567,0.069,0.788,0.871,0.264,1.183c-0.305,0.181-1.024,0.09-1.404,0.101c-0.818,0.023-1.638,0.028-2.46,0.037
			c-0.847,0.009-2.328,0.216-3.052-0.176c-0.412-0.223-0.832-0.562-1.249-0.807c-1.802-1.058-4.15-1.936-6.273-1.808
			c-0.107,0.006-0.339,0.025-0.432,0.046c-0.44,0.099-1.246,1.774-1.428,2.207c-0.243,0.578-0.772,1.945-0.814,2.527
			c-0.036,0.501,0.387,0.776,0.857,0.674c0.673-0.146,1.555-1.436,2.05-1.918c-0.062-0.41-0.417-0.819-0.186-1.248
			c0.168-0.311,0.605-0.408,0.901-0.225c0.3,0.186,0.292,0.473,0.422,0.753c0.596,1.287,1.577,1.955,2.936,2.277
			c0.209,0.049,0.408,0.028,0.609,0.126c0.438,0.212,0.514,0.769,0.134,1.079c-0.41,0.335-1.249-0.044-1.726-0.093l-0.624,5.507
			C26.563,33.829,26.765,33.857,26.947,33.841z M25.143,15.985c0.813,0.483,1.076,1.004,1.73,1.594
			c0.449,0.405,1.253,1.089,1.775,0.452c0.751-0.916,0.989-3.757,0.846-4.908c-0.092-0.744-0.385-1.555-1.06-1.951
			c-0.166-0.097-0.78-0.378-0.938-0.238c-0.215,0.387-0.349,0.854-0.562,1.237c-0.388,0.696-1.328,0.367-1.253-0.333
			c0.031-0.292,0.66-1.324,0.618-1.467c-1.344-1.098-2.693-0.178-3.687,0.856c-0.681,0.709-2.151,2.519-2.15,3.506
			c0.001,0.559,0.642,0.724,1.09,0.785C22.94,15.706,23.802,15.187,25.143,15.985z M20.944,23.157h-5.342
			c-0.261,0-0.458,0.498-0.462,0.716c-0.006,0.316,0.196,0.725,0.433,0.928l4.657,0.01L20.944,23.157z M19.843,26.094h-4.424
			c-0.359,0.571-0.412,1.368,0.042,1.903l4.51,0.043c0.07-0.003-0.164-0.453-0.183-0.514C19.627,26.999,19.731,26.612,19.843,26.094
			z M15.774,29.333c-0.161,0.636-0.285,1.445,0.312,1.894l4.36,0.005c0.202-0.032,0.4-0.355,0.452-0.54
			c0.053-0.188,0.041-0.659-0.019-0.843c-0.153-0.475-0.851-0.538-1.274-0.562c-1.045-0.059-2.603-0.077-3.638,0
			C15.901,29.292,15.832,29.295,15.774,29.333z M16.269,32.562c-0.401,0.49-0.1,1.07,0.443,1.271l3.773,0.008
			c0.16-0.031,0.402-0.06,0.451-0.246c0.086-0.328,0.099-0.982-0.349-1.029L16.269,32.562z M13.04,42.917
			c-0.794,0.147-0.391,1.582-0.191,2.083c0.536,1.347,2.271,2.653,3.773,2.378c0.612-0.112,0.646-1.124-0.082-1.26
			c-0.587-0.11-0.833-0.022-1.408-0.354c-0.948-0.547-1.154-1.271-1.278-2.283C13.801,43.049,13.461,42.839,13.04,42.917z
			 M26.622,46.273c0.644-0.639,1.256-1.947,1.112-2.867c-0.105-0.669-1.177-0.685-1.28,0.038c-0.135,0.954-0.203,1.565-1.056,2.175
			c-0.624,0.446-0.897,0.38-1.593,0.5c-0.782,0.135-0.722,1.167-0.088,1.266C24.69,47.537,25.944,46.946,26.622,46.273z"/>
	</g>
	<g>
		<g>
			<path fill="#1A1D1E" d="M29.345,5.782c-0.039,0-0.077-0.006-0.114-0.019c-0.097-0.033-0.174-0.106-0.213-0.201
				c-0.002-0.004-0.003-0.008-0.004-0.011c-0.139-0.347-1.153-2.942-0.783-4.026c0.28-0.766,0.948-1.333,1.746-1.484
				C30.12,0.014,30.265,0,30.409,0c0.663,0,1.295,0.285,1.734,0.781c0.538,0.608,0.72,1.466,0.474,2.239
				c-0.364,1.064-2.641,2.447-3.094,2.714C29.469,5.766,29.407,5.782,29.345,5.782L29.345,5.782z M30.397,0.698
				c-0.671,0-1.274,0.425-1.5,1.057c-0.179,0.523,0.176,1.928,0.626,3.154c1.107-0.695,2.248-1.59,2.427-2.114
				c0.271-0.83-0.185-1.73-1.017-2.004C30.757,0.729,30.578,0.698,30.397,0.698z"/>
		</g>
		<g>
			<path fill="#1A1D1E" d="M33.46,8.086c-0.505,0-0.953-0.196-1.386-0.386c-0.131-0.057-0.278-0.122-0.419-0.175
				c-0.334-0.125-0.657-0.189-0.962-0.189c-0.242,0-0.47,0.041-0.677,0.123c-0.07,0.027-0.137,0.06-0.2,0.099
				c-0.055,0.034-0.119,0.053-0.185,0.053c-0.095,0-0.187-0.039-0.253-0.107c-0.114-0.118-0.132-0.303-0.042-0.439
				c0.663-1.003,1.833-1.626,3.053-1.626c0.417,0,0.82,0.073,1.197,0.217c0.652,0.247,1.039,0.706,1.059,1.259
				c0.035,0.563-0.377,1.073-0.94,1.155c-0.005,0.001-0.01,0.001-0.015,0.002C33.616,8.081,33.538,8.086,33.46,8.086z M31.915,6.87
				c0.145,0.054,0.286,0.116,0.442,0.185c0.383,0.168,0.745,0.326,1.103,0.326c0.052,0,0.103-0.003,0.153-0.01
				c0.202-0.03,0.348-0.216,0.331-0.422c-0.015-0.373-0.428-0.568-0.605-0.635c-0.028-0.011-0.055-0.02-0.081-0.029
				c-0.285-0.091-0.585-0.137-0.888-0.137c-0.223,0-0.446,0.025-0.663,0.076c-0.344,0.08-0.669,0.22-0.96,0.414
				c0.399,0.004,0.789,0.082,1.16,0.23C31.909,6.868,31.912,6.869,31.915,6.87z"/>
		</g>
		<g>
			<path fill="#1A1D1E" d="M27.998,7.051c-0.146,0-0.279-0.092-0.33-0.23c-0.024-0.063-0.055-0.127-0.091-0.19
				c-0.002-0.003-0.004-0.006-0.006-0.009c-0.323-0.543-0.905-0.817-1.336-0.951c-0.141-0.044-0.292-0.082-0.438-0.118
				c-0.534-0.134-1.086-0.273-1.516-0.706c-0.396-0.411-0.41-1.067-0.035-1.494c0.239-0.286,0.589-0.439,1.01-0.439
				c0.19,0,0.39,0.032,0.596,0.094c1.546,0.471,2.62,2.068,2.498,3.715c-0.013,0.167-0.137,0.299-0.302,0.322
				C28.031,7.05,28.015,7.051,27.998,7.051z M24.782,4.352c0.291,0.294,0.726,0.403,1.187,0.519l0.023,0.006
				c0.149,0.038,0.303,0.076,0.452,0.123c0.036,0.011,0.073,0.023,0.111,0.036c0.338,0.108,0.656,0.273,0.939,0.487
				c-0.3-0.87-0.997-1.579-1.848-1.838c-0.076-0.023-0.228-0.062-0.39-0.062c-0.209,0-0.367,0.063-0.472,0.188
				c-0.144,0.156-0.143,0.389-0.005,0.539C24.78,4.35,24.781,4.351,24.782,4.352z"/>
		</g>
	</g>
</g>
</svg>
