<?xml version="1.0" encoding="utf-8"?>
<!-- Generator: Adobe Illustrator 30.0.0, SVG Export Plug-In . SVG Version: 9.03 Build 0)  -->
<svg version="1.1" id="t2" xmlns="http://www.w3.org/2000/svg" xmlns:xlink="http://www.w3.org/1999/xlink" x="0px" y="0px"
	 width="100px" height="100px" viewBox="0 0 100 100" style="enable-background:new 0 0 100 100;" xml:space="preserve">
<path d="M15.318,100V84.971l35.115-32.515c2.987-2.89,5.499-5.491,7.539-7.804c2.04-2.312,3.589-4.584,4.648-6.816
	c1.06-2.232,1.59-4.648,1.59-7.249c0-2.89-0.658-5.387-1.975-7.491c-1.317-2.103-3.114-3.725-5.395-4.865
	c-2.281-1.139-4.865-1.71-7.755-1.71c-3.018,0-5.653,0.61-7.9,1.83c-2.247,1.221-3.981,2.971-5.202,5.251
	c-1.219,2.281-1.83,4.994-1.83,8.141H14.355c0-6.455,1.461-12.058,4.384-16.811c2.922-4.752,7.016-8.429,12.283-11.031
	C36.287,1.301,42.357,0,49.229,0c7.064,0,13.223,1.245,18.473,3.733c5.251,2.489,9.338,5.933,12.259,10.332
	c2.922,4.4,4.384,9.441,4.384,15.126c0,3.725-0.73,7.402-2.192,11.031c-1.462,3.629-4.054,7.652-7.78,12.067
	c-3.726,4.416-8.976,9.706-15.752,15.872L44.219,82.274v0.674h41.427V100H15.318z"/>
</svg>
