<?xml version="1.0" encoding="UTF-8"?>
<svg xmlns="http://www.w3.org/2000/svg"
viewBox="0 0 200 200"
preserveAspectRatio="xMidYMid meet">
<circle fill="#0E0F0E" cx="100" cy="100" r="100"/>
<linearGradient id="SVGID_1_" gradientUnits="userSpaceOnUse" x1="200" y1="100" x2="-9.094947e-13" y2="100">
	<stop  offset="0" style="stop-color:#AA7925"/>
	<stop  offset="0.1749" style="stop-color:#FFF7C5"/>
	<stop  offset="0.2101" style="stop-color:#FFF5C0"/>
	<stop  offset="0.2513" style="stop-color:#FFF1B2"/>
	<stop  offset="0.2954" style="stop-color:#FFE99B"/>
	<stop  offset="0.3413" style="stop-color:#FFDF7A"/>
	<stop  offset="0.3584" style="stop-color:#FFDA6C"/>
	<stop  offset="0.4061" style="stop-color:#DFB856"/>
	<stop  offset="0.4821" style="stop-color:#B28737"/>
	<stop  offset="0.5401" style="stop-color:#966923"/>
	<stop  offset="0.5727" style="stop-color:#8B5E1C"/>
	<stop  offset="0.6232" style="stop-color:#AD7A30"/>
	<stop  offset="0.6881" style="stop-color:#D59B47"/>
	<stop  offset="0.6994" style="stop-color:#C28C40"/>
	<stop  offset="0.7503" style="stop-color:#6F4B20"/>
	<stop  offset="0.7735" style="stop-color:#4E3113"/>
	<stop  offset="0.8542" style="stop-color:#7A5119"/>
	<stop  offset="0.8959" style="stop-color:#8B5E1C"/>
	<stop  offset="1" style="stop-color:#D59B47"/>
</linearGradient>
<path fill="url(#SVGID_1_)" d="M100,5.368c52.18,0,94.632,42.452,94.632,94.632c0,52.18-42.452,94.632-94.632,94.632
	S5.368,152.18,5.368,100C5.368,47.82,47.82,5.368,100,5.368 M100,0C44.772,0,0,44.772,0,100s44.772,100,100,100s100-44.772,100-100
	S155.228,0,100,0L100,0z"/>
<linearGradient id="SVGID_00000183210561987408383090000010773505512910546859_" gradientUnits="userSpaceOnUse" x1="25.4319" y1="100" x2="174.5681" y2="100">
	<stop  offset="0" style="stop-color:#AA7925"/>
	<stop  offset="0.1749" style="stop-color:#FFF7C5"/>
	<stop  offset="0.2101" style="stop-color:#FFF5C0"/>
	<stop  offset="0.2513" style="stop-color:#FFF1B2"/>
	<stop  offset="0.2954" style="stop-color:#FFE99B"/>
	<stop  offset="0.3413" style="stop-color:#FFDF7A"/>
	<stop  offset="0.3584" style="stop-color:#FFDA6C"/>
	<stop  offset="0.4061" style="stop-color:#DFB856"/>
	<stop  offset="0.4821" style="stop-color:#B28737"/>
	<stop  offset="0.5401" style="stop-color:#966923"/>
	<stop  offset="0.5727" style="stop-color:#8B5E1C"/>
	<stop  offset="0.6232" style="stop-color:#AD7A30"/>
	<stop  offset="0.6881" style="stop-color:#D59B47"/>
	<stop  offset="0.6994" style="stop-color:#C28C40"/>
	<stop  offset="0.7503" style="stop-color:#6F4B20"/>
	<stop  offset="0.7735" style="stop-color:#4E3113"/>
	<stop  offset="0.8542" style="stop-color:#7A5119"/>
	<stop  offset="0.8959" style="stop-color:#8B5E1C"/>
	<stop  offset="1" style="stop-color:#D59B47"/>
</linearGradient>
<path fill="url(#SVGID_00000183210561987408383090000010773505512910546859_)" d="M56.073,126.61
	c-16.894,0-30.642-13.744-30.642-30.642c0-14.078,9.521-26.296,23.152-29.711c0.444-0.11,0.802-0.433,0.966-0.859
	c2.213-5.846,6.082-10.8,11.188-14.332c5.127-3.543,11.167-5.417,17.467-5.417c5.148,0,10.04,1.232,14.541,3.66
	c0.206,0.11,0.433,0.167,0.662,0.167c0.149,0,0.295-0.024,0.438-0.072c0.364-0.122,0.662-0.388,0.826-0.737
	c2.449-5.285,6.326-9.736,11.218-12.867c4.927-3.156,10.657-4.823,16.569-4.823c16.897,0,30.645,13.747,30.645,30.645v4.089
	c0,0.594,0.376,1.122,0.934,1.315c12.277,4.286,20.53,15.916,20.53,28.941c0,16.897-13.747,30.645-30.645,30.645h-87.85V126.61z
	 M78.095,49.48c-11.761,0.042-22.001,7.6-25.502,18.83c-0.215,0.68-0.778,1.181-1.473,1.309
	c-12.671,2.368-21.863,13.449-21.863,26.346c0,14.785,12.029,26.815,26.815,26.815h87.841c14.785,0,26.815-12.029,26.815-26.815
	c0-12.205-8.235-22.875-20.029-25.95c-0.847-0.218-1.438-0.978-1.438-1.849v-6.544c0-14.785-12.029-26.815-26.815-26.815
	c-11.785,0-22.066,7.546-25.586,18.779c-0.185,0.588-0.641,1.053-1.223,1.244c-0.197,0.066-0.403,0.098-0.608,0.098
	c-0.406,0-0.796-0.125-1.13-0.367c-4.596-3.329-10.028-5.089-15.701-5.089C78.16,49.477,78.128,49.477,78.095,49.48z
	 M54.525,158.159c2.309,0,4.191,1.882,4.191,4.191s-1.882,4.191-4.191,4.191s-4.191-1.882-4.191-4.191
	S52.214,158.159,54.525,158.159 M54.525,155.677c-3.687,0-6.672,2.986-6.672,6.672s2.986,6.672,6.672,6.672
	c3.687,0,6.672-2.986,6.672-6.672C61.198,158.666,58.209,155.677,54.525,155.677L54.525,155.677z M73.221,138.416
	c2.887,0,5.238,2.347,5.238,5.238c0,2.887-2.347,5.238-5.238,5.238c-2.887,0-5.238-2.347-5.238-5.238
	C67.983,140.763,70.331,138.416,73.221,138.416 M73.221,135.314c-4.605,0-8.34,3.734-8.34,8.34c0,4.605,3.734,8.34,8.34,8.34
	c4.605,0,8.34-3.734,8.34-8.34C81.561,139.048,77.826,135.314,73.221,135.314L73.221,135.314z M59.757,91.795l-8.518-12.777
	c-0.291-0.436,0.022-1.021,0.546-1.021h9.216c0.239,0,0.46,0.13,0.575,0.34l3.75,6.806c0.247,0.448,0.888,0.454,1.144,0.012
	l3.949-6.83c0.117-0.203,0.334-0.328,0.568-0.328h8.938c0.526,0,0.839,0.588,0.544,1.024l-8.78,12.995
	c-0.15,0.222-0.15,0.512-0.001,0.734l9.562,14.217c0.293,0.436-0.019,1.023-0.545,1.023h-9.216c-0.236,0-0.454-0.127-0.571-0.332
	l-4.753-8.354c-0.249-0.437-0.876-0.444-1.134-0.012l-5.008,8.378c-0.119,0.198-0.333,0.32-0.564,0.32h-8.839
	c-0.525,0-0.838-0.586-0.545-1.022l9.679-14.443C59.904,92.304,59.904,92.016,59.757,91.795z M93.85,91.551l-11.874-18.12
	c-0.286-0.437,0.027-1.017,0.549-1.017h10.24c0.232,0,0.448,0.123,0.566,0.323l6.364,10.789c0.252,0.426,0.867,0.432,1.125,0.01
	l6.624-10.808c0.119-0.195,0.331-0.314,0.56-0.314h9.694c0.522,0,0.835,0.579,0.55,1.016l-11.988,18.343
	c-0.142,0.218-0.143,0.499-0.001,0.717l13.048,20.066c0.284,0.437-0.029,1.015-0.551,1.015h-10.19c-0.232,0-0.447-0.123-0.565-0.323
	l-7.586-12.846c-0.252-0.426-0.866-0.431-1.125-0.01l-7.902,12.866c-0.119,0.194-0.331,0.313-0.56,0.313h-9.641
	c-0.521,0-0.835-0.578-0.55-1.015l13.213-20.287C93.993,92.051,93.993,91.769,93.85,91.551z M128.426,91.795l-8.518-12.777
	c-0.291-0.436,0.022-1.021,0.546-1.021h9.216c0.239,0,0.46,0.13,0.575,0.34l3.75,6.806c0.247,0.448,0.888,0.454,1.144,0.012
	l3.949-6.83c0.117-0.203,0.334-0.328,0.568-0.328h8.938c0.526,0,0.839,0.588,0.544,1.024l-8.78,12.995
	c-0.15,0.222-0.15,0.512-0.001,0.734l9.562,14.217c0.293,0.436-0.019,1.023-0.545,1.023h-9.216c-0.236,0-0.454-0.127-0.571-0.332
	l-4.753-8.354c-0.249-0.437-0.876-0.444-1.134-0.012l-5.008,8.378c-0.119,0.198-0.333,0.32-0.564,0.32h-8.839
	c-0.525,0-0.838-0.586-0.545-1.022l9.679-14.443C128.573,92.304,128.573,92.016,128.426,91.795z"/>
</svg>
