<?xml version="1.0" encoding="UTF-8"?>
<svg xmlns="http://www.w3.org/2000/svg"
viewBox="0 0 200 200"
preserveAspectRatio="xMidYMid meet">
<circle fill="#0E0F0E" cx="100" cy="100" r="100"/>
<linearGradient id="SVGID_1_" gradientUnits="userSpaceOnUse" x1="170.7107" y1="29.2893" x2="29.2893" y2="170.7107">
	<stop  offset="0" style="stop-color:#AA7925"/>
	<stop  offset="0.1749" style="stop-color:#FFF7C5"/>
	<stop  offset="0.2101" style="stop-color:#FFF5C0"/>
	<stop  offset="0.2513" style="stop-color:#FFF1B2"/>
	<stop  offset="0.2954" style="stop-color:#FFE99B"/>
	<stop  offset="0.3413" style="stop-color:#FFDF7A"/>
	<stop  offset="0.3584" style="stop-color:#FFDA6C"/>
	<stop  offset="0.4061" style="stop-color:#DFB856"/>
	<stop  offset="0.4821" style="stop-color:#B28737"/>
	<stop  offset="0.5401" style="stop-color:#966923"/>
	<stop  offset="0.5727" style="stop-color:#8B5E1C"/>
	<stop  offset="0.6232" style="stop-color:#AD7A30"/>
	<stop  offset="0.6881" style="stop-color:#D59B47"/>
	<stop  offset="0.6994" style="stop-color:#C28C40"/>
	<stop  offset="0.7503" style="stop-color:#6F4B20"/>
	<stop  offset="0.7735" style="stop-color:#4E3113"/>
	<stop  offset="0.8542" style="stop-color:#7A5119"/>
	<stop  offset="0.8959" style="stop-color:#8B5E1C"/>
	<stop  offset="1" style="stop-color:#D59B47"/>
</linearGradient>
<path fill="url(#SVGID_1_)" d="M100,5.368c52.18,0,94.632,42.452,94.632,94.632S152.18,194.632,100,194.632S5.368,152.18,5.368,100
	S47.82,5.368,100,5.368 M100,0C44.772,0,0,44.772,0,100s44.772,100,100,100s100-44.772,100-100S155.228,0,100,0L100,0z"/>
<linearGradient id="SVGID_00000024711261556057323140000002858286313295065757_" gradientUnits="userSpaceOnUse" x1="50.7943" y1="100" x2="149.2057" y2="100">
	<stop  offset="0" style="stop-color:#AA7925"/>
	<stop  offset="0.1749" style="stop-color:#FFF7C5"/>
	<stop  offset="0.2101" style="stop-color:#FFF5C0"/>
	<stop  offset="0.2513" style="stop-color:#FFF1B2"/>
	<stop  offset="0.2954" style="stop-color:#FFE99B"/>
	<stop  offset="0.3413" style="stop-color:#FFDF7A"/>
	<stop  offset="0.3584" style="stop-color:#FFDA6C"/>
	<stop  offset="0.4061" style="stop-color:#DFB856"/>
	<stop  offset="0.4821" style="stop-color:#B28737"/>
	<stop  offset="0.5401" style="stop-color:#966923"/>
	<stop  offset="0.5727" style="stop-color:#8B5E1C"/>
	<stop  offset="0.6232" style="stop-color:#AD7A30"/>
	<stop  offset="0.6881" style="stop-color:#D59B47"/>
	<stop  offset="0.6994" style="stop-color:#C28C40"/>
	<stop  offset="0.7503" style="stop-color:#6F4B20"/>
	<stop  offset="0.7735" style="stop-color:#4E3113"/>
	<stop  offset="0.8542" style="stop-color:#7A5119"/>
	<stop  offset="0.8959" style="stop-color:#8B5E1C"/>
	<stop  offset="1" style="stop-color:#D59B47"/>
</linearGradient>
<path fill="url(#SVGID_00000024711261556057323140000002858286313295065757_)" d="M149.206,160.979v6.509h-34.765
	c-0.138-4.851,0.235-9.569,1.921-14.13c2.216-5.996,6.542-11.376,12.88-13.187c0.127-7.634-0.698-15.234-2.681-22.599
	c-0.54-2.005-1.171-3.99-1.906-5.931c1.081-0.445,2.33-0.575,3.176-1.551c1.882,5.072,3.276,10.398,4.046,15.776
	c0.566,3.949,0.787,7.98,0.916,11.954c0.013,0.404-0.17,1.82-0.144,1.912c0.111,0.39,0.998,0.198,1.377,0.258
	c9.462,1.498,14.536,12.034,15.044,20.755L149.206,160.979z M78.345,56.536l-2.187,0.55c-3.288,1.011-6.414,4.063-6.837,7.587
	c-0.094,0.781,0.068,1.713,0,2.515c0.36,1.855,0.995,3.479,1.898,5.129c1.335,2.441,3.03,4.549,3.982,7.261
	c1.104,3.145,0.572,6.622,2.921,9.358c0.551,0.642,1.175,0.899,1.705,1.402c1.774,1.682,3.276,3.615,4.974,5.372l3.456-1.155
	l-2.81-3.399c3.075-0.531,5.195-2.22,6.808-4.807c2.319-3.719,3.309-8.286,3.105-12.652c4.862,3.59,9.276,7.713,13.464,12.061
	l4.139-0.523c-4.194-4.974-9.092-9.368-14.217-13.371c-1.047-0.818-3.845-2.485-4.526-3.24c-0.437-0.485-1.47-3.153-2.054-4.086
	c-1.884-3.004-5.28-6.304-8.711-7.414c-0.755-0.244-1.551-0.332-2.298-0.587H78.345z M99.795,167.488
	c0.647-0.66,0.947-1.482,1.297-2.328c0.963-2.33,1.742-5.123,2.33-7.582c1.172-4.904,1.751-9.917,1.995-14.943h-2.441
	c-0.148,0-1.032-0.384-1.109-0.295c-0.15,6.173-1.088,12.42-2.92,18.309c-0.402,1.293-1.669,3.942-1.802,5.004
	c-0.116,0.925,0.163,1.195,0.728,1.836H99.795z M83.484,99.621c-4.206,1.658-4.786,6.634-2.303,10.074
	c0.66,0.914,1.44,1.44,2.163,2.274c0.018,1.092-0.198,2.09-0.098,3.206c0.33,3.696,2.888,6.416,6.123,7.931
	c0.095,4.647,3.65,8.141,8.2,8.59c-0.419,3.825,2.301,7.301,6.148,7.684c2.071,0.206,6.906-1.691,9.025-2.511
	c1.649-0.638,2.983-1.08,4.141-2.516c2.233-2.768,0.478-7.205-1.965-9.266c1.065-3.366-0.059-7.694-2.77-9.965
	c-0.695,0.92-1.554,1.833-2.589,2.366c1.844,1.404,3.011,4.793,1.774,6.876c-3.927,0.99-7.67,2.593-11.499,3.886
	c-3.513,0.435-7.07-1.576-6.925-5.44l9.845-3.991c-1.51-0.285-2.919-1.011-4.063-2.023l-7.968,3.024
	c-3.142-1.228-4.608-4.201-3.77-7.485l8.536-3.003l-0.132-3.681l-9.54,3.411c-2.186-0.607-3.795-4.608-1.511-5.957l11.341-4.045
	l1.043-4.06L83.484,99.621z M110.516,128.132c1.944-0.546,2.643-0.494,3.446,1.446c0.849,2.05,0.672,2.706-1.344,3.616
	c-2.504,1.131-5.565,1.8-8.161,2.785c-2.375-0.315-4.023-2.118-3.148-4.553L110.516,128.132z M102.492,110.425
	c-0.103-0.494-0.15-1.743-0.18-2.335c-0.164-3.287,0.113-10.105,1.669-12.973c0.511-0.942,1.699-1.254,2.691-1.599
	c5.756-2.004,12.52-1.749,18.425-0.521c1.795,0.374,4.36,1.46,6.096,1.224l13.531-4.813c1.993-1.246,0.848-3.836-1.445-3.22
	l-12.642,4.525c-8.243-2.13-17.172-3.421-25.405-0.411c-1.499,0.548-3.108,1.134-3.986,2.523c-2.428,3.839-2.65,12.413-2.344,16.899
	c0.239,3.509,2.602,6.158,6.291,5.835c4.523-0.396,5.978-5.952,7.704-9.313c3.108,1.714,6.639,2.471,10.179,2.048
	c0.963-0.115,2.203-0.217,2.733-1.113c0.655-1.105,0.084-2.405-1.188-2.625c-0.653-0.113-1.83,0.301-2.563,0.353
	c-3.366,0.239-7.008-0.913-9.399-3.32c-1.007-1.013-1.936-3.287-3.766-2.004c-1.824,1.279,0.261,3.185,1.081,4.335
	c-0.977,2.005-2.407,6.967-4.452,7.975c-0.786,0.388-1.793,0.25-2.422-0.377C102.937,111.356,102.538,110.649,102.492,110.425z
	 M139.985,128.851c-0.339-0.189-1.399-0.826-1.726-0.649l-2.341,3.149l0.337,5.52c0.918,0.389,1.884,0.643,2.796,1.05
	c3.47,1.551,5.913,4.305,8.378,7.08C147.772,138.708,145.765,132.069,139.985,128.851z M138.203,117.356
	c-1.525,0.762-2.985,2.314-3.622,3.895c0.389,1.398,0.416,2.889,0.718,4.298c0.043,0.201-0.018,0.373,0.223,0.514
	c1.599-1.874,2.217-4.687,4.621-5.731c1.9-0.825,4.327-1.25,6.208-2.077c2.108-0.926,1.143-3.692-0.88-3.4
	C144.277,115.028,139.367,116.774,138.203,117.356z M66.604,49.822c0.134,0,0.268-0.033,0.386-0.094
	c0.215-0.112,0.372-0.312,0.429-0.55c0.233-0.993,2.225-9.795,0.58-12.959c-1.198-2.191-3.493-3.609-5.989-3.701
	c-0.089-0.003-0.178-0.005-0.266-0.005c-2.427,0-4.663,1.216-5.982,3.254c-1.358,2.096-1.515,4.789-0.408,7.033
	c1.663,3.198,10.295,6.704,10.918,6.954c0.007,0.004,0.015,0.007,0.022,0.01C66.394,49.802,66.498,49.822,66.604,49.822
	L66.604,49.822z M66.517,36.994c0.992,1.907,0.171,7.573-0.513,10.836c-3.063-1.313-8.172-3.893-9.164-5.801
	c-1.331-2.649-0.261-5.892,2.39-7.232c0.78-0.417,1.657-0.638,2.537-0.638C63.756,34.16,65.577,35.247,66.517,36.994z
	 M71.484,53.196c0.391-0.003,0.732-0.283,0.811-0.663c0.054-0.249,0.13-0.494,0.227-0.73c0.8-1.967,2.571-3.153,3.917-3.802
	c0.44-0.213,0.921-0.413,1.345-0.59c1.582-0.662,3.218-1.346,4.322-2.842c0.007-0.007,0.013-0.015,0.019-0.024
	c0.966-1.364,0.72-3.274-0.553-4.346c-0.664-0.589-1.518-0.9-2.467-0.9c-0.788,0-1.62,0.207-2.472,0.615
	c-4.553,2.172-7.121,7.602-5.972,12.632c0.088,0.382,0.424,0.649,0.816,0.649C71.477,53.196,71.483,53.196,71.484,53.196z
	 M77.098,41.552c0.083-0.043,0.169-0.088,0.256-0.128c0.348-0.167,1.039-0.447,1.757-0.447c0.539,0,0.995,0.16,1.362,0.484
	c0.636,0.511,0.766,1.435,0.3,2.099c-0.831,1.136-2.192,1.705-3.633,2.308c-0.486,0.202-0.959,0.401-1.404,0.617
	c-0.007,0.002-0.013,0.005-0.02,0.008c-1.414,0.646-2.654,1.61-3.627,2.811c0.115-1.472,0.566-2.906,1.322-4.184
	C74.296,43.622,75.571,42.389,77.098,41.552L77.098,41.552z M54.059,59.139c1.872-0.036,3.379-0.987,4.836-1.907
	c0.41-0.259,0.834-0.527,1.255-0.762c0.958-0.533,2.439-1.169,4.052-1.169c0.447,0,0.888,0.049,1.31,0.146
	c0.008,0.002,0.015,0.003,0.023,0.004c0.246,0.058,0.483,0.134,0.702,0.227c0.105,0.045,0.216,0.068,0.33,0.068
	c0.269,0,0.523-0.131,0.68-0.35c0.23-0.322,0.206-0.752-0.059-1.047c-2.134-2.362-5.231-3.716-8.499-3.716
	c-1.88,0-3.702,0.467-5.27,1.351c-1.839,1.037-2.788,2.57-2.604,4.201c0.148,1.684,1.535,2.954,3.225,2.954
	C54.044,59.14,54.057,59.14,54.059,59.139z M63.706,53.657c-1.416,0.096-2.804,0.499-4.047,1.179
	c-0.11,0.057-0.219,0.115-0.322,0.173c-0.429,0.238-0.856,0.507-1.269,0.767l-0.066,0.042c-1.322,0.834-2.57,1.622-3.976,1.649
	c-0.004,0-0.009,0-0.013,0.001c-0.809-0.006-1.481-0.641-1.533-1.45c0-0.004-0.001-0.007-0.001-0.011
	c-0.149-1.336,1.182-2.238,1.762-2.563c1.324-0.745,2.866-1.139,4.458-1.139C60.452,52.303,62.202,52.78,63.706,53.657z"/>
</svg>
