<?xml version="1.0" encoding="utf-8"?>
<!-- Generator: Adobe Illustrator 30.0.0, SVG Export Plug-In . SVG Version: 9.03 Build 0)  -->
<svg version="1.1" id="logo" xmlns="http://www.w3.org/2000/svg" xmlns:xlink="http://www.w3.org/1999/xlink" x="0px" y="0px"
	 width="344.884px" height="46.229px" viewBox="0 0 344.884 46.229" enable-background="new 0 0 344.884 46.229"
	 xml:space="preserve">
<g>
	<g>
		<g>
			<path fill="#FFFFFF" d="M40.487,42.807c-0.424,0.321-1.107,0.671-2.049,1.051c-0.943,0.381-2.049,0.751-3.321,1.111
				c-1.272,0.359-2.709,0.66-4.31,0.9c-1.602,0.24-3.275,0.36-5.017,0.36c-3.722,0-7.161-0.48-10.316-1.441
				c-3.156-0.961-5.877-2.361-8.161-4.202c-2.285-1.841-4.075-4.092-5.37-6.755C0.647,31.17,0,28.138,0,24.735
				c0-3.401,0.647-6.433,1.943-9.096c1.295-2.661,3.109-4.912,5.441-6.754c2.332-1.841,5.123-3.242,8.373-4.202
				c3.25-0.961,6.83-1.441,10.74-1.441c3.062,0,5.9,0.271,8.514,0.811s4.886,1.191,6.818,1.951
				c-0.377,0.562-0.683,1.321-0.918,2.281c-0.236,0.961-0.424,1.762-0.565,2.401l-0.424,0.12c-0.519-0.479-1.19-1.021-2.014-1.62
				c-0.825-0.601-1.802-1.181-2.932-1.741c-1.131-0.561-2.415-1.03-3.851-1.411c-1.438-0.38-2.98-0.57-4.628-0.57
				c-2.78,0-5.359,0.381-7.737,1.141c-2.379,0.761-4.452,1.932-6.218,3.512c-1.767,1.582-3.145,3.583-4.134,6.004
				c-0.989,2.423-1.484,5.294-1.484,8.615c0,3.323,0.495,6.194,1.484,8.616s2.367,4.423,4.134,6.003
				c1.766,1.582,3.838,2.753,6.218,3.513c2.378,0.761,4.957,1.141,7.737,1.141c1.696,0,3.261-0.181,4.699-0.54
				c1.436-0.36,2.755-0.79,3.957-1.291c1.201-0.5,2.285-1.04,3.25-1.621c0.965-0.58,1.777-1.09,2.438-1.531l0.283,0.24
				L40.487,42.807z"/>
		</g>
		<g>
			<path fill="#FFFFFF" d="M53.629,17.291c0-1.36-0.012-2.842-0.036-4.442c-0.024-1.601-0.06-3.183-0.106-4.743
				c-0.047-1.562-0.106-3.052-0.177-4.473C53.241,2.212,53.158,1.001,53.064,0c1.177,0.201,2.237,0.301,3.18,0.301
				c0.941,0,2.001-0.1,3.18-0.301c-0.095,1.001-0.177,2.202-0.248,3.603c-0.071,1.401-0.13,2.882-0.177,4.442
				c-0.047,1.562-0.083,3.113-0.106,4.653c-0.024,1.541-0.035,2.972-0.035,4.293v4.562h0.141c1.323-1.721,2.906-3.052,4.749-3.992
				c1.843-0.94,4.04-1.411,6.592-1.411c1.323,0,2.658,0.16,4.004,0.48c1.347,0.32,2.563,0.87,3.65,1.65
				c1.086,0.781,1.973,1.842,2.659,3.183c0.685,1.341,1.028,3.053,1.028,5.133c0,1.722-0.047,3.493-0.141,5.313
				c-0.095,1.822-0.142,3.752-0.142,5.794c0,1.32,0,2.622,0,3.902c0,1.281,0.046,2.562,0.142,3.842
				c-0.524-0.08-1.025-0.149-1.502-0.21c-0.477-0.06-0.978-0.09-1.501-0.09c-0.525,0-1.015,0.03-1.467,0.09
				c-0.453,0.061-0.941,0.13-1.465,0.21c0.094-2.2,0.2-4.402,0.318-6.604c0.117-2.201,0.177-4.463,0.177-6.784v-3.662
				c0-2.962-0.696-5.224-2.084-6.784c-1.39-1.562-3.262-2.342-5.617-2.342c-3.298,0-5.712,0.861-7.243,2.581
				c-1.531,1.722-2.296,4.143-2.296,7.265c0,1.162,0.011,2.472,0.035,3.933c0.023,1.462,0.059,2.942,0.106,4.443
				c0.046,1.5,0.106,2.952,0.177,4.353c0.071,1.401,0.152,2.602,0.248,3.602c-1.178-0.2-2.238-0.3-3.18-0.3
				c-0.943,0-2.003,0.1-3.18,0.3c0.094-1,0.177-2.211,0.247-3.632c0.071-1.42,0.129-2.912,0.177-4.473
				c0.046-1.562,0.082-3.132,0.106-4.713c0.023-1.581,0.036-3.071,0.036-4.473V17.291z"/>
		</g>
		<g>
			<path fill="#FFFFFF" d="M96.731,6.305c0-0.841,0.354-1.562,1.06-2.162c0.707-0.6,1.555-0.9,2.544-0.9
				c0.989,0,1.837,0.301,2.543,0.9c0.707,0.601,1.06,1.321,1.06,2.162c0,0.84-0.354,1.561-1.06,2.161s-1.555,0.9-2.543,0.9
				c-0.989,0-1.837-0.3-2.544-0.9S96.731,7.145,96.731,6.305z M97.72,27.978c0-1.801-0.035-3.692-0.106-5.673
				c-0.07-1.981-0.224-3.833-0.459-5.554c1.177,0.2,2.237,0.3,3.18,0.3c0.941,0,2.001-0.1,3.179-0.3
				c-0.236,1.721-0.388,3.572-0.459,5.554c-0.071,1.98-0.106,3.872-0.106,5.673v6.244c0,1.801,0.035,3.692,0.106,5.674
				c0.071,1.98,0.223,3.833,0.459,5.553c-1.178-0.2-2.238-0.3-3.179-0.3c-0.943,0-2.003,0.1-3.18,0.3
				c0.235-1.72,0.389-3.572,0.459-5.553c0.071-1.981,0.106-3.873,0.106-5.674V27.978z"/>
		</g>
		<g>
			<path fill="#FFFFFF" d="M116.657,31.1c0-2.602,0.518-4.843,1.554-6.724c1.036-1.881,2.391-3.432,4.063-4.653
				c1.671-1.221,3.591-2.121,5.759-2.702c2.166-0.579,4.381-0.87,6.642-0.87c2.59,0,4.911,0.271,6.959,0.811
				c2.049,0.54,3.521,1.151,4.417,1.831c-0.33,0.601-0.625,1.23-0.883,1.892c-0.26,0.66-0.484,1.351-0.671,2.071h-0.565
				c-0.33-0.521-0.777-1.051-1.342-1.592c-0.565-0.54-1.237-1.04-2.014-1.501c-0.777-0.459-1.637-0.84-2.579-1.141
				c-0.943-0.3-1.979-0.45-3.109-0.45c-2.12,0-3.946,0.33-5.476,0.991c-1.531,0.66-2.78,1.571-3.745,2.731
				c-0.966,1.161-1.672,2.532-2.12,4.112c-0.448,1.582-0.671,3.293-0.671,5.134c0,4.122,1.048,7.234,3.145,9.335
				c2.095,2.102,5.123,3.152,9.08,3.152c0.941,0,1.908-0.109,2.897-0.33c0.989-0.22,1.954-0.52,2.897-0.9
				c0.942-0.38,1.825-0.83,2.649-1.351c0.824-0.521,1.542-1.081,2.155-1.682l0.354,0.181c-0.189,0.96-0.33,1.941-0.424,2.941
				c-1.413,0.961-3.18,1.812-5.299,2.552s-4.287,1.11-6.5,1.11c-2.073,0-4.123-0.27-6.147-0.811
				c-2.026-0.54-3.863-1.411-5.511-2.611c-1.649-1.201-2.98-2.752-3.992-4.653C117.162,36.073,116.657,33.781,116.657,31.1z"/>
		</g>
		<g>
			<path fill="#FFFFFF" d="M196.006,42.807c-0.424,0.321-1.107,0.671-2.049,1.051c-0.943,0.381-2.049,0.751-3.321,1.111
				c-1.272,0.359-2.709,0.66-4.31,0.9c-1.602,0.24-3.275,0.36-5.017,0.36c-3.722,0-7.161-0.48-10.316-1.441
				c-3.156-0.961-5.877-2.361-8.161-4.202c-2.285-1.841-4.075-4.092-5.37-6.755c-1.296-2.661-1.943-5.693-1.943-9.096
				c0-3.401,0.647-6.433,1.943-9.096c1.295-2.661,3.109-4.912,5.441-6.754c2.332-1.841,5.123-3.242,8.373-4.202
				c3.25-0.961,6.83-1.441,10.74-1.441c3.062,0,5.9,0.271,8.514,0.811s4.886,1.191,6.818,1.951
				c-0.377,0.562-0.683,1.321-0.918,2.281c-0.236,0.961-0.424,1.762-0.565,2.401l-0.424,0.12c-0.519-0.479-1.19-1.021-2.014-1.62
				c-0.825-0.601-1.802-1.181-2.932-1.741c-1.131-0.561-2.415-1.03-3.851-1.411c-1.438-0.38-2.98-0.57-4.628-0.57
				c-2.78,0-5.359,0.381-7.737,1.141c-2.379,0.761-4.452,1.932-6.218,3.512c-1.767,1.582-3.145,3.583-4.134,6.004
				c-0.989,2.423-1.484,5.294-1.484,8.615c0,3.323,0.495,6.194,1.484,8.616s2.367,4.423,4.134,6.003
				c1.766,1.582,3.838,2.753,6.218,3.513c2.378,0.761,4.957,1.141,7.737,1.141c1.696,0,3.261-0.181,4.699-0.54
				c1.436-0.36,2.755-0.79,3.957-1.291c1.201-0.5,2.285-1.04,3.25-1.621c0.965-0.58,1.777-1.09,2.438-1.531l0.283,0.24
				L196.006,42.807z"/>
		</g>
		<g>
			<path fill="#FFFFFF" d="M209.219,19.633c2.12-1.36,4.074-2.281,5.865-2.762c1.79-0.48,3.627-0.721,5.511-0.721
				c1.696,0,3.251,0.21,4.668,0.631c1.416,0.42,2.625,1.021,3.628,1.801s1.79,1.722,2.363,2.821
				c0.572,1.102,0.859,2.312,0.859,3.633c0,2.281-0.047,4.554-0.142,6.814c-0.095,2.262-0.141,4.652-0.141,7.174
				c0,0.48,0.011,0.991,0.035,1.531c0.023,0.54,0.129,1.021,0.318,1.44c0.188,0.421,0.459,0.771,0.812,1.051
				c0.353,0.28,0.883,0.421,1.59,0.421c0.235,0,0.482-0.01,0.742-0.03c0.258-0.02,0.506-0.09,0.742-0.21v1.32
				c-0.519,0.201-1.166,0.391-1.943,0.57c-0.777,0.181-1.637,0.271-2.579,0.271c-1.53,0-2.7-0.36-3.513-1.081
				c-0.812-0.72-1.289-1.6-1.433-2.642c-1.69,1.441-3.357,2.532-5,3.272c-1.643,0.74-3.661,1.11-6.055,1.11
				c-1.174,0-2.325-0.171-3.451-0.51c-1.126-0.341-2.124-0.831-2.992-1.472c-0.869-0.64-1.573-1.41-2.113-2.312
				c-0.54-0.9-0.809-1.93-0.809-3.092c0-2.401,0.88-4.263,2.641-5.583c1.76-1.321,4.19-2.201,7.288-2.642
				c2.535-0.36,4.518-0.67,5.95-0.931c1.432-0.26,2.488-0.53,3.168-0.811c0.68-0.279,1.091-0.609,1.232-0.99
				c0.142-0.38,0.212-0.871,0.212-1.472c0-1-0.141-1.96-0.424-2.882c-0.283-0.92-0.731-1.72-1.342-2.401
				c-0.613-0.68-1.414-1.23-2.402-1.65c-0.989-0.421-2.19-0.631-3.604-0.631c-1.884,0-3.639,0.36-5.264,1.081
				c-1.625,0.72-2.839,1.721-3.639,3.002h-0.777V19.633z M226.671,30.319c-1.219,0.36-2.673,0.641-4.36,0.841
				c-1.688,0.2-3.293,0.521-4.817,0.96c-1.523,0.441-2.825,1.091-3.903,1.951c-1.079,0.861-1.617,2.112-1.617,3.753
				c0,1.882,0.632,3.302,1.898,4.263c1.265,0.96,2.671,1.44,4.22,1.44c1.782,0,3.41-0.42,4.887-1.261
				c1.476-0.841,2.613-1.82,3.411-2.941L226.671,30.319z"/>
		</g>
		<g>
			<path fill="#FFFFFF" d="M270.48,28.398c0-2.962-0.696-5.224-2.085-6.784c-1.39-1.562-3.262-2.342-5.617-2.342
				c-3.298,0-5.712,0.861-7.243,2.581c-1.531,1.722-2.296,4.143-2.296,7.265v5.104c0,1.801,0.035,3.692,0.108,5.674
				c0.073,1.98,0.229,3.833,0.471,5.553c-1.181-0.2-2.243-0.3-3.188-0.3c-0.945,0-2.007,0.1-3.186,0.3
				c0.235-1.72,0.389-3.572,0.459-5.553c0.071-1.981,0.106-3.873,0.106-5.674v-6.244c0-1.801-0.036-3.692-0.106-5.673
				c-0.07-1.981-0.224-3.833-0.459-5.554c1.177,0.2,2.237,0.3,3.18,0.3c0.707,0,1.648-0.1,2.826-0.3
				c-0.141,1.642-0.212,3.242-0.212,4.803h0.141c1.323-1.721,2.906-3.052,4.749-3.992c1.843-0.94,4.04-1.411,6.593-1.411
				c1.322,0,2.657,0.16,4.004,0.48c1.348,0.32,2.563,0.87,3.65,1.65c1.086,0.781,1.973,1.842,2.658,3.183
				c0.685,1.341,1.028,3.053,1.028,5.133c0,1.722-0.048,3.493-0.142,5.313c-0.095,1.822-0.142,3.752-0.142,5.794
				c0,1.32,0,2.622,0,3.902c0,1.281,0.047,2.562,0.142,3.842c-0.524-0.08-1.024-0.149-1.502-0.21c-0.477-0.06-0.978-0.09-1.501-0.09
				c-0.525,0-1.015,0.03-1.468,0.09c-0.452,0.061-0.941,0.13-1.465,0.21c0.094-2.2,0.2-4.402,0.318-6.604
				c0.117-2.201,0.177-4.463,0.177-6.784V28.398z"/>
		</g>
		<g>
			<path fill="#FFFFFF" d="M296.341,8.706h0.354c-0.142,1.521-0.247,3.012-0.318,4.473c-0.07,1.461-0.153,2.933-0.247,4.412
				c0.518,0,1.484-0.009,2.897-0.029c1.413-0.02,2.943-0.069,4.593-0.15c-0.048,0.201-0.071,0.42-0.071,0.66c0,0.201,0,0.4,0,0.601
				c0,0.201,0,0.42,0,0.66c0,0.201,0.023,0.401,0.071,0.601c-1.226-0.08-2.568-0.12-4.028-0.12s-2.614,0-3.462,0
				c-0.048,0.16-0.095,0.802-0.142,1.921c-0.047,1.121-0.095,2.452-0.141,3.993c-0.048,1.541-0.096,3.151-0.142,4.833
				c-0.048,1.681-0.07,3.182-0.07,4.503c0,1.121,0.035,2.221,0.105,3.302c0.071,1.081,0.294,2.052,0.672,2.912
				c0.376,0.86,0.941,1.551,1.695,2.071c0.753,0.521,1.837,0.78,3.25,0.78c0.377,0,0.884-0.039,1.52-0.12
				c0.636-0.08,1.189-0.181,1.66-0.3v1.44c-0.801,0.24-1.685,0.45-2.649,0.631c-0.966,0.18-1.896,0.27-2.791,0.27
				c-2.968,0-5.158-0.66-6.571-1.981c-1.413-1.32-2.12-3.161-2.12-5.523c0-1.08,0.023-2.251,0.071-3.512
				c0.046-1.261,0.094-2.642,0.141-4.143s0.106-3.161,0.177-4.983c0.071-1.82,0.106-3.852,0.106-6.094c-0.707,0-1.461,0-2.261,0
				c-0.755,0-1.603,0.04-2.544,0.12c0.046-0.24,0.081-0.47,0.105-0.69c0.023-0.22,0.035-0.45,0.035-0.69
				c0-0.199-0.012-0.399-0.035-0.601c-0.024-0.199-0.06-0.399-0.105-0.6c2.119,0.12,3.674,0.18,4.663,0.18
				c-0.047-0.8-0.083-1.801-0.105-3.002c-0.024-1.2-0.083-2.44-0.177-3.723L296.341,8.706z"/>
		</g>
		<g>
			<path fill="#FFFFFF" d="M310.544,31.1c0-2.722,0.505-5.033,1.519-6.935c1.013-1.9,2.343-3.441,3.992-4.622
				c1.648-1.181,3.485-2.042,5.512-2.582c2.024-0.54,4.074-0.811,6.147-0.811c2.024,0,4.062,0.271,6.111,0.811
				c2.05,0.54,3.897,1.401,5.547,2.582c1.648,1.181,2.979,2.722,3.992,4.622c1.013,1.901,1.52,4.213,1.52,6.935
				c0,2.723-0.507,5.034-1.52,6.935c-1.014,1.901-2.344,3.442-3.992,4.623c-1.649,1.181-3.497,2.041-5.547,2.581
				c-2.049,0.541-4.087,0.811-6.111,0.811c-2.073,0-4.123-0.27-6.147-0.811c-2.026-0.54-3.863-1.4-5.512-2.581
				c-1.649-1.181-2.979-2.722-3.992-4.623C311.049,36.134,310.544,33.822,310.544,31.1z M316.762,31.1
				c0,1.681,0.177,3.302,0.529,4.863c0.354,1.561,0.954,2.952,1.803,4.173c0.848,1.221,1.978,2.191,3.392,2.911
				c1.413,0.721,3.155,1.081,5.229,1.081c2.072,0,3.815-0.36,5.229-1.081c1.413-0.72,2.544-1.69,3.392-2.911
				s1.448-2.612,1.802-4.173c0.354-1.562,0.53-3.183,0.53-4.863s-0.177-3.302-0.53-4.863c-0.354-1.561-0.954-2.951-1.802-4.172
				s-1.979-2.191-3.392-2.912s-3.156-1.081-5.229-1.081c-2.073,0-3.815,0.36-5.229,1.081c-1.414,0.721-2.544,1.691-3.392,2.912
				c-0.849,1.221-1.449,2.611-1.803,4.172C316.938,27.798,316.762,29.419,316.762,31.1z"/>
		</g>
	</g>
</g>
</svg>
