<?xml version="1.0" encoding="utf-8"?>
<!-- Generator: Adobe Illustrator 30.0.0, SVG Export Plug-In . SVG Version: 9.03 Build 0)  -->
<svg version="1.1" id="heart_pattern" xmlns="http://www.w3.org/2000/svg" xmlns:xlink="http://www.w3.org/1999/xlink" x="0px"
	 y="0px" width="250px" height="250px" viewBox="0 0 250 250" style="enable-background:new 0 0 250 250;" xml:space="preserve">
<path d="M243.713,8.672c2.455,2.27,5.143,4.375,5.626,4.465c0.114-0.024,0.347-0.159,0.661-0.374V0h-0.17h-0.818H238.28
	c0.178,2.749,1.941,5.055,3.757,6.976L216.232,32.78c-0.193-0.052-0.378-0.116-0.588-0.145c-0.952-0.065-1.919-0.02-2.887,0.379
	c-0.465,0.172-0.898,0.408-1.307,0.685c-0.872,0.59-1.697,1.359-2.463,2.118c-0.761-0.755-1.584-1.517-2.448-2.096
	c-0.407-0.272-0.836-0.503-1.296-0.671c-0.962-0.388-1.919-0.428-2.868-0.365c-0.736,0.096-1.373,0.341-1.922,0.691L174.356,7.28
	c1.94-1.979,3.895-4.404,4.037-7.28h-11.317h-0.409h-0.17h-0.818h-9.411c0.157,2.427,1.552,4.509,3.125,6.286L132.529,33.15
	c-0.459-0.244-0.96-0.435-1.54-0.515c-0.952-0.065-1.919-0.02-2.887,0.379c-0.465,0.172-0.898,0.408-1.307,0.685
	c-0.872,0.59-1.697,1.359-2.463,2.118c-0.761-0.755-1.584-1.517-2.448-2.096c-0.407-0.272-0.836-0.503-1.296-0.671
	c-0.962-0.388-1.919-0.428-2.868-0.365c-0.371,0.048-0.715,0.137-1.038,0.254L91.022,7.28C92.962,5.301,94.917,2.876,95.06,0H83.742
	h-0.409h-0.169h-0.819h-9.411c0.157,2.427,1.552,4.509,3.125,6.285L49.196,33.15c-0.459-0.244-0.96-0.435-1.541-0.515
	c-0.952-0.065-1.919-0.02-2.887,0.379c-0.465,0.172-0.898,0.408-1.307,0.685c-0.871,0.59-1.697,1.359-2.463,2.118
	c-0.761-0.755-1.584-1.517-2.448-2.096c-0.407-0.272-0.836-0.503-1.296-0.671c-0.961-0.388-1.919-0.428-2.868-0.365
	c-0.371,0.048-0.715,0.137-1.038,0.254L7.012,6.602C8.718,4.755,10.278,2.556,10.405,0H0.409H0v0.409v12.354
	c1.047-0.716,3.04-2.358,4.938-4.075c0.534-0.516,1.108-1.071,1.677-1.664l26.18,26.18c-1.794,0.946-2.729,2.97-2.865,5.094
	c-0.108,3.921,3.088,6.977,5.449,9.319c0.031,0.028,0.062,0.056,0.092,0.084L7.927,76.395c-0.548-0.368-1.188-0.629-1.938-0.733
	c-0.952-0.065-1.918-0.02-2.887,0.379c-0.466,0.172-0.899,0.408-1.308,0.685C1.17,77.148,0.572,77.663,0,78.2v5.873v0.578v0.24
	v0.579v9.266c1.047-0.716,3.04-2.358,4.938-4.075c0.078-0.075,0.159-0.154,0.238-0.231l26.579,25.472
	c-1.123,1.076-1.718,2.697-1.825,4.37c-0.108,3.921,3.088,6.977,5.449,9.319c0.237,0.219,0.476,0.434,0.714,0.648L8.163,158.557
	c-0.598-0.464-1.309-0.803-2.174-0.922c-0.952-0.065-1.918-0.02-2.887,0.38c-0.466,0.172-0.899,0.408-1.308,0.685
	c-0.624,0.422-1.222,0.937-1.794,1.473v6.082v0.578v0.24v0.579v9.057c1.047-0.716,3.04-2.358,4.938-4.075
	c0.019-0.018,0.039-0.038,0.058-0.056l26.249,25.885c-0.79,1.037-1.225,2.388-1.315,3.782c-0.108,3.921,3.088,6.977,5.449,9.319
	c0.475,0.44,0.957,0.867,1.432,1.281l-30.5,30.924c-0.11-0.023-0.207-0.064-0.322-0.08c-0.952-0.065-1.918-0.02-2.887,0.38
	c-0.466,0.172-0.899,0.408-1.308,0.685C1.17,245.175,0.572,245.69,0,246.227v3.195v0.166v0.243V250h0.164h0.245h0.568h9.428
	c0.011-0.214,0.015-0.428,0.004-0.647c-0.187-2.335-1.247-4.63-3.445-5.423l30.284-30.705c1.805,1.545,3.396,2.737,3.757,2.804
	c0.44-0.094,2.566-1.768,4.763-3.704l31.101,31.533c-2.511,0.599-3.79,2.977-3.951,5.494c-0.006,0.219,0.002,0.434,0.016,0.647
	h9.411h0.581h0.237h0.169h0.164h0.245h0.568H95.06c0.011-0.214,0.015-0.428,0.005-0.647c-0.212-2.658-1.554-5.268-4.421-5.664
	c-0.035-0.002-0.07-0.001-0.105-0.004l30.654-31.079c2.082,1.834,4.06,3.348,4.468,3.424c0.392-0.084,2.125-1.426,4.051-3.085
	l30.491,30.914c-2.511,0.599-3.79,2.977-3.951,5.494c-0.007,0.219,0.002,0.434,0.015,0.647h9.411h0.581h0.237h0.17h0.164h0.245
	h0.568h10.749c0.011-0.214,0.015-0.428,0.004-0.647c-0.212-2.658-1.554-5.268-4.42-5.664c-0.035-0.002-0.07-0.001-0.104-0.004
	l30.654-31.079c2.082,1.834,4.06,3.348,4.468,3.424c0.392-0.084,2.125-1.425,4.051-3.085l30.349,30.771
	c-0.226,0-0.451,0.008-0.676,0.024c-2.858,0.373-4.284,2.928-4.456,5.613c-0.006,0.219,0.002,0.434,0.016,0.647h10.732h0.581h0.237
	H250v-0.169v-0.243v-0.166v-3.195c-0.227,0.213-0.451,0.428-0.669,0.644c-0.762-0.755-1.585-1.517-2.448-2.096
	c-0.407-0.272-0.836-0.504-1.295-0.671c-0.443-0.178-0.884-0.277-1.325-0.332l-30.779-31.206c0.369-0.322,0.74-0.65,1.109-0.984
	c2.406-2.326,5.654-5.436,5.472-9.336c-0.122-1.525-0.631-3.019-1.571-4.104l25.565-25.21c2.356,2.146,4.819,4.066,5.28,4.152
	c0.114-0.024,0.347-0.159,0.661-0.374v-9.636v-0.818v-6.082c-0.227,0.213-0.451,0.428-0.669,0.643
	c-0.762-0.754-1.585-1.517-2.448-2.096c-0.407-0.272-0.836-0.504-1.295-0.671c-0.962-0.388-1.919-0.428-2.869-0.364
	c-0.337,0.044-0.651,0.123-0.949,0.225l-27.57-27.953c0.131-0.117,0.263-0.233,0.393-0.351c2.406-2.325,5.653-5.435,5.472-9.335
	c-0.144-1.803-0.824-3.567-2.132-4.65l25.925-24.845c2.415,2.219,5.007,4.245,5.481,4.333c0.114-0.024,0.347-0.16,0.661-0.374
	v-9.845v-0.818V78.2c-0.227,0.213-0.451,0.428-0.669,0.644c-0.762-0.755-1.585-1.517-2.448-2.096
	c-0.407-0.272-0.836-0.503-1.295-0.671c-0.962-0.388-1.919-0.428-2.869-0.365c-0.216,0.028-0.408,0.092-0.608,0.144l-27.298-28.435
	c2.379-2.301,5.427-5.339,5.251-9.122c-0.18-2.249-1.18-4.448-3.217-5.317l25.588-25.589C242.873,7.841,243.305,8.268,243.713,8.672
	z M159.782,6.715c0.648,0.701,1.311,1.354,1.919,1.957c2.455,2.27,5.143,4.375,5.627,4.465c0.495-0.106,3.132-2.216,5.598-4.449
	c0.328-0.317,0.673-0.651,1.022-0.998l26.043,26.044c-1.275,1.067-1.958,2.78-2.072,4.565c-0.099,3.604,2.591,6.475,4.861,8.734
	l-27.746,28.902c-0.327-0.125-0.676-0.222-1.056-0.274c-0.952-0.065-1.918-0.02-2.887,0.379c-0.466,0.172-0.898,0.408-1.308,0.685
	c-0.871,0.59-1.696,1.359-2.463,2.117c-0.762-0.755-1.585-1.517-2.448-2.096c-0.407-0.272-0.837-0.503-1.295-0.671
	c-0.962-0.388-1.919-0.428-2.869-0.365c-0.591,0.077-1.106,0.267-1.576,0.512l-28.291-29.469c2.239-2.211,4.727-5.028,4.568-8.456
	c-0.153-1.911-0.902-3.784-2.37-4.841L159.782,6.715z M203.369,129.591c0.005,0.005,0.011,0.01,0.016,0.015l-28.059,28.449
	c-0.41-0.193-0.847-0.35-1.348-0.419c-0.952-0.065-1.918-0.02-2.887,0.38c-0.466,0.172-0.898,0.408-1.308,0.685
	c-0.871,0.589-1.696,1.359-2.463,2.117c-0.762-0.754-1.585-1.517-2.448-2.096c-0.407-0.272-0.837-0.504-1.295-0.671
	c-0.962-0.388-1.919-0.428-2.869-0.364c-0.706,0.092-1.322,0.319-1.856,0.646l-28.616-29.013c2.367-2.292,5.347-5.304,5.173-9.046
	c-0.118-1.478-0.601-2.926-1.485-4.002l27.267-26.131c0.173,0.172,0.344,0.341,0.51,0.506c2.455,2.271,5.143,4.375,5.627,4.466
	c0.466-0.099,2.829-1.978,5.162-4.06l26.654,25.544c-0.737,1.022-1.138,2.333-1.224,3.678
	C197.812,124.193,201.008,127.249,203.369,129.591z M134.76,197.724c-0.646-0.585-1.449-1.005-2.449-1.143
	c-0.952-0.065-1.918-0.02-2.887,0.38c-0.465,0.172-0.899,0.408-1.307,0.685c-0.872,0.589-1.698,1.358-2.464,2.117
	c-0.761-0.754-1.584-1.517-2.447-2.096c-0.407-0.272-0.837-0.504-1.296-0.671c-0.962-0.388-1.919-0.428-2.868-0.364
	c-1.509,0.197-2.608,1.011-3.344,2.122l-26.305-25.94c0.067-0.06,0.134-0.119,0.201-0.179c2.406-2.325,5.653-5.435,5.472-9.336
	c-0.159-1.985-0.948-3.94-2.531-4.97l27.326-27.706c2.086,1.838,4.07,3.357,4.479,3.433c0.487-0.104,3.046-2.149,5.477-4.341
	l28.572,28.969c-1.316,1.063-2.019,2.8-2.135,4.614c-0.097,3.525,2.475,6.349,4.711,8.585L134.76,197.724z M52.076,120.272
	c-0.118-1.478-0.601-2.926-1.485-4.002l27.267-26.132c0.173,0.172,0.344,0.341,0.51,0.506c2.455,2.271,5.142,4.375,5.626,4.466
	c0.467-0.099,2.83-1.978,5.162-4.06l25.932,24.852c-1.123,1.076-1.718,2.697-1.825,4.37c-0.108,3.921,3.088,6.977,5.449,9.319
	c0.237,0.219,0.476,0.433,0.714,0.648l-27.435,27.816c-0.41-0.193-0.848-0.35-1.348-0.419c-0.952-0.065-1.919-0.02-2.887,0.38
	c-0.465,0.172-0.899,0.408-1.307,0.685c-0.871,0.589-1.697,1.359-2.463,2.117c-0.761-0.754-1.584-1.517-2.448-2.096
	c-0.407-0.272-0.836-0.504-1.296-0.671c-0.961-0.388-1.919-0.428-2.868-0.364c-0.706,0.092-1.322,0.319-1.856,0.646l-28.616-29.014
	C49.27,127.026,52.25,124.014,52.076,120.272z M124.339,52.083c0.496-0.106,3.133-2.216,5.599-4.449
	c0.16-0.155,0.324-0.313,0.49-0.475l28.195,29.37c-1.471,1.037-2.248,2.876-2.37,4.796c-0.094,3.429,2.338,6.197,4.529,8.404
	l-27.24,26.105c-0.661-0.634-1.502-1.081-2.553-1.227c-0.952-0.065-1.919-0.02-2.887,0.38c-0.465,0.172-0.898,0.408-1.307,0.685
	c-0.872,0.59-1.697,1.359-2.463,2.118c-0.761-0.755-1.584-1.518-2.448-2.096c-0.407-0.272-0.836-0.503-1.296-0.671
	c-0.962-0.388-1.919-0.428-2.868-0.365c-0.855,0.112-1.567,0.436-2.17,0.884L89.589,90.664c0.001-0.001,0.002-0.002,0.004-0.003
	c2.406-2.325,5.653-5.435,5.472-9.335c-0.168-2.097-1.053-4.146-2.821-5.12l26.991-28.115C121.536,50.171,123.889,52,124.339,52.083
	z M76.449,6.715c0.648,0.701,1.311,1.354,1.919,1.957c2.455,2.27,5.142,4.375,5.626,4.465c0.496-0.106,3.133-2.216,5.599-4.449
	c0.328-0.317,0.673-0.651,1.021-0.998l25.514,25.514c-1.794,0.946-2.729,2.97-2.865,5.094c-0.108,3.921,3.088,6.977,5.449,9.319
	c0.031,0.028,0.062,0.055,0.092,0.084L91.7,75.936c-0.327-0.125-0.676-0.222-1.056-0.274c-0.952-0.065-1.919-0.02-2.887,0.379
	c-0.465,0.172-0.899,0.408-1.307,0.685c-0.871,0.59-1.697,1.359-2.463,2.117c-0.761-0.755-1.584-1.517-2.448-2.096
	c-0.407-0.272-0.836-0.503-1.296-0.671c-0.961-0.388-1.919-0.428-2.868-0.365c-0.591,0.077-1.106,0.267-1.576,0.512l-28.291-29.47
	c2.239-2.211,4.728-5.028,4.568-8.456c-0.153-1.911-0.902-3.784-2.37-4.841L76.449,6.715z M10.409,81.326
	c-0.141-1.757-0.788-3.478-2.029-4.568l27.521-28.668c2.302,2.081,4.655,3.909,5.105,3.993c0.496-0.106,3.133-2.216,5.599-4.449
	c0.16-0.155,0.324-0.313,0.49-0.475L75.29,76.53c-1.471,1.037-2.248,2.876-2.371,4.796c-0.094,3.429,2.338,6.197,4.53,8.404
	l-27.24,26.105c-0.661-0.634-1.503-1.081-2.554-1.227c-0.952-0.065-1.919-0.02-2.887,0.38c-0.465,0.172-0.898,0.408-1.307,0.685
	c-0.871,0.59-1.697,1.359-2.463,2.118c-0.761-0.755-1.584-1.518-2.448-2.096c-0.407-0.272-0.836-0.503-1.296-0.671
	c-0.961-0.388-1.919-0.428-2.868-0.365c-0.855,0.112-1.567,0.436-2.17,0.884L5.591,90.027C7.89,87.78,10.575,84.883,10.409,81.326z
	 M5.412,172.176c2.336-2.27,5.168-5.227,4.998-8.877c-0.132-1.65-0.701-3.278-1.797-4.373l27.915-28.302
	c2.086,1.838,4.07,3.357,4.479,3.433c0.487-0.104,3.046-2.149,5.477-4.341l28.572,28.969c-1.316,1.063-2.019,2.8-2.135,4.614
	c-0.097,3.525,2.475,6.349,4.711,8.585l-26.9,26.526c-0.715-0.949-1.719-1.642-3.075-1.829c-0.952-0.065-1.919-0.02-2.887,0.38
	c-0.465,0.172-0.898,0.408-1.307,0.685c-0.871,0.589-1.697,1.358-2.463,2.117c-0.761-0.754-1.584-1.517-2.448-2.096
	c-0.407-0.272-0.836-0.504-1.296-0.671c-0.961-0.388-1.919-0.428-2.868-0.364c-1.153,0.151-2.062,0.667-2.761,1.394L5.412,172.176z
	 M89.736,243.675c-0.656,0.02-1.317,0.12-1.979,0.393c-0.465,0.172-0.899,0.408-1.307,0.685c-0.871,0.589-1.697,1.359-2.463,2.117
	c-0.761-0.755-1.584-1.517-2.448-2.096c-0.407-0.272-0.836-0.504-1.296-0.671c-0.899-0.363-1.795-0.417-2.684-0.37L46.201,211.94
	c0.134-0.12,0.269-0.238,0.403-0.359c2.406-2.326,5.653-5.436,5.472-9.336c-0.095-1.193-0.433-2.365-1.02-3.344l26.984-26.609
	c0.11,0.109,0.221,0.219,0.328,0.325c2.455,2.271,5.142,4.375,5.626,4.466c0.453-0.097,2.698-1.873,4.965-3.884l26.432,26.065
	c-0.468,0.892-0.738,1.923-0.805,2.981c-0.108,3.921,3.088,6.977,5.449,9.319c0.24,0.222,0.482,0.44,0.725,0.657L89.736,243.675z
	 M173.069,243.675c-0.656,0.02-1.317,0.12-1.979,0.393c-0.466,0.172-0.898,0.408-1.308,0.685c-0.871,0.589-1.696,1.359-2.463,2.117
	c-0.762-0.755-1.585-1.517-2.448-2.096c-0.407-0.272-0.837-0.504-1.295-0.671c-0.9-0.363-1.795-0.417-2.684-0.37l-30.742-31.168
	c0.369-0.322,0.74-0.65,1.109-0.984c2.406-2.326,5.653-5.436,5.472-9.336c-0.122-1.525-0.631-3.019-1.571-4.104l26.213-25.849
	c0.11,0.109,0.221,0.219,0.328,0.325c2.455,2.271,5.143,4.375,5.627,4.466c0.453-0.097,2.698-1.873,4.965-3.884l26.432,26.065
	c-0.467,0.892-0.737,1.923-0.805,2.981c-0.107,3.921,3.088,6.977,5.449,9.319c0.24,0.222,0.482,0.44,0.724,0.657L173.069,243.675z
	 M241.209,158.166c-1.846,0.927-2.808,2.978-2.945,5.133c-0.106,3.878,3.017,6.908,5.369,9.24l-25.54,25.185
	c-0.646-0.585-1.449-1.005-2.449-1.143c-0.952-0.065-1.918-0.02-2.887,0.38c-0.466,0.172-0.899,0.408-1.308,0.685
	c-0.872,0.589-1.697,1.358-2.463,2.117c-0.762-0.754-1.585-1.517-2.448-2.096c-0.407-0.272-0.836-0.504-1.295-0.671
	c-0.962-0.388-1.919-0.428-2.869-0.364c-1.509,0.197-2.608,1.011-3.344,2.122l-26.305-25.94c0.067-0.06,0.134-0.119,0.201-0.179
	c2.406-2.325,5.654-5.435,5.472-9.336c-0.159-1.984-0.948-3.94-2.53-4.97l27.947-28.335c2.325,2.109,4.726,3.977,5.18,4.062
	c0.441-0.094,2.573-1.773,4.773-3.713L241.209,158.166z M243.441,90.375l-25.971,24.889c-0.523-0.328-1.128-0.56-1.826-0.657
	c-0.952-0.065-1.919-0.02-2.887,0.38c-0.465,0.172-0.898,0.408-1.307,0.685c-0.872,0.59-1.697,1.359-2.463,2.118
	c-0.761-0.755-1.584-1.518-2.448-2.096c-0.407-0.272-0.836-0.503-1.296-0.671c-0.962-0.388-1.919-0.428-2.868-0.365
	c-1.206,0.158-2.142,0.718-2.852,1.498l-26.601-25.492c0.001-0.001,0.002-0.002,0.003-0.003c2.406-2.325,5.654-5.435,5.472-9.335
	c-0.168-2.097-1.053-4.146-2.821-5.12l27.614-28.765c0.059,0.059,0.12,0.119,0.178,0.177c2.455,2.271,5.142,4.375,5.626,4.466
	c0.482-0.103,2.99-2.104,5.396-4.268l27.109,28.238c-2.04,0.847-3.09,3.006-3.235,5.272C238.16,85.099,241.114,88.07,243.441,90.375
	z"/>
</svg>
