<?xml version="1.0" encoding="utf-8"?>
<!-- Generator: Adobe Illustrator 30.0.0, SVG Export Plug-In . SVG Version: 9.03 Build 0)  -->
<svg version="1.1" id="mouth1" xmlns="http://www.w3.org/2000/svg" xmlns:xlink="http://www.w3.org/1999/xlink" x="0px" y="0px"
	 width="50px" height="50px" viewBox="0 0 50 50" enable-background="new 0 0 50 50" xml:space="preserve">
<path fill="#1A1D1E" d="M49.798,20.72c-1.369-0.018-2.743-0.378-3.996-1.182c-0.275-0.177-0.535-0.372-0.782-0.581
	c-1.008-0.793-1.777-1.785-2.5-2.806c-1.564-2.179-2.858-4.945-6.09-6.469c-0.112-0.052-0.226-0.098-0.342-0.142
	c-1.17-0.498-2.573-0.789-4.081-0.789c-3.22,0.002-5.965,1.318-7.008,3.193c-1.043-1.875-3.789-3.191-7.008-3.193
	c-1.508,0.001-2.911,0.291-4.085,0.791c-0.112,0.042-0.227,0.088-0.338,0.14c-3.232,1.524-4.526,4.291-6.09,6.469
	c-0.724,1.021-1.492,2.013-2.498,2.804c-0.25,0.211-0.509,0.406-0.784,0.583c-1.253,0.804-2.626,1.164-3.996,1.182L0,20.723
	l0.14,0.144c1.14,1.162,4.139,5.497,7.124,10.346c3.089,4.736,8.477,10.031,17.731,10.036h0.008l0,0
	c9.254-0.005,14.643-5.3,17.782-10.034c2.936-4.852,5.933-9.187,7.073-10.349L50,20.723L49.798,20.72z M25,28.573
	c-5.393-0.466-10.778-2.686-14.417-6.126c0.06-0.001,0.121-0.002,0.181-0.003c2.31-0.049,4.575-0.412,6.879-0.839
	c0.655-0.121,1.296-0.202,1.926-0.209c0.029,0,0.058-0.001,0.088-0.001c0.869,0,1.718,0.144,2.555,0.522
	c1.041,0.469,1.768,1.034,2.749,1.317c0.011,0.003,0.021,0.005,0.031,0.005l0.001,0h0.01c0.013,0,0.023-0.002,0.031-0.004
	c0.986-0.284,1.714-0.849,2.754-1.318c0.837-0.378,1.686-0.522,2.555-0.522c0.029,0,0.058,0,0.087,0.001
	c0.632,0.007,1.273,0.088,1.927,0.209c2.304,0.427,4.569,0.789,6.88,0.839c0.06,0.001,0.12,0.002,0.181,0.003
	C35.777,25.886,30.393,28.107,25,28.573z"/>
</svg>
