<?xml version="1.0" encoding="utf-8"?>
<!-- Generator: Adobe Illustrator 30.1.0, SVG Export Plug-In . SVG Version: 9.03 Build 0)  -->
<svg version="1.1" id="girl1" xmlns="http://www.w3.org/2000/svg" xmlns:xlink="http://www.w3.org/1999/xlink" x="0px" y="0px"
	 width="50px" height="50px" viewBox="0 0 50 50" enable-background="new 0 0 50 50" xml:space="preserve">
<g>
	<g>
		<path fill="#1A1D1E" d="M21.895,50c-0.045,0-0.09-0.004-0.138-0.012c-0.454-0.076-0.762-0.507-0.687-0.96l1.321-7.941
			l-0.594-0.709c-1.207,0.536-2.539,0.819-3.85,0.819c-0.46,0-0.834-0.374-0.834-0.834c0-0.46,0.374-0.834,0.834-0.834
			c0.921,0,1.837-0.166,2.722-0.494c0,0-3.534-4.211-3.538-4.215c0,0-0.021-0.024-0.022-0.025c-1.646-1.965-1.388-4.905,0.574-6.553
			c0.837-0.702,1.898-1.088,2.988-1.088c0.03,0,0.06,0.002,0.09,0.004l0.021,0.001c0.025,0.002,0.047,0.003,0.069,0.004h0.007
			c-0.555-1.141-1.235-2.251-2.022-3.3l-0.888,0c-4.302,0-7.815,3.499-7.833,7.801c0,0.001,0.08,1.129,0.08,1.129l0.001,0.007
			l3.036,16.21c0.01,0.061,0.015,0.108,0.015,0.154c0,0.401-0.287,0.746-0.682,0.82c-0.05,0.009-0.102,0.014-0.155,0.014
			c-0.402,0-0.746-0.287-0.82-0.682L8.547,33.064c-0.002-0.013-0.004-0.026-0.005-0.039c0-0.007-0.001-0.012-0.001-0.017
			l-0.005-0.032c-0.002-0.009-0.003-0.018-0.003-0.028l-0.084-1.195c0-0.007-0.001-0.014-0.001-0.021v-0.037
			c0-3.965,2.511-7.548,6.249-8.917l-1.371-8.877c-0.007-0.039-0.01-0.082-0.01-0.127c0-1.994,1.623-3.617,3.617-3.617
			c0.407,0,0.808,0.068,1.191,0.201l0.244,0.09l0.013,0.004c0.583,0.15,1.225,0.288,1.963,0.423l0.313-4.76
			c0.001-0.01,0.002-0.02,0.003-0.029l0.002-0.015C20.837,2.667,23.642,0,27.047,0c3.525,0,6.394,2.866,6.398,6.39
			c0,0.002,0.222,3.825,0.222,3.825c0.222-0.04,0.428-0.059,0.632-0.059c1.994,0,3.617,1.623,3.617,3.617v0.664
			c0,0.049-0.004,0.094-0.011,0.137l-1.446,8.709c3.142,1.653,5.094,4.875,5.094,8.41c0,0.523-0.043,1.048-0.129,1.559
			c0,0.002-0.082,0.426-0.083,0.429l-3.446,15.66c-0.084,0.38-0.426,0.655-0.815,0.655c-0.065,0-0.128-0.007-0.186-0.021
			c-0.212-0.047-0.398-0.176-0.518-0.363c-0.121-0.188-0.161-0.412-0.112-0.631l3.516-16.028c0.066-0.4,0.102-0.838,0.102-1.26
			c0-4.319-3.514-7.833-7.834-7.833h-0.954c-0.784,1.043-1.465,2.155-2.024,3.304l0.098-0.007c0.066-0.005,0.135-0.01,0.204-0.01
			c1.09,0,2.15,0.386,2.985,1.088c1.965,1.647,2.224,4.587,0.577,6.553c-0.002,0.003-0.005,0.006-0.007,0.009
			c-0.007,0.009-0.015,0.018-0.023,0.026c-0.002,0.003-0.011,0.013-0.012,0.013l-3.531,4.208c0.864,0.318,1.768,0.479,2.684,0.479
			c0.46,0,0.834,0.374,0.834,0.834s-0.374,0.834-0.834,0.834c-1.299,0-2.618-0.278-3.815-0.804l-1.061,1.265l0.279,7.475
			c0.009,0.221-0.069,0.434-0.222,0.599c-0.151,0.163-0.357,0.258-0.581,0.267c-0.004,0-0.033,0-0.033,0
			c-0.452,0-0.818-0.353-0.833-0.805l-0.211-5.65c-0.154,0.137-0.349,0.213-0.549,0.213c-0.247,0-0.48-0.109-0.639-0.298
			l-0.578-0.685l-1.089,6.531C22.65,49.706,22.305,50,21.895,50z M25.022,41.621c0,0,4.157-4.952,4.157-4.952
			c0,0,0.018-0.024,0.022-0.029c0.055-0.065,2.424-2.886,2.448-2.915c0.015-0.017,0.025-0.028,0.036-0.04l0.005-0.006
			c1.012-1.257,0.83-3.121-0.407-4.159c-0.537-0.45-1.216-0.698-1.913-0.698c-0.886,0-1.72,0.389-2.288,1.067l-1.421,1.693
			c-0.159,0.189-0.392,0.298-0.64,0.298c-0.247,0-0.48-0.109-0.639-0.298l-1.421-1.694c-0.569-0.679-1.403-1.068-2.289-1.068
			c-0.698,0-1.378,0.248-1.914,0.698c-1.241,1.043-1.417,2.915-0.392,4.173c0.001,0.001,0.003,0.004,0.004,0.005
			c0.011,0.012,0.02,0.022,0.027,0.031c0.087,0.103,2.353,2.804,2.446,2.914c0.007,0.008,0.016,0.018,0.023,0.027
			c0.001,0.002,0.009,0.012,0.012,0.015L25.022,41.621z M20.891,23.863c0.8,1.201,1.49,2.508,2.051,3.886
			c0.505,0.282,0.941,0.641,1.298,1.066l0.782,0.932l0.781-0.932c0.327-0.39,0.714-0.722,1.15-0.987
			c0.569-1.41,1.27-2.744,2.084-3.964L20.891,23.863z M32.045,22.195c0.479,0,0.987,0.045,1.552,0.138
			c-1.233-2.381-1.879-5.045-1.866-7.706c0.002-0.463,0.37-0.828,0.838-0.831c0.226,0.002,0.434,0.09,0.59,0.248
			c0.156,0.158,0.242,0.368,0.24,0.591c-0.011,2.373,0.562,4.751,1.655,6.878l1.186-7.143v-0.596c0-1.074-0.874-1.947-1.947-1.947
			c-0.214,0-0.423,0.034-0.621,0.102l-0.312,0.107c-0.013,0.004-0.047,0.015-0.047,0.015c-0.003,0.001-0.005,0.002-0.008,0.002
			c-0.017,0.005-0.037,0.01-0.058,0.015l-0.088,0.021c-0.018,0.004-0.035,0.008-0.053,0.013l-0.036,0.01
			c-0.012,0.003-0.024,0.006-0.036,0.008c-0.747,0.193-1.462,0.353-2.124,0.475c-0.262,0.049-0.551,0.098-0.884,0.151
			c-0.039,0.006-0.082,0.01-0.126,0.01c-0.417,0-0.764-0.297-0.827-0.707c-0.07-0.455,0.243-0.882,0.697-0.953
			c0.257-0.04,0.538-0.087,0.837-0.142c0.411-0.075,0.865-0.173,1.428-0.306l-0.26-4.187c0-0.006-0.001-0.012-0.001-0.018
			c-0.006-2.632-2.128-4.772-4.73-4.772c-2.608,0-4.729,2.121-4.729,4.728c0,0.038-0.005,0.073-0.01,0.108l-0.001,0.005
			c0,0,0-0.005,0-0.011c0,0.006,0,0.011-0.001,0.017L22,11.134c0.486,0.06,0.935,0.106,1.371,0.139
			c0.223,0.017,0.425,0.119,0.57,0.289c0.145,0.169,0.215,0.385,0.198,0.607c-0.034,0.432-0.401,0.771-0.836,0.771
			c-0.02,0-0.039,0-0.06-0.002c-0.651-0.05-1.35-0.131-2.14-0.246l-0.02,0c-0.007,0-0.015,0-0.022-0.001
			c-0.058-0.004-0.112-0.013-0.167-0.028l-0.008-0.002c-1.027-0.158-2.025-0.362-2.969-0.605c-0.024-0.006-0.053-0.014-0.08-0.024
			l-0.275-0.101c-0.193-0.067-0.412-0.104-0.63-0.104c-1.042,0-1.915,0.847-1.947,1.888l0.001,0.007l1.13,7.32
			c0.984-2.022,1.49-4.182,1.504-6.421c0.003-0.458,0.377-0.83,0.834-0.83c0.226,0.002,0.435,0.089,0.593,0.246
			c0.157,0.158,0.243,0.368,0.243,0.591c-0.016,2.622-0.675,5.245-1.906,7.589l0.012-0.001c0.044-0.003,0.088-0.005,0.131-0.009
			c0.002,0,0.092-0.005,0.092-0.005c0.097-0.006,0.197-0.012,0.298-0.012c0.001,0,0.002,0,0.003,0c0.01,0,0.02,0.001,0.03,0.002
			l0.007,0.001L32.045,22.195z"/>
	</g>
	<g>
		<path fill="#1A1D1E" d="M30.196,33.262c-0.18,0-0.352-0.057-0.498-0.166c-0.369-0.276-0.445-0.8-0.171-1.169
			c0.065-0.087,0.051-0.208-0.032-0.276c-0.039-0.032-0.077-0.047-0.125-0.047c-0.087,0-0.132,0.042-0.158,0.073
			c-0.16,0.19-0.392,0.297-0.639,0.297c-0.199,0-0.384-0.068-0.536-0.197c-0.17-0.142-0.275-0.343-0.295-0.565
			c-0.02-0.222,0.048-0.439,0.192-0.61c0.488-0.582,1.109-0.669,1.436-0.669c0.309,0,0.768,0.076,1.197,0.437
			c0.759,0.636,0.891,1.758,0.299,2.554C30.706,33.14,30.462,33.262,30.196,33.262z"/>
	</g>
	<g>
		<path fill="#1A1D1E" d="M25.761,9.909c-0.231,0-0.446-0.092-0.606-0.259c-0.896-0.946-1.4-2.183-1.42-3.485
			c-0.008-0.455,0.357-0.835,0.813-0.848c0.003,0,0.015,0,0.018,0c0.472,0.016,0.832,0.37,0.838,0.822
			c0.014,0.881,0.355,1.719,0.962,2.36c0.154,0.163,0.235,0.375,0.229,0.597c-0.006,0.222-0.098,0.429-0.26,0.583
			C26.182,9.828,25.977,9.909,25.761,9.909z"/>
	</g>
	<g>
		<path fill="#1A1D1E" d="M29.715,9.493c-0.385,0-0.727-0.273-0.814-0.648c-0.373-1.64-1.206-3.139-2.409-4.334
			c-0.158-0.157-0.245-0.366-0.246-0.589c-0.001-0.223,0.085-0.433,0.242-0.591c0.159-0.159,0.37-0.247,0.592-0.247
			s0.432,0.086,0.589,0.243c1.426,1.416,2.415,3.196,2.859,5.146c0.05,0.217,0.011,0.44-0.108,0.629
			c-0.119,0.189-0.304,0.32-0.521,0.37C29.834,9.487,29.774,9.493,29.715,9.493z"/>
	</g>
</g>
</svg>
