<?xml version="1.0" encoding="utf-8"?>
<!-- Generator: Adobe Illustrator 30.0.0, SVG Export Plug-In . SVG Version: 9.03 Build 0)  -->
<svg version="1.1" id="girl1" xmlns="http://www.w3.org/2000/svg" xmlns:xlink="http://www.w3.org/1999/xlink" x="0px" y="0px"
	 width="50px" height="50px" viewBox="0 0 50 50" enable-background="new 0 0 50 50" xml:space="preserve">
<g>
	<g>
		<path fill="#1A1D1E" d="M21.859,50c-0.03,0-0.06-0.003-0.09-0.008c-0.298-0.05-0.499-0.332-0.45-0.629l1.337-8.035
			c0.014-0.086-0.01-0.174-0.066-0.241l-0.601-0.717c-0.058-0.069-0.142-0.107-0.229-0.107c-0.041,0-0.082,0.008-0.121,0.026
			c-1.183,0.525-2.488,0.803-3.775,0.803c-0.301,0-0.546-0.245-0.546-0.546c0-0.301,0.245-0.546,0.546-0.546
			c0.968,0,1.93-0.175,2.858-0.519c0.091-0.034,0.16-0.11,0.185-0.203c0.025-0.094,0.002-0.194-0.06-0.268l-3.569-4.253
			c-0.004-0.005-0.008-0.009-0.012-0.014c-0.007-0.008-0.014-0.016-0.021-0.024c-1.559-1.862-1.316-4.649,0.544-6.211
			c0.793-0.665,1.798-1.031,2.832-1.031c0.031,0,0.062,0.003,0.093,0.005c0.028,0.002,0.055,0.004,0.083,0.005
			c0.004,0,0.009,0,0.013,0c0.1,0,0.194-0.05,0.249-0.134c0.058-0.088,0.065-0.2,0.019-0.294c-0.569-1.171-1.267-2.311-2.076-3.389
			c-0.056-0.075-0.145-0.119-0.239-0.119h-0.898c-4.519,0-8.208,3.676-8.225,8.194c0,0.007,0,0.015,0.001,0.022l0.081,1.14
			c0.001,0.011,0.002,0.023,0.004,0.034l3.073,16.41c0.006,0.035,0.01,0.068,0.01,0.101c0,0.262-0.188,0.488-0.447,0.537
			c-0.032,0.006-0.066,0.009-0.101,0.009c-0.262,0-0.488-0.187-0.536-0.446l-3.08-16.447c-0.001-0.02-0.002-0.033-0.004-0.046
			c-0.002-0.013-0.004-0.025-0.006-0.037l-0.085-1.209C8.55,31.798,8.55,31.787,8.55,31.775c0-3.887,2.463-7.401,6.128-8.743
			c0.133-0.049,0.214-0.185,0.192-0.326l-1.387-8.983c-0.005-0.029-0.007-0.056-0.007-0.083c0-1.854,1.508-3.362,3.362-3.362
			c0.378,0,0.751,0.063,1.107,0.187l0.248,0.091c0.009,0.003,0.019,0.006,0.028,0.009c0.603,0.155,1.262,0.297,2.015,0.435
			c0.018,0.003,0.036,0.005,0.054,0.005c0.066,0,0.13-0.022,0.183-0.063c0.067-0.052,0.109-0.131,0.114-0.216l0.317-4.817
			c0.002-0.012,0.005-0.028,0.006-0.047C21.079,2.575,23.785,0,27.073,0c3.405,0,6.176,2.771,6.176,6.176
			c0,0.006,0,0.012,0.001,0.017l0.224,3.864c0.005,0.085,0.046,0.164,0.113,0.217c0.053,0.042,0.118,0.064,0.185,0.064
			c0.017,0,0.035-0.001,0.052-0.005c0.207-0.037,0.399-0.055,0.587-0.055c1.854,0,3.362,1.508,3.362,3.362v0.672
			c0,0.03-0.002,0.059-0.007,0.088l-1.464,8.815c-0.021,0.127,0.042,0.253,0.155,0.313c3.082,1.621,4.996,4.781,4.996,8.246
			c0,0.511-0.042,1.025-0.126,1.528l-0.081,0.419l-3.487,15.847c-0.055,0.249-0.279,0.429-0.533,0.429
			c-0.04,0-0.08-0.004-0.117-0.013c-0.144-0.032-0.265-0.116-0.344-0.239s-0.105-0.269-0.073-0.412l3.557-16.214
			c0.001-0.005,0.002-0.01,0.003-0.015c0.07-0.424,0.108-0.884,0.108-1.331c0-4.535-3.69-8.225-8.226-8.225h-0.965
			c-0.094,0-0.182,0.044-0.238,0.119c-0.807,1.073-1.506,2.215-2.079,3.394c-0.046,0.095-0.039,0.208,0.02,0.296
			c0.056,0.083,0.149,0.132,0.248,0.132c0.006,0,0.012,0,0.018-0.001c0.03-0.002,0.059-0.004,0.089-0.006
			c0.07-0.005,0.136-0.01,0.2-0.01c1.032,0,2.037,0.366,2.829,1.031c1.863,1.562,2.108,4.349,0.546,6.213
			c-0.002,0.002-0.003,0.004-0.005,0.006c-0.007,0.009-0.016,0.018-0.023,0.026c-0.005,0.005-0.009,0.01-0.013,0.015l-3.573,4.258
			c-0.062,0.074-0.085,0.175-0.06,0.268c0.025,0.094,0.094,0.17,0.185,0.203c0.907,0.334,1.856,0.504,2.82,0.504
			c0.301,0,0.546,0.245,0.546,0.546s-0.245,0.546-0.546,0.546c-1.273,0-2.566-0.272-3.74-0.788c-0.039-0.017-0.079-0.025-0.12-0.025
			c-0.086,0-0.171,0.037-0.229,0.107l-1.073,1.279c-0.048,0.057-0.072,0.129-0.07,0.203l0.283,7.564
			c0.006,0.146-0.046,0.285-0.145,0.392c-0.099,0.107-0.235,0.169-0.381,0.175c-0.007,0-0.019,0-0.021,0
			c-0.295,0-0.535-0.231-0.545-0.526l-0.214-5.718c-0.004-0.115-0.075-0.218-0.181-0.263c-0.038-0.016-0.078-0.024-0.117-0.024
			c-0.072,0-0.143,0.026-0.198,0.075c-0.102,0.091-0.229,0.14-0.358,0.14c-0.162,0-0.314-0.071-0.418-0.195L24.02,42.79
			c-0.058-0.069-0.142-0.107-0.228-0.107c-0.026,0-0.053,0.003-0.079,0.011c-0.112,0.031-0.196,0.124-0.216,0.239l-1.101,6.61
			C22.353,49.808,22.126,50,21.859,50z M20.622,28.568c-0.777,0-1.533,0.276-2.129,0.776c-1.381,1.16-1.576,3.241-0.436,4.64
			c0.003,0.004,0.006,0.007,0.009,0.011c0.008,0.009,0.016,0.017,0.023,0.026c0,0,2.479,2.954,2.481,2.956
			c0.006,0.006,0.015,0.018,0.02,0.024c0.004,0.005,0.007,0.01,0.011,0.014l4.194,4.996c0.057,0.068,0.14,0.107,0.228,0.107
			c0.088,0,0.172-0.039,0.228-0.107L29.458,37c0.003-0.003,0.021-0.027,0.021-0.027c0.002-0.002,2.479-2.952,2.479-2.952
			c0.006-0.007,0.012-0.014,0.019-0.021c0.008-0.008,0.015-0.016,0.022-0.024c1.131-1.398,0.929-3.475-0.448-4.63
			c-0.596-0.5-1.351-0.776-2.127-0.776c-0.984,0-1.912,0.432-2.544,1.186l-1.438,1.713c-0.104,0.124-0.257,0.195-0.419,0.195
			c-0.162,0-0.314-0.071-0.418-0.195l-1.438-1.714C22.534,29,21.606,28.568,20.622,28.568z M20.843,23.551
			c-0.11,0-0.211,0.061-0.263,0.158c-0.052,0.097-0.046,0.215,0.015,0.306c0.799,1.198,1.488,2.503,2.048,3.879
			c0.026,0.063,0.072,0.115,0.131,0.148c0.477,0.267,0.891,0.606,1.23,1.01l0.791,0.943c0.057,0.068,0.14,0.107,0.228,0.107
			c0.088,0,0.172-0.039,0.228-0.107l0.791-0.943c0.31-0.37,0.677-0.685,1.09-0.936c0.055-0.033,0.098-0.084,0.122-0.143
			c0.567-1.407,1.266-2.738,2.08-3.958c0.061-0.092,0.067-0.209,0.015-0.306c-0.052-0.097-0.153-0.158-0.263-0.158H20.843z
			 M17.836,22.458c0.01,0.001,0.02,0.002,0.03,0.002h14.265c0.473,0,0.971,0.045,1.524,0.136c0.016,0.003,0.033,0.004,0.049,0.004
			c0.095,0,0.185-0.045,0.241-0.123c0.066-0.091,0.075-0.212,0.023-0.313c-1.227-2.366-1.869-5.015-1.856-7.659
			c0.001-0.308,0.239-0.542,0.552-0.544c0.143,0.001,0.28,0.058,0.382,0.162c0.103,0.104,0.159,0.241,0.158,0.387
			c-0.011,2.449,0.579,4.904,1.708,7.1c0.052,0.1,0.155,0.162,0.265,0.162c0.015,0,0.031-0.001,0.046-0.004
			c0.127-0.02,0.227-0.119,0.248-0.246l1.2-7.229c0.003-0.016,0.004-0.032,0.004-0.049v-0.603c0-1.251-1.018-2.269-2.269-2.269
			c-0.249,0-0.493,0.04-0.725,0.119l-0.316,0.108c-0.012,0.004-0.026,0.008-0.039,0.012c-0.025,0.007-0.057,0.014-0.088,0.022
			c-0.036,0.009-0.072,0.017-0.107,0.026l-0.023,0.006c-0.007,0.002-0.014,0.004-0.021,0.006c-0.009,0.001-0.017,0.003-0.026,0.005
			c-0.746,0.193-1.464,0.354-2.132,0.477c-0.285,0.053-0.583,0.103-0.887,0.151c-0.025,0.004-0.053,0.006-0.081,0.006
			c-0.273,0-0.501-0.194-0.542-0.462c-0.046-0.298,0.159-0.578,0.456-0.624c0.273-0.042,0.56-0.091,0.855-0.145
			c0.431-0.079,0.895-0.179,1.46-0.313c0.141-0.033,0.238-0.164,0.229-0.309L32.156,6.22c-0.007-2.828-2.286-5.127-5.085-5.127
			c-2.803,0-5.084,2.28-5.084,5.083c0,0.017-0.004,0.043-0.008,0.07l-0.001,0.008c-0.001,0.008-0.002,0.015-0.002,0.023
			l-0.308,4.672c-0.01,0.158,0.104,0.296,0.26,0.315c0.494,0.062,0.953,0.109,1.402,0.143c0.146,0.011,0.278,0.078,0.373,0.189
			c0.095,0.111,0.141,0.252,0.13,0.398c-0.022,0.283-0.263,0.504-0.549,0.504c-0.013,0-0.026,0-0.04-0.001
			c-0.651-0.05-1.353-0.131-2.143-0.247c-0.014-0.002-0.029-0.003-0.044-0.003c-0.004,0-0.017,0-0.02,0
			c-0.04-0.003-0.077-0.009-0.115-0.019c-0.011-0.003-0.022-0.005-0.033-0.007c-1.038-0.16-2.041-0.365-2.981-0.607
			c-0.017-0.004-0.034-0.009-0.05-0.015l-0.281-0.103c-0.232-0.081-0.486-0.123-0.74-0.123c-1.215,0-2.232,0.987-2.268,2.201
			c-0.001,0.018,0.001,0.036,0.003,0.054l1.145,7.415c0.02,0.129,0.121,0.23,0.25,0.249c0.015,0.002,0.03,0.003,0.045,0.003
			c0.113,0,0.217-0.064,0.268-0.168c1.015-2.084,1.538-4.313,1.552-6.625c0.002-0.3,0.247-0.543,0.546-0.543
			c0.149,0.001,0.286,0.059,0.389,0.162c0.103,0.104,0.158,0.241,0.158,0.387c-0.016,2.605-0.672,5.213-1.895,7.541
			c-0.05,0.095-0.045,0.21,0.013,0.3c0.055,0.085,0.15,0.137,0.251,0.137c0.006,0,0.012,0,0.018-0.001
			c0.05-0.003,0.101-0.006,0.151-0.01C17.591,22.468,17.713,22.459,17.836,22.458z"/>
	</g>
	<g>
		<path fill="#1A1D1E" d="M30.26,33.062c-0.118,0-0.231-0.038-0.327-0.109c-0.241-0.18-0.291-0.523-0.111-0.765
			c0.16-0.213,0.125-0.516-0.081-0.687c-0.092-0.077-0.199-0.116-0.317-0.116c-0.11,0-0.266,0.032-0.39,0.183
			c-0.102,0.121-0.254,0.192-0.416,0.192l0,0c-0.129,0-0.25-0.044-0.349-0.128c-0.112-0.094-0.181-0.226-0.194-0.371
			c-0.013-0.145,0.032-0.287,0.126-0.399c0.416-0.496,0.946-0.57,1.225-0.57c0.263,0,0.654,0.065,1.019,0.372
			c0.648,0.543,0.76,1.499,0.255,2.178C30.595,32.981,30.435,33.062,30.26,33.062z"/>
	</g>
	<g>
		<path fill="#1A1D1E" d="M25.772,9.431c-0.152,0-0.293-0.061-0.397-0.17c-0.854-0.902-1.335-2.082-1.354-3.325
			c-0.005-0.299,0.233-0.547,0.532-0.555c0.315,0.011,0.556,0.242,0.56,0.538c0.015,0.967,0.39,1.887,1.055,2.589
			c0.1,0.106,0.154,0.245,0.15,0.391c-0.004,0.146-0.065,0.281-0.171,0.382C26.046,9.378,25.913,9.431,25.772,9.431z"/>
	</g>
	<g>
		<path fill="#1A1D1E" d="M29.773,9.01c-0.252,0-0.476-0.179-0.533-0.425c-0.39-1.715-1.261-3.281-2.518-4.53
			c-0.213-0.212-0.215-0.559-0.003-0.772c0.104-0.104,0.241-0.162,0.388-0.162c0.145,0,0.282,0.056,0.385,0.159
			c1.403,1.393,2.376,3.144,2.813,5.063c0.067,0.293-0.118,0.587-0.412,0.654C29.855,9.005,29.814,9.01,29.773,9.01z"/>
	</g>
</g>
</svg>
