<?xml version="1.0" encoding="utf-8"?>
<!-- Generator: Adobe Illustrator 30.0.0, SVG Export Plug-In . SVG Version: 9.03 Build 0)  -->
<svg version="1.1" id="t3" xmlns="http://www.w3.org/2000/svg" xmlns:xlink="http://www.w3.org/1999/xlink" x="0px" y="0px"
	 width="100px" height="100px" viewBox="0 0 100 100" style="enable-background:new 0 0 100 100;" xml:space="preserve">
<path d="M49.738,100c-7.098,0-13.412-1.228-18.94-3.684c-5.53-2.455-9.886-5.846-13.071-10.171
	c-3.184-4.325-4.824-9.323-4.919-14.996h20.722c0.127,2.376,0.911,4.46,2.353,6.25c1.441,1.791,3.366,3.177,5.775,4.159
	c2.408,0.983,5.117,1.473,8.128,1.473c3.137,0,5.909-0.554,8.318-1.664c2.408-1.109,4.293-2.645,5.656-4.61
	c1.362-1.964,2.044-4.23,2.044-6.797c0-2.598-0.721-4.903-2.163-6.916c-1.442-2.012-3.502-3.588-6.179-4.729
	c-2.678-1.141-5.854-1.711-9.53-1.711h-9.078V41.492h9.078c3.105,0,5.853-0.538,8.246-1.616c2.392-1.077,4.254-2.574,5.585-4.491
	c1.331-1.917,1.996-4.159,1.996-6.725c0-2.44-0.579-4.587-1.735-6.44c-1.157-1.854-2.773-3.303-4.848-4.349
	c-2.076-1.046-4.492-1.568-7.248-1.568c-2.789,0-5.34,0.499-7.652,1.497c-2.313,0.998-4.167,2.417-5.561,4.254
	c-1.394,1.838-2.139,3.992-2.234,6.464H14.758c0.095-5.608,1.695-10.552,4.8-14.829c3.105-4.277,7.296-7.628,12.571-10.052
	C37.404,1.212,43.369,0,50.024,0c6.717,0,12.595,1.22,17.633,3.66c5.038,2.44,8.959,5.727,11.764,9.862
	c2.803,4.135,4.19,8.769,4.158,13.902c0.032,5.45-1.655,9.997-5.061,13.64c-3.407,3.644-7.835,5.958-13.284,6.939v0.76
	c7.16,0.92,12.619,3.398,16.373,7.438c3.755,4.04,5.616,9.086,5.585,15.138c0.031,5.545-1.56,10.472-4.777,14.782
	c-3.216,4.309-7.644,7.699-13.284,10.171C63.49,98.764,57.026,100,49.738,100z"/>
</svg>
