<?xml version="1.0" encoding="utf-8"?>
<!-- Generator: Adobe Illustrator 30.1.0, SVG Export Plug-In . SVG Version: 9.03 Build 0)  -->
<svg version="1.1" id="fantasy" xmlns="http://www.w3.org/2000/svg" xmlns:xlink="http://www.w3.org/1999/xlink" x="0px" y="0px"
	 width="50px" height="50px" viewBox="0 0 50 50" enable-background="new 0 0 50 50" xml:space="preserve">
<g>
	<g>
		<g>
			<g>
				<g>
					<path fill="#1A1D1E" d="M39.451,34.446H10.544C4.731,34.446,0,29.715,0,23.902c0-4.857,3.314-9.058,7.967-10.223
						c1.548-4.09,5.433-6.796,9.86-6.796c1.766,0,3.471,0.433,5.003,1.26c1.71-3.691,5.398-6.088,9.561-6.088
						c5.813,0,10.544,4.731,10.544,10.544v1.346C47.135,15.41,50,19.389,50,23.902c0,5.813-4.731,10.544-10.544,10.544H39.451z
						 M17.825,9.061c-3.683,0-6.893,2.361-7.989,5.875c-0.121,0.385-0.444,0.673-0.84,0.746c-3.95,0.738-6.82,4.195-6.82,8.22
						c0,4.612,3.753,8.366,8.366,8.366h28.909c4.612,0,8.366-3.753,8.366-8.366c0-3.807-2.569-7.137-6.249-8.096
						c-0.479-0.124-0.816-0.557-0.816-1.053v-2.154c0-4.612-3.753-8.366-8.366-8.366c-3.675,0-6.885,2.356-7.983,5.859
						c-0.105,0.334-0.363,0.598-0.697,0.708c-0.334,0.11-0.697,0.054-0.983-0.151c-1.435-1.039-3.129-1.589-4.9-1.589L17.825,9.061z
						"/>
				</g>
			</g>
			<path fill="#1A1D1E" d="M10.034,44.37c0.76,0,1.379,0.619,1.379,1.379c0,0.76-0.619,1.379-1.379,1.379
				c-0.76,0-1.379-0.619-1.379-1.379C8.655,44.989,9.273,44.37,10.034,44.37 M10.034,43.553c-1.213,0-2.196,0.983-2.196,2.196
				c0,1.213,0.983,2.196,2.196,2.196s2.196-0.983,2.196-2.196C12.23,44.536,11.246,43.553,10.034,43.553L10.034,43.553z"/>
			<path fill="#1A1D1E" d="M16.187,37.872c0.95,0,1.724,0.773,1.724,1.724c0,0.95-0.773,1.724-1.724,1.724
				c-0.95,0-1.724-0.773-1.724-1.724S15.236,37.872,16.187,37.872 M16.187,36.851c-1.516,0-2.745,1.229-2.745,2.745
				s1.229,2.745,2.745,2.745s2.745-1.229,2.745-2.745S17.703,36.851,16.187,36.851L16.187,36.851z"/>
		</g>
	</g>
	<g>
		<g>
			<g>
				<path fill="#1A1D1E" d="M11.582,19.13c0.131,0,0.251,0.074,0.309,0.192l1.375,2.777h0.094l1.42-2.781
					c0.059-0.115,0.178-0.188,0.307-0.188h2.278c0.271,0,0.436,0.298,0.293,0.528l-2.333,3.74c-0.073,0.118-0.069,0.267,0.01,0.381
					l2.833,4.038c0.16,0.229-0.003,0.543-0.283,0.543h-2.482c-0.124,0-0.238-0.066-0.3-0.174l-1.777-3.103h-0.094l-1.592,3.09
					c-0.059,0.115-0.178,0.187-0.307,0.187H9.041c-0.271,0-0.436-0.298-0.293-0.528l2.512-4.027c0.07-0.112,0.07-0.254,0-0.366
					l-2.369-3.781c-0.144-0.23,0.021-0.528,0.292-0.528H11.582z"/>
			</g>
			<g>
				<path fill="#1A1D1E" d="M24.943,20.699h0.094l2.139-4.151c0.059-0.115,0.178-0.187,0.307-0.187h2.964
					c0.265,0,0.431,0.286,0.3,0.516l-2.999,5.276c-0.062,0.109-0.06,0.244,0.006,0.351l3.262,5.331
					c0.141,0.23-0.025,0.525-0.294,0.525h-3.199c-0.125,0-0.241-0.068-0.302-0.178l-2.34-4.222h-0.125l-2.217,4.215
					c-0.06,0.113-0.177,0.184-0.305,0.184H19.3c-0.265,0-0.431-0.286-0.3-0.516l3.051-5.35c0.058-0.102,0.061-0.227,0.006-0.332
					l-2.788-5.295c-0.121-0.23,0.046-0.506,0.305-0.506h3.058c0.132,0,0.253,0.076,0.311,0.195L24.943,20.699z"/>
			</g>
			<g>
				<path fill="#1A1D1E" d="M34.655,19.13c0.131,0,0.251,0.074,0.309,0.192l1.375,2.777h0.094l1.42-2.781
					c0.059-0.115,0.178-0.188,0.307-0.188h2.278c0.271,0,0.436,0.298,0.293,0.528l-2.333,3.74c-0.073,0.118-0.069,0.267,0.01,0.381
					l2.833,4.038c0.16,0.229-0.003,0.543-0.283,0.543h-2.482c-0.124,0-0.238-0.066-0.3-0.174l-1.777-3.103h-0.094l-1.592,3.09
					c-0.059,0.115-0.178,0.187-0.307,0.187h-2.294c-0.271,0-0.436-0.298-0.293-0.528l2.512-4.027c0.07-0.112,0.07-0.254,0-0.366
					l-2.369-3.781c-0.144-0.23,0.021-0.528,0.292-0.528H34.655z"/>
			</g>
		</g>
	</g>
</g>
</svg>
