<?xml version="1.0" encoding="utf-8"?>
<!-- Generator: Adobe Illustrator 30.1.0, SVG Export Plug-In . SVG Version: 9.03 Build 0)  -->
<svg version="1.1" id="fantasy" xmlns="http://www.w3.org/2000/svg" xmlns:xlink="http://www.w3.org/1999/xlink" x="0px" y="0px"
	 width="50px" height="50px" viewBox="0 0 50 50" enable-background="new 0 0 50 50" xml:space="preserve">
<g>
	<g>
		<g>
			<g>
				<path fill="#1A1D1E" d="M10.273,33.921C4.609,33.921,0,29.313,0,23.648c0-4.72,3.192-8.816,7.762-9.961
					c0.149-0.037,0.269-0.145,0.324-0.288c0.742-1.96,2.039-3.621,3.751-4.805c1.719-1.188,3.744-1.816,5.856-1.816
					c1.726,0,3.366,0.413,4.875,1.227c0.069,0.037,0.145,0.056,0.222,0.056c0.05,0,0.099-0.008,0.147-0.024
					c0.122-0.041,0.222-0.13,0.277-0.247c0.821-1.772,2.121-3.264,3.761-4.314c1.652-1.058,3.573-1.617,5.555-1.617
					c5.665,0,10.274,4.609,10.274,10.274v1.371c0,0.199,0.126,0.376,0.313,0.441C47.233,15.382,50,19.281,50,23.648
					c0,5.665-4.609,10.274-10.274,10.274H10.273z M17.656,8.062c-3.943,0.014-7.376,2.548-8.55,6.313
					c-0.072,0.228-0.261,0.396-0.494,0.439c-4.248,0.794-7.33,4.509-7.33,8.833c0,4.957,4.033,8.99,8.99,8.99h29.45
					c4.957,0,8.99-4.033,8.99-8.99c0-4.092-2.761-7.669-6.715-8.7c-0.284-0.073-0.482-0.328-0.482-0.62v-2.194
					c0-4.957-4.033-8.99-8.99-8.99c-3.951,0-7.398,2.53-8.578,6.296c-0.062,0.197-0.215,0.353-0.41,0.417
					c-0.066,0.022-0.135,0.033-0.204,0.033c-0.136,0-0.267-0.042-0.379-0.123c-1.541-1.116-3.362-1.706-5.264-1.706
					C17.678,8.061,17.667,8.061,17.656,8.062z"/>
			</g>
			<path fill="#1A1D1E" d="M9.754,44.498c0.774,0,1.405,0.631,1.405,1.405c0,0.774-0.631,1.405-1.405,1.405
				c-0.774,0-1.405-0.631-1.405-1.405C8.349,45.129,8.979,44.498,9.754,44.498 M9.754,43.666c-1.236,0-2.237,1.001-2.237,2.237
				c0,1.236,1.001,2.237,2.237,2.237s2.237-1.001,2.237-2.237C11.991,44.668,10.989,43.666,9.754,43.666L9.754,43.666z"/>
			<path fill="#1A1D1E" d="M16.022,37.879c0.968,0,1.756,0.787,1.756,1.756c0,0.968-0.787,1.756-1.756,1.756
				c-0.968,0-1.756-0.787-1.756-1.756S15.053,37.879,16.022,37.879 M16.022,36.839c-1.544,0-2.796,1.252-2.796,2.796
				s1.252,2.796,2.796,2.796s2.796-1.252,2.796-2.796S17.566,36.839,16.022,36.839L16.022,36.839z"/>
		</g>
	</g>
	<g>
		<g>
			<g>
				<path fill="#1A1D1E" d="M11.331,18.787c0.133,0,0.256,0.075,0.315,0.196l1.401,2.829h0.096l1.447-2.833
					c0.06-0.117,0.181-0.192,0.313-0.192h2.321c0.276,0,0.444,0.304,0.298,0.538l-2.377,3.81c-0.074,0.12-0.07,0.272,0.01,0.388
					l2.886,4.114c0.163,0.233-0.003,0.553-0.288,0.553h-2.528c-0.126,0-0.242-0.067-0.306-0.177l-1.81-3.161h-0.096l-1.622,3.148
					c-0.06,0.117-0.181,0.19-0.313,0.19H8.742c-0.276,0-0.444-0.304-0.298-0.538l2.559-4.102c0.071-0.114,0.071-0.259,0-0.373
					L8.59,19.324c-0.147-0.234,0.021-0.538,0.297-0.538H11.331z"/>
			</g>
			<g>
				<path fill="#1A1D1E" d="M24.942,20.385h0.096l2.179-4.229c0.06-0.117,0.181-0.19,0.313-0.19h3.019
					c0.27,0,0.439,0.291,0.306,0.526l-3.055,5.375c-0.063,0.111-0.061,0.249,0.006,0.358l3.323,5.431
					c0.144,0.234-0.025,0.535-0.299,0.535H27.57c-0.127,0-0.246-0.069-0.308-0.181l-2.384-4.301h-0.127l-2.258,4.294
					c-0.061,0.115-0.18,0.187-0.311,0.187h-2.989c-0.27,0-0.439-0.291-0.306-0.526l3.108-5.45c0.059-0.104,0.062-0.231,0.006-0.338
					l-2.84-5.394c-0.123-0.234,0.047-0.515,0.311-0.515h3.115c0.134,0,0.258,0.077,0.317,0.199L24.942,20.385z"/>
			</g>
			<g>
				<path fill="#1A1D1E" d="M34.835,18.787c0.133,0,0.256,0.075,0.315,0.196l1.401,2.829h0.096l1.447-2.833
					c0.06-0.117,0.181-0.192,0.313-0.192h2.321c0.276,0,0.444,0.304,0.298,0.538l-2.377,3.81c-0.074,0.12-0.07,0.272,0.01,0.388
					l2.886,4.114c0.163,0.233-0.003,0.553-0.288,0.553h-2.528c-0.126,0-0.242-0.067-0.306-0.177l-1.81-3.161h-0.096l-1.622,3.148
					c-0.06,0.117-0.181,0.19-0.313,0.19h-2.337c-0.276,0-0.444-0.304-0.298-0.538l2.559-4.102c0.071-0.114,0.071-0.259,0-0.373
					l-2.413-3.852c-0.147-0.234,0.021-0.538,0.297-0.538H34.835z"/>
			</g>
		</g>
	</g>
</g>
</svg>
