<?xml version="1.0" encoding="UTF-8"?>
<svg xmlns="http://www.w3.org/2000/svg"
viewBox="0 0 500 27.115"
preserveAspectRatio="xMidYMid meet">
<g>
	<polygon fill="#CC9866" points="16.514,16.952 16.282,16.952 4.895,0.36 0,0.36 0,26.741 5.577,26.741 5.577,10.138 5.771,10.138 
		17.248,26.741 22.066,26.741 22.066,0.36 16.514,0.36 	"/>
	<path fill="#CC9866" d="M34.341,0.36l-9.107,26.381h5.977l1.957-6.016h9.525l1.953,6.016h5.977L41.529,0.36H34.341z M34.585,16.372
		l3.248-9.984h0.206l3.242,9.984H34.585z"/>
	<path fill="#CC9866" d="M70.087,17.016c0,1.004-0.221,1.897-0.663,2.679s-1.065,1.396-1.867,1.843
		c-0.804,0.447-1.745,0.669-2.828,0.669c-1.074,0-2.014-0.222-2.821-0.669c-0.808-0.447-1.432-1.061-1.875-1.843
		c-0.442-0.782-0.663-1.675-0.663-2.679V0.36h-5.577v17.132c0,1.924,0.455,3.607,1.366,5.049c0.91,1.443,2.185,2.566,3.826,3.37
		c1.64,0.802,3.555,1.204,5.745,1.204c2.181,0,4.092-0.402,5.732-1.204c1.64-0.804,2.917-1.926,3.832-3.37
		c0.915-1.442,1.372-3.126,1.372-5.049V0.36h-5.578v16.656H70.087z"/>
	<path fill="#CC9866" d="M92.616,16.822h5.659c-0.023,1.052-0.254,1.974-0.706,2.758c-0.477,0.824-1.164,1.461-2.061,1.912
		c-0.898,0.452-1.977,0.677-3.24,0.677c-1.392,0-2.598-0.337-3.62-1.011c-1.022-0.675-1.812-1.656-2.371-2.943
		c-0.558-1.289-0.837-2.851-0.837-4.689s0.283-3.395,0.85-4.669c0.567-1.276,1.359-2.248,2.377-2.918s2.201-1.005,3.549-1.005
		c0.721,0,1.38,0.091,1.977,0.271c0.597,0.181,1.129,0.441,1.597,0.779c0.468,0.34,0.865,0.751,1.191,1.237s0.58,1.041,0.76,1.668
		h5.668c-0.18-1.305-0.588-2.5-1.224-3.587c-0.636-1.086-1.453-2.025-2.454-2.815c-1-0.79-2.144-1.402-3.433-1.835
		C95.012,0.216,93.621,0,92.126,0c-1.743,0-3.362,0.305-4.856,0.914c-1.495,0.611-2.805,1.499-3.929,2.667
		c-1.125,1.168-1.999,2.591-2.621,4.27c-0.623,1.679-0.934,3.587-0.934,5.726c0,2.782,0.522,5.185,1.565,7.208
		c1.043,2.022,2.501,3.581,4.373,4.676c1.872,1.095,4.044,1.642,6.518,1.642c2.216,0,4.182-0.448,5.9-1.346
		c1.718-0.897,3.066-2.176,4.045-3.838s1.468-3.652,1.468-5.971v-3.323H92.616V16.822z"/>
	<polygon fill="#CC9866" points="124.742,11.245 113.42,11.245 113.42,0.36 107.842,0.36 107.842,26.741 113.42,26.741 
		113.42,15.844 124.742,15.844 124.742,26.741 130.307,26.741 130.307,0.36 124.742,0.36 	"/>
	<polygon fill="#CC9866" points="133.901,4.958 141.977,4.958 141.977,26.741 147.491,26.741 147.491,4.958 155.568,4.958 
		155.568,0.36 133.901,0.36 	"/>
	<polygon fill="#CC9866" points="170.124,11.722 169.866,11.722 163.85,0.36 157.603,0.36 167.225,17.416 167.225,26.741 
		172.764,26.741 172.764,17.416 182.386,0.36 176.139,0.36 	"/>
	<polygon fill="#FFFFFF" points="208.29,18.084 207.981,18.084 200.716,0.36 193.837,0.36 193.837,26.741 199.247,26.741 
		199.247,9.506 199.466,9.506 206.293,26.613 209.978,26.613 216.805,9.571 217.024,9.571 217.024,26.741 222.434,26.741 
		222.434,0.36 215.555,0.36 	"/>
	<path fill="#FFFFFF" d="M234.697,0.36l-9.107,26.381h5.977l1.957-6.016h9.525l1.953,6.016h5.977L241.884,0.36H234.697z
		 M234.94,16.372l3.248-9.984h0.206l3.242,9.984H234.94z"/>
	<polygon fill="#FFFFFF" points="249.897,4.958 257.973,4.958 257.973,26.741 263.487,26.741 263.487,4.958 271.564,4.958 
		271.564,0.36 249.897,0.36 	"/>
	<path fill="#FFFFFF" d="M282.358,5.944c1.014-0.674,2.203-1.011,3.569-1.011c0.756,0,1.458,0.108,2.106,0.323
		c0.648,0.214,1.222,0.523,1.72,0.927c0.498,0.403,0.906,0.891,1.224,1.461c0.318,0.572,0.528,1.222,0.631,1.952h5.642
		c-0.18-1.528-0.59-2.885-1.23-4.071c-0.64-1.185-1.466-2.187-2.48-3.008c-1.014-0.819-2.175-1.444-3.485-1.874
		C288.745,0.215,287.326,0,285.798,0c-2.318,0-4.406,0.53-6.261,1.59c-1.855,1.061-3.323,2.6-4.406,4.619s-1.623,4.466-1.623,7.342
		c0,2.868,0.535,5.312,1.603,7.329c1.069,2.019,2.529,3.56,4.38,4.625c1.851,1.066,3.952,1.597,6.306,1.597
		c1.692,0,3.209-0.255,4.553-0.766c1.345-0.511,2.504-1.207,3.479-2.087c0.975-0.881,1.752-1.881,2.332-3.002
		c0.579-1.12,0.942-2.287,1.088-3.497l-5.642-0.027c-0.129,0.705-0.358,1.332-0.689,1.881c-0.33,0.55-0.745,1.015-1.243,1.397
		c-0.498,0.382-1.067,0.672-1.707,0.87c-0.64,0.197-1.333,0.296-2.081,0.296c-1.332,0-2.503-0.327-3.516-0.98
		s-1.801-1.618-2.363-2.899c-0.563-1.279-0.844-2.86-0.844-4.74c0-1.829,0.279-3.385,0.837-4.669
		C280.559,7.597,281.346,6.619,282.358,5.944z"/>
	<polygon fill="#FFFFFF" points="318.155,11.245 306.832,11.245 306.832,0.36 301.254,0.36 301.254,26.741 306.832,26.741 
		306.832,15.844 318.155,15.844 318.155,26.741 323.719,26.741 323.719,0.36 318.155,0.36 	"/>
	<path fill="#FFFFFF" d="M353.024,17.016c0,1.004-0.221,1.897-0.663,2.679c-0.443,0.782-1.065,1.396-1.868,1.843
		c-0.804,0.447-1.745,0.669-2.827,0.669c-1.074,0-2.015-0.222-2.821-0.669c-0.808-0.447-1.432-1.061-1.875-1.843
		c-0.442-0.782-0.663-1.675-0.663-2.679V0.36h-5.577v17.132c0,1.924,0.455,3.607,1.366,5.049c0.909,1.443,2.185,2.566,3.826,3.37
		c1.64,0.802,3.555,1.204,5.745,1.204c2.181,0,4.092-0.402,5.732-1.204c1.64-0.804,2.918-1.926,3.832-3.37
		c0.915-1.442,1.373-3.126,1.373-5.049V0.36h-5.579L353.024,17.016L353.024,17.016z"/>
	<path fill="#FFFFFF" d="M378.711,1.5c-1.409-0.76-3.113-1.14-5.114-1.14h-10.408v26.381h5.577v-8.554h4.689
		c2.026,0,3.754-0.373,5.184-1.12c1.43-0.747,2.523-1.79,3.278-3.13c0.756-1.339,1.134-2.885,1.134-4.637s-0.371-3.3-1.114-4.644
		C381.194,3.312,380.119,2.26,378.711,1.5z M376.784,11.599c-0.347,0.666-0.872,1.185-1.572,1.559
		c-0.699,0.374-1.586,0.561-2.659,0.561h-3.787V4.921h3.762c1.081,0,1.975,0.182,2.679,0.547c0.704,0.364,1.231,0.875,1.578,1.533
		c0.348,0.657,0.522,1.423,0.522,2.299C377.306,10.168,377.133,10.934,376.784,11.599z"/>
	<path fill="#FFFFFF" d="M407.461,16.822h5.659c-0.023,1.052-0.254,1.974-0.706,2.758c-0.477,0.824-1.164,1.461-2.061,1.912
		c-0.898,0.452-1.977,0.677-3.24,0.677c-1.392,0-2.599-0.337-3.62-1.011c-1.022-0.675-1.812-1.656-2.371-2.943
		c-0.558-1.289-0.838-2.851-0.838-4.689s0.284-3.395,0.85-4.669c0.567-1.276,1.359-2.248,2.377-2.918s2.201-1.005,3.549-1.005
		c0.721,0,1.38,0.091,1.977,0.271c0.597,0.181,1.129,0.441,1.597,0.779c0.469,0.34,0.865,0.751,1.192,1.237s0.579,1.041,0.76,1.668
		h5.667c-0.18-1.305-0.588-2.5-1.224-3.587c-0.636-1.086-1.453-2.025-2.454-2.815c-1-0.79-2.144-1.402-3.433-1.835
		C409.857,0.216,408.466,0,406.972,0c-1.743,0-3.362,0.305-4.856,0.914c-1.494,0.611-2.804,1.499-3.929,2.667
		s-1.999,2.591-2.621,4.27c-0.623,1.679-0.935,3.587-0.935,5.726c0,2.782,0.522,5.185,1.566,7.208
		c1.043,2.022,2.5,3.581,4.373,4.676c1.872,1.095,4.044,1.642,6.517,1.642c2.216,0,4.183-0.448,5.9-1.346
		c1.718-0.897,3.066-2.176,4.044-3.838c0.979-1.662,1.469-3.652,1.469-5.971v-3.323h-11.04v4.197H407.461z"/>
	<path fill="#FFFFFF" d="M429.54,0.36l-9.107,26.381h5.977l1.957-6.016h9.525l1.953,6.016h5.977L436.727,0.36H429.54z
		 M429.783,16.372l3.248-9.984h0.205l3.242,9.984H429.783z"/>
	<polygon fill="#FFFFFF" points="463.443,18.084 463.134,18.084 455.869,0.36 448.99,0.36 448.99,26.741 454.4,26.741 454.4,9.506 
		454.62,9.506 461.446,26.613 465.131,26.613 471.958,9.571 472.177,9.571 472.177,26.741 477.587,26.741 477.587,0.36 
		470.708,0.36 	"/>
	<polygon fill="#FFFFFF" points="487.75,22.142 487.75,15.844 499.034,15.844 499.034,11.245 487.75,11.245 487.75,4.958 
		499.949,4.958 499.949,0.36 482.173,0.36 482.173,26.741 500,26.741 500,22.142 	"/>
</g>
</svg>
