<?xml version="1.0" encoding="UTF-8"?>
<svg xmlns="http://www.w3.org/2000/svg"
 viewBox="0 0 500 40.471" preserveAspectRatio="xMidYMid meet">
<g>
	<linearGradient id="SVGID_1_" gradientUnits="userSpaceOnUse" x1="335.6819" y1="20.2355" x2="500" y2="20.2355">
		<stop  offset="0" style="stop-color:#AA7925"/>
		<stop  offset="0.1749" style="stop-color:#FFF7C5"/>
		<stop  offset="0.2101" style="stop-color:#FFF5C0"/>
		<stop  offset="0.2513" style="stop-color:#FFF1B2"/>
		<stop  offset="0.2954" style="stop-color:#FFE99B"/>
		<stop  offset="0.3413" style="stop-color:#FFDF7A"/>
		<stop  offset="0.3584" style="stop-color:#FFDA6C"/>
		<stop  offset="0.4061" style="stop-color:#DFB856"/>
		<stop  offset="0.4821" style="stop-color:#B28737"/>
		<stop  offset="0.5401" style="stop-color:#966923"/>
		<stop  offset="0.5727" style="stop-color:#8B5E1C"/>
		<stop  offset="0.6232" style="stop-color:#AD7A30"/>
		<stop  offset="0.6881" style="stop-color:#D59B47"/>
		<stop  offset="0.6994" style="stop-color:#C28C40"/>
		<stop  offset="0.7503" style="stop-color:#6F4B20"/>
		<stop  offset="0.7735" style="stop-color:#4E3113"/>
		<stop  offset="0.8542" style="stop-color:#7A5119"/>
		<stop  offset="0.8959" style="stop-color:#8B5E1C"/>
		<stop  offset="1" style="stop-color:#D59B47"/>
	</linearGradient>
	<path fill="url(#SVGID_1_)" d="M372.273,22.247c0,1.11-0.26,2.158-0.779,3.145c-1.103,2.22-3.211,4.07-6.326,5.55
		c-3.114,1.48-6.358,2.22-9.732,2.22c-5.126,0-8.613-1.665-10.462-4.995c-3.341,2.652-5.726,3.978-7.153,3.978
		c-0.26,0-0.487-0.046-0.681-0.139c-0.973-0.494-1.46-1.557-1.46-3.191c0-1.634,0.713-3.638,2.141-6.013
		c1.427-2.374,2.676-3.776,3.747-4.209c0.487-0.154,0.859-0.231,1.119-0.231c0.94,0,1.654,0.74,2.141,2.22l1.46,4.44
		c0.94-0.956,2.221-2.482,3.844-4.579l4.331-5.55c5.32-6.568,8.807-10.159,10.462-10.777c0.584-0.215,1.184-0.324,1.8-0.324
		c0.616,0,1.127,0.123,1.533,0.37c0.405,0.247,0.608,0.555,0.608,0.925c0,0.555-0.471,0.879-1.411,0.971
		c-0.973,0.525-2.83,2.058-5.571,4.602c-2.742,2.544-4.372,4.156-4.89,4.833c-3.634,4.81-6.991,8.51-10.072,11.1
		c1.978,3.731,4.946,5.597,8.905,5.597c2.4,0,4.784-0.717,7.153-2.151c2.368-1.434,4.136-3.199,5.304-5.296
		c0.519-0.894,0.779-1.896,0.779-3.007c0-1.11-0.462-2.166-1.387-3.168c-0.925-1.002-2.085-1.735-3.479-2.197
		c-0.649-0.092-1.687-0.223-3.114-0.393c-1.428-0.169-2.141-0.454-2.141-0.855c0-0.154,0.064-0.293,0.195-0.417
		c0.389-0.431,0.892-0.648,1.508-0.648c0.356,0,0.705,0.062,1.046,0.185c0.341,0.123,0.608,0.216,0.803,0.277
		c0.195,0.062,0.421,0.139,0.681,0.231c0.713,0.062,1.33,0.092,1.849,0.092c2.141,0,4.087-0.324,5.839-0.971
		c2.238-0.833,3.665-2.081,4.282-3.746c0.389-1.079,0.584-2.05,0.584-2.914c0-2.128-1.087-3.715-3.26-4.764
		c-1.882-0.925-4.461-1.388-7.737-1.388c-5.158,0-9.78,0.925-13.868,2.775c-2.077,0.925-4.047,2.297-5.912,4.116
		c-1.866,1.82-2.798,3.377-2.798,4.672c0,0.895,0.243,1.635,0.73,2.22c0.195,0.247,0.535,0.555,1.022,0.925
		c0.162,0.092,0.065,0.139-0.292,0.139c-2.012-0.431-3.017-1.711-3.017-3.839c0-2.128,1.135-4.132,3.406-6.013
		c1.686-1.387,3.584-2.513,5.693-3.376C354.075,0.895,359.054,0,364.634,0c3.99,0,7.169,0.555,9.537,1.665
		c2.757,1.233,4.136,3.099,4.136,5.596c0,0.988-0.211,1.989-0.633,3.006c-0.681,1.85-2.45,3.254-5.304,4.209
		c-2.141,0.71-4.445,1.079-6.909,1.11c1.914,0.092,3.528,0.763,4.841,2.012C371.616,18.848,372.273,20.397,372.273,22.247z
		 M341.18,20.536c-0.033,0-0.114,0.031-0.243,0.092c-2.401,3.3-3.601,5.952-3.601,7.956c0,0.832,0.211,1.588,0.632,2.266
		c0.097,0.154,0.259,0.231,0.487,0.231c1.038,0,3.033-1.403,5.985-4.209l-0.146-0.185C342.997,22.587,341.959,20.536,341.18,20.536z
		 M376.408,31.498c-1.654,0-2.481-1.018-2.481-3.053c0-1.665,0.956-3.97,2.871-6.915c1.914-2.944,3.455-4.432,4.623-4.463
		c0.324,0,0.689,0.123,1.095,0.37c0.405,0.247,0.608,0.494,0.608,0.74c-0.163,0.216-0.358,0.455-0.584,0.717
		c-0.227,0.263-0.471,0.548-0.73,0.856c-0.26,0.309-0.616,0.748-1.07,1.319c-0.455,0.571-0.892,1.118-1.314,1.642
		c-2.433,2.992-3.649,5.05-3.649,6.175c0,1.126,0.405,1.688,1.217,1.688c0.681,0,1.606-0.354,2.773-1.064
		c2.725-1.603,4.882-3.36,6.472-5.273c0.584-0.709,0.981-1.064,1.192-1.064c0.211,0,0.316,0.123,0.316,0.37
		c0,0.247-0.373,0.74-1.119,1.48c-0.747,0.74-1.338,1.326-1.776,1.758s-0.738,0.717-0.9,0.856c-0.163,0.139-0.462,0.401-0.9,0.786
		c-0.438,0.386-0.771,0.656-0.998,0.809c-0.227,0.155-0.552,0.386-0.973,0.694c-0.422,0.308-0.795,0.532-1.119,0.671
		c-0.324,0.139-0.698,0.3-1.119,0.485C378.16,31.359,377.349,31.498,376.408,31.498z M386.603,12.558
		c0.438,0.293,0.657,0.64,0.657,1.041c0,0.401-0.203,0.748-0.608,1.041c-0.406,0.294-0.852,0.439-1.338,0.439
		s-0.933-0.169-1.338-0.509c-0.406-0.339-0.608-0.724-0.608-1.156c0-0.863,0.616-1.295,1.849-1.295
		C385.702,12.118,386.165,12.265,386.603,12.558z M395.58,31.22c-2.433,0-3.65-1.279-3.65-3.839c0-1.295,0.357-2.713,1.071-4.255
		c0.713-1.542,1.492-2.837,2.335-3.885c-0.163,0.031-0.373,0.046-0.633,0.046c-0.779,0-1.428-0.524-1.946-1.573l-3.601,4.44
		c-2.012,2.375-3.18,3.562-3.503,3.562c-0.162,0-0.243-0.061-0.243-0.185c0-0.308,0.275-0.755,0.827-1.341
		c2.822-3.114,4.817-5.751,5.985-7.909c0.746-2.683,1.686-4.024,2.822-4.024c0.746,0,1.119,0.308,1.119,0.925
		c0,0.617-0.406,1.404-1.217,2.359l-1.168,1.48c0,0.648,0.503,0.971,1.508,0.971c0.584,0,1.232-0.2,1.946-0.601l1.265-0.74
		c0.065-0.03,0.227-0.046,0.487-0.046c0.259,0,0.535,0.155,0.827,0.463c0.292,0.308,0.389,0.586,0.292,0.832l-3.358,4.024
		c-2.076,2.528-3.114,4.525-3.114,5.99c0,1.465,0.713,2.197,2.141,2.197c1.492,0,3.325-0.755,5.498-2.266
		c1.297-0.894,2.482-1.896,3.552-3.006c1.005-1.11,1.557-1.665,1.654-1.665c0.227,0,0.341,0.116,0.341,0.347
		s-0.146,0.502-0.438,0.809l-1.557,1.665c-0.876,0.864-1.849,1.696-2.92,2.497C399.343,30.311,397.234,31.22,395.58,31.22z
		 M417.525,16.096l7.006-0.093c0.098,0.062,0.147,0.109,0.147,0.139c0,0.277-2.02,0.663-6.059,1.156
		c-4.039,0.493-6.221,0.786-6.545,0.879c-0.616,0.525-1.752,2.089-3.406,4.695c-1.655,2.606-2.482,4.509-2.482,5.712
		c0,1.141,0.827,1.711,2.482,1.711c0.778,0,1.8-0.231,3.065-0.693c1.265-0.463,2.238-0.894,2.919-1.295
		c1.817-1.079,3.763-2.667,5.839-4.764c0.454-0.431,0.762-0.647,0.925-0.647c0.097,0,0.146,0.092,0.146,0.277
		c0,0.185-0.243,0.555-0.73,1.11c-1.687,1.974-3.585,3.562-5.693,4.764c-2.53,1.48-4.947,2.22-7.25,2.22
		c-1.006,0-1.825-0.208-2.457-0.624c-0.633-0.417-0.949-1.256-0.949-2.521c0-1.264,0.584-2.998,1.752-5.203
		c1.168-2.204,2.06-3.846,2.676-4.926c-0.455,0.093-0.844,0.139-1.168,0.139c-0.941,0-1.411-0.354-1.411-1.064
		c0-0.524,0.389-0.894,1.168-1.11c0.097,0,0.243-0.015,0.438-0.046h2.822c0.584-0.709,1.248-1.526,1.995-2.451
		c0.908-1.11,1.524-1.665,1.849-1.665c0.324,0,0.73,0.123,1.217,0.37c0.487,0.247,0.73,0.54,0.73,0.879
		c0,0.34-0.778,1.342-2.335,3.006C415.059,16.081,416.162,16.096,417.525,16.096z M430.808,30.804c-1.914,0-2.87-1.064-2.87-3.192
		c0-1.202,0.446-2.536,1.338-4.001c0.892-1.464,1.987-3.183,3.284-5.157c-4.152,1.974-7.915,4.887-11.288,8.742
		c-1.882,2.683-2.984,4.024-3.309,4.024c-0.94,0-1.411-0.262-1.411-0.786c0-0.277,0.195-0.77,0.584-1.48
		c3.146-5.334,5.53-9.234,7.153-11.702c3.861-5.889,6.585-9.081,8.175-9.574c0.065-0.03,0.129-0.046,0.195-0.046
		c0.421,0,0.714,0.324,0.876,0.971c-0.097,0.647-1.785,2.991-5.061,7.03c-3.405,4.101-5.336,6.784-5.791,8.048
		c1.2-0.832,3.293-2.235,6.278-4.209c3.211-2.128,5.335-3.191,6.374-3.191c1.038,0,1.556,0.386,1.556,1.156
		c0,0.123-0.008,0.208-0.024,0.254c-0.017,0.046-1.143,1.503-3.382,4.371s-3.358,4.98-3.358,6.336c0,0.71,0.275,1.064,0.828,1.064
		c1.751-0.061,4.379-2.065,7.882-6.013c0.293-0.277,0.511-0.416,0.657-0.416s0.219,0.092,0.219,0.277
		c0,0.617-1.606,2.282-4.818,4.995C432.884,29.972,431.522,30.804,430.808,30.804z M453.581,16.974
		c3.633-5.611,6.163-8.418,7.591-8.418c0.227,0,0.543,0.069,0.949,0.208c0.405,0.139,0.608,0.347,0.608,0.625
		c0,0.154-0.081,0.355-0.243,0.601c-2.596,3.023-4.526,5.289-5.791,6.799c-3.828,4.595-5.936,7.894-6.326,9.898
		c-0.097,0.432-0.146,0.864-0.146,1.295c0,1.387,0.6,2.081,1.8,2.081c2.4,0,5.53-2.112,9.392-6.337
		c0.324-0.308,0.6-0.485,0.827-0.532c0.227-0.046,0.341,0.008,0.341,0.162c0,0.155-0.097,0.34-0.292,0.555
		c-3.763,4.286-7.104,6.676-10.023,7.169c-0.163,0.03-0.39,0.046-0.681,0.046c-1.006,0-1.76-0.331-2.263-0.994
		c-0.503-0.662-0.754-1.379-0.754-2.151c0-0.863,0.178-1.819,0.535-2.868l-3.941,3.746c-1.784,1.572-3.187,2.359-4.209,2.359
		c-1.022,0-1.873-0.262-2.554-0.786c-0.811-0.585-1.216-1.403-1.216-2.451c0-2.25,1.654-4.941,4.963-8.071
		c3.309-3.129,6.342-4.694,9.099-4.694c0.908,0,1.54,0.231,1.897,0.693C453.272,16.066,453.418,16.42,453.581,16.974z
		 M439.227,28.537c0,1.11,0.405,1.665,1.216,1.665c1.394,0,3.714-1.819,6.958-5.457c0.584-0.648,2.53-3.068,5.839-7.262
		c-0.227-0.37-0.616-0.555-1.168-0.555c-2.012,0-4.655,1.457-7.931,4.371S439.227,26.626,439.227,28.537z M476.499,17.16
		l0.681-0.139c0.356,0,0.697,0.139,1.022,0.417c0.324,0.277,0.486,0.494,0.486,0.648c0,0.154-1.006,1.642-3.017,4.463
		c-2.012,2.821-3.017,4.787-3.017,5.897c0,0.092,0.016,0.185,0.049,0.278c0.162,0.71,0.518,1.064,1.07,1.064
		c1.687,0,4.769-2.652,9.245-7.956c0.098-0.122,0.211-0.185,0.341-0.185c0.129,0,0.195,0.116,0.195,0.347
		c0,0.231-0.146,0.532-0.438,0.902c-4.153,5.273-7.316,7.909-9.489,7.909c-0.292,0-0.568-0.046-0.827-0.139
		c-1.427-0.524-2.141-1.542-2.141-3.053c0-0.524,0.065-1.048,0.195-1.572l-3.017,2.775c-1.914,1.604-3.301,2.405-4.16,2.405
		c-0.86,0-1.678-0.262-2.457-0.786c-0.876-0.616-1.314-1.434-1.314-2.451c0-2.25,1.654-4.941,4.963-8.071
		c3.309-3.129,6.342-4.694,9.099-4.694c1.07,0,1.783,0.355,2.141,1.064c0.097,0.247,0.177,0.455,0.243,0.624
		C476.418,17.075,476.466,17.16,476.499,17.16z M461.95,28.537c0,1.11,0.405,1.665,1.216,1.665c1.881,0,4.444-1.958,7.688-5.874
		l5.158-6.753c-0.26-0.431-0.681-0.648-1.266-0.648c-1.979,0-4.606,1.457-7.883,4.371S461.95,26.626,461.95,28.537z M477.617,36.355
		c1.557,1.85,2.903,2.775,4.039,2.775c1.849,0,3.844-1.403,5.985-4.209c1.557-2.066,3.082-4.672,4.574-7.817l1.849-4.255
		l-7.153,5.319c-2.206,1.635-3.974,2.452-5.304,2.452c-0.714,0-1.281-0.232-1.703-0.694c-0.422-0.463-0.633-0.987-0.633-1.573
		c0-1.325,1.2-3.507,3.6-6.545c2.401-3.036,4.152-4.555,5.256-4.555c1.102,0,1.654,0.355,1.654,1.064
		c0,0.277-1.435,1.873-4.306,4.787c-2.871,2.914-4.306,4.88-4.306,5.897c0,0.401,0.275,0.601,0.827,0.601
		c1.038,0,3.121-1.157,6.253-3.469c3.13-2.312,5.49-4.224,7.08-5.735c0.356-0.4,0.859-1.002,1.508-1.804
		c0.616-0.678,1.297-1.018,2.044-1.018c0.746,0,1.119,0.34,1.119,1.018c0,0.123-0.73,1.219-2.19,3.284
		c-1.46,2.066-2.222,3.161-2.287,3.284c-1.006,1.85-2.547,4.549-4.623,8.094c-3.147,4.81-6.293,7.216-9.44,7.216
		c-1.038,0-1.946-0.424-2.725-1.272C477.958,38.35,477.585,37.402,477.617,36.355z"/>
	
		<linearGradient id="SVGID_00000043435987402757182470000010167302694450760335_" gradientUnits="userSpaceOnUse" x1="0" y1="17.195" x2="128.7322" y2="17.195">
		<stop  offset="0" style="stop-color:#AA7925"/>
		<stop  offset="0.1749" style="stop-color:#FFF7C5"/>
		<stop  offset="0.2101" style="stop-color:#FFF5C0"/>
		<stop  offset="0.2513" style="stop-color:#FFF1B2"/>
		<stop  offset="0.2954" style="stop-color:#FFE99B"/>
		<stop  offset="0.3413" style="stop-color:#FFDF7A"/>
		<stop  offset="0.3584" style="stop-color:#FFDA6C"/>
		<stop  offset="0.4061" style="stop-color:#DFB856"/>
		<stop  offset="0.4821" style="stop-color:#B28737"/>
		<stop  offset="0.5401" style="stop-color:#966923"/>
		<stop  offset="0.5727" style="stop-color:#8B5E1C"/>
		<stop  offset="0.6232" style="stop-color:#AD7A30"/>
		<stop  offset="0.6881" style="stop-color:#D59B47"/>
		<stop  offset="0.6994" style="stop-color:#C28C40"/>
		<stop  offset="0.7503" style="stop-color:#6F4B20"/>
		<stop  offset="0.7735" style="stop-color:#4E3113"/>
		<stop  offset="0.8542" style="stop-color:#7A5119"/>
		<stop  offset="0.8959" style="stop-color:#8B5E1C"/>
		<stop  offset="1" style="stop-color:#D59B47"/>
	</linearGradient>
	<path fill="url(#SVGID_00000043435987402757182470000010167302694450760335_)" d="M18.031,3.319h6.366v27.752h-6.366V19.368H6.404
		v11.703H0V3.319h6.404v10.788h11.627V3.319z M44.41,3.319l9.911,27.752h-6.747l-1.725-5.375H34.813l-1.725,5.375H27.18
		l9.911-27.752H44.41z M44.332,20.969L40.331,8.5L36.33,20.969H44.332z M77.822,7.684c0.876,1.41,1.315,3.057,1.315,4.936
		c0,1.881-0.458,3.502-1.373,4.86c-0.915,1.36-2.179,2.402-3.792,3.127c-1.614,0.724-3.45,1.086-5.508,1.086h-4.994v9.378h-6.404
		V3.319h11.398c2.135,0,4.008,0.376,5.622,1.125C75.699,5.194,76.945,6.274,77.822,7.684z M72.657,12.62
		c0-1.397-0.426-2.471-1.277-3.221c-0.852-0.748-2.027-1.125-3.526-1.125h-4.384v8.73h4.384c0.966,0,1.811-0.165,2.535-0.496
		c0.725-0.33,1.283-0.825,1.677-1.486C72.459,14.362,72.657,13.562,72.657,12.62z M103.172,7.684
		c0.876,1.41,1.315,3.057,1.315,4.936c0,1.881-0.458,3.502-1.373,4.86c-0.915,1.36-2.179,2.402-3.792,3.127
		c-1.614,0.724-3.45,1.086-5.508,1.086h-4.994v9.378h-6.404V3.319h11.398c2.135,0,4.008,0.376,5.622,1.125
		C101.049,5.194,102.295,6.274,103.172,7.684z M98.006,12.62c0-1.397-0.426-2.471-1.277-3.221c-0.852-0.748-2.027-1.125-3.526-1.125
		h-4.384v8.73h4.384c0.966,0,1.811-0.165,2.535-0.496c0.725-0.33,1.283-0.825,1.677-1.486C97.809,14.362,98.006,13.562,98.006,12.62
		z M128.732,3.319h-6.062l-5.779,12.035l-5.695-12.035h-6.938l9.035,17.713v10.039h6.404v-10.04L128.732,3.319z"/>
	<g>
		
			<linearGradient id="SVGID_00000046306296856553714080000015523430174199060366_" gradientUnits="userSpaceOnUse" x1="137.5889" y1="17.1958" x2="330.2393" y2="17.1958">
			<stop  offset="0" style="stop-color:#AA7925"/>
			<stop  offset="0.1749" style="stop-color:#FFF7C5"/>
			<stop  offset="0.2101" style="stop-color:#FFF5C0"/>
			<stop  offset="0.2513" style="stop-color:#FFF1B2"/>
			<stop  offset="0.2954" style="stop-color:#FFE99B"/>
			<stop  offset="0.3413" style="stop-color:#FFDF7A"/>
			<stop  offset="0.3584" style="stop-color:#FFDA6C"/>
			<stop  offset="0.4061" style="stop-color:#DFB856"/>
			<stop  offset="0.4821" style="stop-color:#B28737"/>
			<stop  offset="0.5401" style="stop-color:#966923"/>
			<stop  offset="0.5727" style="stop-color:#8B5E1C"/>
			<stop  offset="0.6232" style="stop-color:#AD7A30"/>
			<stop  offset="0.6881" style="stop-color:#D59B47"/>
			<stop  offset="0.6994" style="stop-color:#C28C40"/>
			<stop  offset="0.7503" style="stop-color:#6F4B20"/>
			<stop  offset="0.7735" style="stop-color:#4E3113"/>
			<stop  offset="0.8542" style="stop-color:#7A5119"/>
			<stop  offset="0.8959" style="stop-color:#8B5E1C"/>
			<stop  offset="1" style="stop-color:#D59B47"/>
		</linearGradient>
		<path fill="url(#SVGID_00000046306296856553714080000015523430174199060366_)" d="M234.819,32.163
			c-2.698,0-5.137-0.653-7.249-1.94c-2.113-1.29-3.781-3.093-4.959-5.357c-1.174-2.254-1.769-4.834-1.769-7.67
			c0-2.865,0.643-5.47,1.911-7.743c1.272-2.28,3.067-4.075,5.334-5.334c2.259-1.253,4.857-1.889,7.722-1.889
			c2.971,0,5.642,0.662,7.938,1.969c2.31,1.315,4.101,3.192,5.322,5.58l0.317,0.621l-6.569,2.609l-0.258-0.527
			c-0.631-1.286-1.517-2.304-2.633-3.024c-1.11-0.718-2.406-1.082-3.849-1.082c-1.444,0-2.739,0.364-3.849,1.082
			c-1.114,0.718-1.986,1.727-2.593,2.999c-0.617,1.293-0.93,2.772-0.93,4.397c0,1.625,0.338,3.148,1.005,4.527
			c0.659,1.366,1.587,2.462,2.758,3.259c1.159,0.787,2.526,1.186,4.065,1.186c1.155,0,2.245-0.214,3.241-0.636
			c0.977-0.414,1.767-0.986,2.347-1.702c0.559-0.69,0.83-1.427,0.83-2.251v-0.052h-6.442V15.15h13.315v16.556h-6.491v-2.491
			c-0.695,0.607-1.452,1.118-2.263,1.527C239.197,31.685,237.094,32.163,234.819,32.163z M235.811,3.497
			c-2.647,0-5.038,0.582-7.106,1.73c-2.058,1.143-3.687,2.772-4.843,4.843c-1.161,2.082-1.75,4.479-1.75,7.125
			c0,2.63,0.547,5.013,1.625,7.084c1.07,2.058,2.583,3.692,4.495,4.86c1.91,1.164,4.126,1.754,6.588,1.754
			c2.075,0,3.986-0.432,5.681-1.284c1.121-0.565,2.126-1.354,2.99-2.344l1.112-1.275v4.446h3.954V16.419h-10.778v3.496h6.442v1.32
			c0,1.11-0.375,2.137-1.113,3.05c-0.713,0.879-1.668,1.576-2.838,2.071c-1.152,0.489-2.409,0.737-3.735,0.737
			c-1.798,0-3.406-0.474-4.778-1.406c-1.358-0.923-2.431-2.187-3.188-3.756c-0.75-1.552-1.131-3.261-1.131-5.079
			c0-1.815,0.354-3.479,1.054-4.943c0.709-1.487,1.735-2.671,3.049-3.519c1.318-0.852,2.845-1.284,4.537-1.284
			c1.692,0,3.219,0.432,4.538,1.285c1.156,0.747,2.099,1.757,2.809,3.011l4.181-1.661c-1.089-1.874-2.595-3.366-4.484-4.441
			C241.018,4.104,238.559,3.497,235.811,3.497z M206.115,32.163c-2.506,0-4.701-0.479-6.524-1.424
			c-1.846-0.957-3.281-2.345-4.266-4.126c-0.976-1.764-1.471-3.868-1.471-6.254V2.685h7.673v18.094c0,1.64,0.417,2.837,1.273,3.66
			c0.852,0.818,2.069,1.233,3.62,1.233c1.57,0,2.748-0.402,3.599-1.23c0.833-0.812,1.256-2.045,1.256-3.663V2.685h7.139v17.675
			c0,2.384-0.495,4.488-1.471,6.254c-0.986,1.782-2.429,3.171-4.287,4.127C210.82,31.684,208.619,32.163,206.115,32.163z
			 M195.123,3.953v16.406c0,2.169,0.441,4.066,1.312,5.641c0.861,1.558,2.12,2.773,3.739,3.612c1.642,0.851,3.64,1.281,5.941,1.281
			c2.3,0,4.306-0.431,5.961-1.282c1.63-0.839,2.894-2.054,3.756-3.612c0.871-1.575,1.312-3.473,1.312-5.64V3.953h-4.602v16.825
			c0,1.973-0.552,3.511-1.64,4.571c-1.085,1.056-2.594,1.592-4.484,1.592c-1.89,0-3.403-0.535-4.499-1.589
			c-1.103-1.06-1.662-2.599-1.662-4.574V3.953H195.123z M320.806,31.706h-7.675V21.184l-9.327-18.289v6.129h-7.777v22.682h-7.674
			V9.024h-7.738V2.685h31.456l5.298,11.196l5.376-11.196h7.495l-9.434,18.499V31.706z M314.4,30.437h5.136v-9.558l8.633-16.926
			h-4.626l-6.183,12.875l-6.093-12.875h-5.501l8.634,16.926V30.437z M289.622,30.437h5.135V7.755h7.777V3.953h-20.65v3.802h7.738
			V30.437z M278.683,31.706h-7.636V20.002h-10.357v11.704h-7.674V2.685h7.674v10.788h10.357V2.685h7.636V31.706z M272.316,30.437
			h5.097V3.953h-5.097v10.788H259.42V3.953h-5.135v26.483h5.135V18.733h12.896V30.437z M193.978,31.706h-8.11l-1.724-5.375h-10.111
			l-1.725,5.375h-7.271l10.364-29.021h8.213L193.978,31.706z M186.793,30.437h5.385L182.72,3.953h-6.425l-9.458,26.483h4.546
			l1.725-5.375h11.961L186.793,30.437z M163.788,31.706h-6.398l-12.814-16.728v16.728h-6.986V2.685h6.971l12.242,16.021V2.685h6.987
			V31.706z M158.016,30.437h4.504V3.953h-4.45v18.502L143.933,3.953h-5.075v26.483h4.449V11.236L158.016,30.437z M183.958,21.604
			h-9.742l4.871-15.179L183.958,21.604z M175.956,20.335h6.263l-3.131-9.758L175.956,20.335z"/>
	</g>
</g>
</svg>
