<?xml version="1.0" encoding="UTF-8"?>
<svg xmlns="http://www.w3.org/2000/svg"
viewBox="0 0 200 200"
preserveAspectRatio="xMidYMid meet">
<g>
	<circle fill="#E9E9EA" cx="100" cy="100" r="100"/>
	<g>
		<g>
			<path fill="#A53083" d="M167.304,86.441c0.838-15.657-3.689-23.07-19.136-27.965c-10.611-3.362-18.373-8.005-25.229-11.544
				c-4.709-2.425-7.657-7.291-7.626-12.587c0.005-2.375,0.066-4.622,0.066-7.474c-0.001-0.958-0.779-1.734-1.738-1.732
				c-0.366,0.001-0.723,0.117-1.019,0.333c-8.494,6.208-16.752,6.208-25.246,0c-0.774-0.564-1.859-0.394-2.424,0.381
				c-0.216,0.296-0.332,0.653-0.333,1.019c0,2.876,0.062,5.191,0.066,7.474c0.031,5.297-2.916,10.162-7.626,12.587
				c-6.899,3.561-14.632,8.186-25.229,11.544c-15.434,4.89-19.976,12.292-19.136,27.965c0.959,17.878-3.246,33.56-1.099,67.732
				c0.06,0.956,0.883,1.681,1.839,1.621c0.956-0.06,1.681-0.883,1.621-1.839l0,0c-2.147-34.176,2.088-49.283,1.101-67.7
				c-0.774-14.451,3.132-20.169,16.721-24.474c10.946-3.468,18.817-8.179,25.772-11.768c5.867-3.019,9.54-9.077,9.503-15.675
				c-0.002-1.394-0.028-2.952-0.043-4.232c7.24,4.665,16.539,4.665,23.779,0c-0.019,1.544-0.04,2.919-0.043,4.232
				c-0.036,6.597,3.636,12.656,9.503,15.675c7.015,3.621,14.832,8.301,25.772,11.768c13.588,4.305,17.495,10.023,16.721,24.474
				c-0.987,18.408,3.248,33.519,1.1,67.7c-0.06,0.956,0.666,1.779,1.621,1.839c0.037,0.002,0.074,0.003,0.11,0.003
				c0.915-0.001,1.671-0.712,1.728-1.625C170.55,119.986,166.344,104.35,167.304,86.441z"/>
			<path fill="#A53083" d="M97.009,91.751c-0.957,0-1.733,0.776-1.734,1.733c0,0,0,0,0,0c0,27.014-17.532,38.768-31.583,34.735
				l-0.013-0.004c-8.059-2.319-10.709-9.486-11.523-12.898c-2.233-9.36,1.355-19.709,7.997-23.068
				c0.761-0.385,1.129-1.267,0.867-2.079c-0.809-2.44-1.156-5.01-1.024-7.577c0.101-0.952-0.589-1.806-1.541-1.907
				c-0.952-0.101-1.806,0.589-1.907,1.541c-0.169,2.575,0.093,5.16,0.776,7.648c-7.299,4.647-11.027,15.82-8.54,26.246
				c1.121,5.467,4.4,10.25,9.095,13.267c-0.245,8.946-4.001,14.101-4.001,25.332c0,0.957,0.776,1.734,1.734,1.734
				c0.957,0,1.734-0.776,1.734-1.734c0-10.118,3.313-15.06,3.923-23.674c0.191,0.072,0.385,0.139,0.579,0.205
				c0.972,2.846,2.158,5.614,3.547,8.281c1.553,2.857,1.548,6.307-0.013,9.159c-0.977,1.734-2.139,3.357-3.464,4.841
				c-0.652,0.701-0.612,1.798,0.089,2.45c0.696,0.647,1.782,0.614,2.437-0.075c1.522-1.689,2.852-3.542,3.965-5.525
				c2.135-3.892,2.147-8.603,0.031-12.506c-0.969-1.838-1.821-3.735-2.553-5.68c15.942,2.193,32.856-11.442,32.856-38.714
				C98.742,92.527,97.966,91.751,97.009,91.751C97.009,91.751,97.009,91.751,97.009,91.751z"/>
			<path fill="#A53083" d="M57.052,113.559c0.045,2.881,2.417,5.18,5.298,5.135c2.881-0.045,5.18-2.417,5.135-5.298
				c-0.045-2.849-2.367-5.135-5.216-5.135C59.366,108.287,57.032,110.657,57.052,113.559z M62.268,111.727
				c1.012-0.047,1.87,0.735,1.917,1.747c0.047,1.012-0.735,1.87-1.747,1.917c-1.012,0.047-1.87-0.735-1.917-1.747
				c-0.001-0.028-0.002-0.057-0.002-0.085C60.498,112.571,61.28,111.752,62.268,111.727z"/>
			<path fill="#A53083" d="M144.103,113.559c-0.045-2.881-2.418-5.18-5.298-5.134c-2.881,0.045-5.18,2.418-5.134,5.298
				c0.045,2.849,2.367,5.135,5.216,5.135C141.789,118.832,144.122,116.461,144.103,113.559z M137.137,113.559
				c0.045-0.966,0.864-1.713,1.83-1.668c0.966,0.045,1.713,0.864,1.668,1.83c-0.043,0.935-0.814,1.67-1.749,1.67
				C137.898,115.367,137.116,114.547,137.137,113.559L137.137,113.559z"/>
			<path fill="#A53083" d="M143.813,89.877c0.683-2.488,0.945-5.073,0.776-7.648c-0.102-0.952-0.957-1.641-1.909-1.539
				s-1.641,0.957-1.539,1.909c0.14,2.566-0.208,5.136-1.025,7.573c-0.262,0.812,0.106,1.693,0.867,2.079
				c6.642,3.359,10.229,13.707,7.997,23.068c-5.478,22.965-43.118,17.964-43.118-21.834c0-0.957-0.776-1.734-1.734-1.734
				s-1.734,0.776-1.734,1.734c0,27.318,16.952,40.9,32.857,38.714c-0.731,1.945-1.584,3.842-2.553,5.68
				c-2.116,3.903-2.104,8.614,0.031,12.506c1.113,1.983,2.443,3.836,3.965,5.526c0.66,0.694,1.757,0.721,2.451,0.061
				c0.688-0.655,0.722-1.741,0.075-2.437c-1.327-1.483-2.489-3.106-3.464-4.841c-1.589-2.858-1.587-6.334,0.004-9.19
				c1.392-2.653,2.572-5.412,3.529-8.25c0.195-0.066,0.388-0.133,0.579-0.205c0.608,8.589,3.923,13.588,3.923,23.674
				c0,0.957,0.776,1.734,1.734,1.734c0.957,0,1.734-0.776,1.734-1.734c0-11.25-3.756-16.381-4.001-25.332
				c4.695-3.017,7.974-7.8,9.095-13.267C154.84,105.697,151.112,94.524,143.813,89.877z"/>
		</g>
		<g>
			<g>
				<path fill="#A53083" d="M109.001,85.096c-1.94,0-3.705-0.782-4.843-2.146c-0.854-1.022-1.759-2.861-1.222-5.816
					c0.896-4.93,5.144-10.461,5.324-10.694c0.172-0.224,0.442-0.353,0.739-0.353c0.297,0,0.566,0.129,0.74,0.354
					c0.18,0.232,4.43,5.766,5.325,10.693c0.538,2.953-0.367,4.793-1.22,5.816C112.708,84.314,110.942,85.096,109.001,85.096z
					 M109.001,68.61c-1.181,1.713-3.63,5.567-4.228,8.858c-0.322,1.776-0.04,3.258,0.818,4.286c0.781,0.937,2.023,1.475,3.409,1.475
					c1.385,0,2.628-0.538,3.411-1.475c0.858-1.03,1.141-2.512,0.819-4.286C112.631,74.183,110.182,70.326,109.001,68.61z"/>
			</g>
			<g>
				<path fill="#A53083" d="M109.569,81.639c-0.031,0-0.066-0.001-0.1-0.005c-1.006-0.104-1.879-0.539-2.454-1.224
					c-0.931-1.114-0.885-2.668-0.683-3.774c0.083-0.457,0.21-0.953,0.378-1.474c0.123-0.386,0.479-0.647,0.886-0.647
					c0.098,0,0.196,0.016,0.29,0.046c0.486,0.155,0.757,0.681,0.6,1.172c-0.143,0.444-0.249,0.859-0.317,1.235
					c-0.183,1.011-0.084,1.808,0.279,2.244c0.259,0.31,0.691,0.51,1.217,0.565c0.513,0.054,0.886,0.514,0.832,1.025
					C110.449,81.278,110.05,81.639,109.569,81.639z"/>
			</g>
			<g>
				<path fill="#A53083" d="M91.001,80.303c-1.94,0-3.705-0.782-4.843-2.146c-0.854-1.022-1.76-2.861-1.222-5.816
					c0.897-4.926,5.146-10.461,5.326-10.694c0.18-0.231,0.449-0.363,0.739-0.363c0.289,0,0.567,0.137,0.741,0.366
					c0.18,0.235,4.44,5.831,5.324,10.691c0.536,2.957-0.369,4.795-1.222,5.816C94.705,79.521,92.94,80.303,91.001,80.303z
					 M91.001,63.818c-1.182,1.716-3.631,5.574-4.228,8.859c-0.322,1.775-0.04,3.258,0.818,4.286c0.782,0.937,2.025,1.475,3.41,1.475
					c1.385,0,2.628-0.538,3.411-1.475c0.857-1.028,1.14-2.51,0.818-4.286C94.631,69.39,92.182,65.533,91.001,63.818z"/>
			</g>
			<g>
				<path fill="#A53083" d="M91.572,76.848c-0.031,0-0.065-0.001-0.1-0.005c-1.009-0.104-1.882-0.539-2.455-1.225
					c-0.93-1.116-0.884-2.668-0.683-3.773c0.081-0.45,0.208-0.946,0.377-1.473c0.124-0.387,0.481-0.647,0.889-0.647
					c0.096,0,0.192,0.015,0.284,0.044c0.49,0.157,0.76,0.683,0.604,1.173c-0.143,0.441-0.25,0.856-0.319,1.236
					c-0.106,0.585-0.212,1.654,0.279,2.243c0.259,0.31,0.691,0.51,1.217,0.565c0.512,0.055,0.885,0.513,0.834,1.023
					C92.453,76.487,92.054,76.848,91.572,76.848z"/>
			</g>
			<g>
				<path fill="#A53083" d="M101.353,64.196c-1.939,0-3.704-0.782-4.843-2.146c-0.854-1.022-1.76-2.861-1.222-5.816
					c0.895-4.921,5.143-10.461,5.324-10.694c0.173-0.224,0.442-0.353,0.739-0.353c0.297,0,0.566,0.129,0.74,0.354
					c0.459,0.604,4.465,5.976,5.323,10.695c0.538,2.955-0.367,4.793-1.22,5.815c-1.137,1.363-2.899,2.145-4.835,2.145
					C101.36,64.196,101.353,64.196,101.353,64.196z M101.352,47.711c-1.182,1.715-3.631,5.574-4.228,8.859
					c-0.322,1.776-0.04,3.258,0.818,4.286c0.782,0.937,2.025,1.475,3.41,1.475c1.385,0,2.628-0.538,3.41-1.475
					c0.857-1.028,1.14-2.51,0.818-4.286C104.981,53.283,102.533,49.426,101.352,47.711z"/>
			</g>
			<g>
				<path fill="#A53083" d="M101.923,60.743c-0.031,0-0.065-0.001-0.1-0.005c-1.007-0.102-1.881-0.537-2.455-1.225
					c-0.93-1.116-0.884-2.668-0.683-3.773c0.082-0.454,0.209-0.95,0.377-1.473c0.124-0.387,0.481-0.647,0.888-0.647
					c0.096,0,0.192,0.015,0.284,0.044c0.489,0.156,0.76,0.682,0.604,1.173c-0.143,0.439-0.25,0.854-0.319,1.235
					c-0.183,1.012-0.084,1.808,0.279,2.243c0.259,0.31,0.692,0.511,1.217,0.565c0.51,0.051,0.884,0.51,0.834,1.022
					C102.803,60.382,102.405,60.743,101.923,60.743z"/>
			</g>
		</g>
	</g>
</g>
</svg>
