<?xml version="1.0" encoding="UTF-8"?>
<svg xmlns="http://www.w3.org/2000/svg"
viewBox="0 0 200 200"
preserveAspectRatio="xMidYMid meet">
<g>
	<circle fill="#E9E9EA" cx="100" cy="100" r="100"/>
	<g>
		<path fill="#A53083" d="M87.642,82.05c-0.851-4.279-3.982-9.159-9.059-14.204c-0.125,0.461-0.293,0.924-0.519,1.389
			c1.77,1.419,5.432,4.853,5.8,9.198c0.213,2.503-0.68,4.87-2.654,7.053c0.298,0.461,0.587,1.001,0.839,1.593
			C84.314,86.254,88.126,84.485,87.642,82.05z"/>
		<path fill="#A53083" d="M63.141,69.121c-3.992,5.952-6.107,11.355-6.107,15.718c0,2.465,4.031,3.446,6.417,3.81
			c0.135-0.63,0.325-1.218,0.54-1.736c-2.346-1.741-3.677-3.877-3.961-6.36c-0.495-4.34,2.433-8.44,3.893-10.184
			C63.612,69.96,63.357,69.544,63.141,69.121z"/>
		<path fill="#A53083" d="M92.031,90.527c4.463-1.039,6.844-1.58,7.969-1.58s3.507,0.541,7.969,1.58
			c2.72,0.633,5.999,1.395,9.502,2.12c-0.298-1.075-0.332-2.137-0.198-3.133c-5.34-1.884-8.022-4.75-7.385-7.954
			c1.054-5.306,4.891-11.051,11.388-17.078c0.416-2.426,1.85-4.684,3.445-6.533c-5.465,2.618-12.807,7.467-14.906,15.236
			c-3.715,13.739-8.917,14.342-9.798,14.342c-0.053,0-0.079,0-0.136,0c-0.778,0-5.981-0.603-9.696-14.342
			c-2.1-7.769-9.441-12.618-14.906-15.236c1.595,1.848,3.03,4.106,3.445,6.533c6.496,6.026,10.334,11.772,11.388,17.078
			c0.637,3.205-2.044,6.07-7.385,7.954c0.136,0.996,0.101,2.056-0.198,3.132C86.032,91.922,89.311,91.16,92.031,90.527z"/>
		<path fill="#A53083" d="M81.357,78.646c-0.378-4.442-5.584-7.989-5.637-8.025c-0.574-0.385-0.729-1.162-0.349-1.739
			c3.37-5.102-3.416-11.006-5.913-12.929c-2.012,2.331-7.243,9.218-2.962,13.537c0.486,0.49,0.486,1.281,0.001,1.772
			c-0.044,0.045-4.474,4.592-3.963,9.009c0.23,1.997,1.49,3.73,3.74,5.15c0.575,0.363,0.759,1.117,0.414,1.704
			c-0.142,0.246-0.787,1.447-0.918,2.953c0,0.035,0.014,0.067,0.01,0.103c-0.004,0.033-0.021,0.059-0.028,0.092
			c-0.082,1.491,0.388,3.242,2.321,4.675c3.716-0.345,7.667-0.978,11.472-1.707c2.057-3.441-0.812-6.898-0.941-7.049
			c-0.434-0.509-0.397-1.271,0.087-1.731C80.631,82.615,81.528,80.658,81.357,78.646z"/>
		<path fill="#A53083" d="M130.543,55.955c-2.497,1.923-9.283,7.826-5.913,12.929c0.38,0.577,0.224,1.351-0.348,1.738
			c-0.053,0.035-5.27,3.608-5.639,8.032c-0.169,2.01,0.728,3.963,2.663,5.806c0.487,0.463,0.524,1.226,0.084,1.735
			c-0.126,0.147-2.996,3.605-0.938,7.046c3.804,0.729,7.755,1.364,11.471,1.709c1.934-1.433,2.404-3.186,2.322-4.677
			c-0.006-0.031-0.024-0.058-0.026-0.091c-0.004-0.035,0.01-0.067,0.01-0.102c-0.13-1.508-0.777-2.711-0.92-2.959
			c-0.339-0.586-0.156-1.339,0.417-1.699c2.25-1.419,3.509-3.152,3.74-5.15c0.51-4.417-3.919-8.964-3.963-9.009
			c-0.485-0.491-0.485-1.282,0.001-1.772C137.785,65.173,132.555,58.284,130.543,55.955z"/>
		<path fill="#A53083" d="M97.333,54.248h5.334c1.166-5.316,6.001-25.347,13.351-29.122l-1.176-1.186
			c-10.556,3.849-13.563,24.084-13.595,24.31c-0.088,0.621-0.62,1.082-1.247,1.082s-1.158-0.461-1.247-1.082
			C98.717,48,95.049,23.309,81.573,23.309c-0.212,0-0.413,0.029-0.621,0.044l1.194,1.204C90.525,25.572,96.073,48.502,97.333,54.248
			z"/>
		<path fill="#A53083" d="M136.009,86.911c0.215,0.52,0.405,1.107,0.54,1.736c2.386-0.364,6.417-1.345,6.417-3.81
			c0-4.363-2.115-9.766-6.107-15.718c-0.215,0.423-0.472,0.84-0.783,1.247c1.461,1.744,4.387,5.844,3.893,10.184
			C139.685,83.036,138.355,85.17,136.009,86.911z"/>
		<path fill="#A53083" d="M100.003,85.009c0.018-0.001,1.009-0.097,2.397-1.618c-1.971-11.221-0.732-22.634-0.179-26.625h-4.437
			c0.574,4.01,1.87,15.485-0.099,26.712C99.029,84.909,99.982,85.009,100.003,85.009z"/>
		<path fill="#A53083" d="M135.814,53.738c-0.115-0.167-0.185-0.359-0.21-0.56c-0.035-0.298-3.72-29.869-17.176-29.869
			c-0.214,0-0.419,0.024-0.628,0.037l1.522,1.535c0.013,0.013,0.016,0.03,0.029,0.044c0.01,0.011,0.026,0.016,0.037,0.028
			c0.298,0.351,7.022,8.497,8.696,28.841c1.292-0.46,2.148-0.699,2.303-0.74c0.004-0.001,0.009,0,0.013-0.001
			c0.151-0.039,0.306-0.048,0.458-0.03c0.055,0.006,0.105,0.03,0.159,0.044c0.096,0.024,0.188,0.049,0.276,0.094
			c0.057,0.03,0.103,0.072,0.156,0.11c0.053,0.039,0.112,0.064,0.16,0.112c0.334,0.336,6.345,6.502,6.084,12.515
			c5.165,7.172,7.794,13.545,7.794,18.941c0,3.261-3.169,5.538-8.745,6.332c-0.091,1.339-0.52,2.727-1.477,4.009
			c5.188,0.218,9.608-0.317,12.024-2.235c1.224-0.975,1.821-2.275,1.821-3.978C149.108,73.438,135.947,53.934,135.814,53.738z"/>
		<path fill="#A53083" d="M118.789,85.485c-1.974-2.181-2.867-4.549-2.654-7.053c0.368-4.347,4.029-7.779,5.8-9.198
			c-0.225-0.463-0.393-0.927-0.519-1.389c-5.077,5.046-8.207,9.925-9.059,14.204c-0.484,2.435,3.328,4.203,5.593,5.028
			C118.203,86.486,118.491,85.947,118.789,85.485z"/>
		<path fill="#A53083" d="M64.738,95.178c-0.957-1.282-1.386-2.669-1.477-4.008c-5.576-0.795-8.745-3.072-8.745-6.332
			c0-5.394,2.629-11.768,7.794-18.941c-0.262-6.014,5.749-12.179,6.084-12.515c0.05-0.05,0.113-0.079,0.169-0.12
			c0.048-0.034,0.089-0.073,0.141-0.099c0.096-0.05,0.198-0.079,0.301-0.103c0.045-0.011,0.087-0.031,0.135-0.037
			c0.154-0.018,0.31-0.01,0.462,0.029c0.004,0.001,0.009,0,0.013,0.001c0.155,0.042,1.012,0.28,2.303,0.74
			c1.379-16.77,6.186-25.248,8.002-27.905l-1.832-1.848c-10.857,4.656-14.882,30.135-14.926,30.418
			c-0.026,0.18-0.093,0.353-0.194,0.504c-0.121,0.184-12.076,18.467-12.076,34.004c0,1.702,0.597,3.003,1.822,3.978
			C55.129,94.861,59.549,95.397,64.738,95.178z"/>
		<path fill="#A53083" d="M111.185,119.073c-0.121-0.394-0.04-0.824,0.217-1.148c0.256-0.324,0.662-0.499,1.067-0.476
			c16.649,1.056,28.933-4.309,31.831-5.713v-5.093c-6.018,1.301-28.36,5.888-44.195,5.888s-38.176-4.587-44.195-5.888v5.093
			c2.899,1.404,15.187,6.763,31.831,5.713c0.417-0.023,0.811,0.152,1.067,0.476c0.257,0.324,0.337,0.753,0.217,1.148
			c-0.212,0.695-5.294,17.001-14.717,17.001c-6.997,0-16.913-3.105-20.854-4.441v6.132c2.799,1.394,14.094,6.549,24.291,4.49
			c0.536-0.107,1.085,0.145,1.351,0.627c0.489,0.886,11.532,21.071,12.388,33.8c2.097-0.371,5.985-0.993,8.517-0.993
			c2.549,0,6.582,0.631,8.725,1.001c0.854-12.729,11.9-32.922,12.389-33.809c0.264-0.482,0.816-0.734,1.351-0.627
			c10.198,2.055,21.492-3.096,24.291-4.49v-6.132c-3.941,1.336-13.857,4.441-20.853,4.441
			C116.479,136.076,111.397,119.768,111.185,119.073z M88.989,135.628l4.913-13.631c0.18-0.499,0.654-0.832,1.184-0.832h9.828
			c0.531,0,1.005,0.332,1.184,0.832l4.915,13.631c0.139,0.387,0.082,0.815-0.154,1.151s-0.62,0.535-1.03,0.535H90.172
			c-0.41,0-0.795-0.2-1.03-0.535S88.85,136.014,88.989,135.628z M113.473,145.146c-0.074,0.209-7.301,20.934-7.301,26.847
			c0,0.695-0.563,1.259-1.259,1.259h-9.828c-0.696,0-1.259-0.564-1.259-1.259c0-5.913-7.226-26.638-7.301-26.847
			c-0.133-0.385-0.074-0.812,0.162-1.145c0.237-0.332,0.618-0.53,1.026-0.53h24.569c0.408,0,0.791,0.198,1.026,0.53
			C113.545,144.334,113.608,144.761,113.473,145.146z"/>
		<polygon fill="#A53083" points="104.029,123.683 95.971,123.683 91.965,134.797 108.035,134.797 		"/>
		<path fill="#A53083" d="M96.274,170.734h7.452c0.623-6.205,5.159-19.935,6.795-24.744h-21.04
			C91.115,150.798,95.651,164.528,96.274,170.734z"/>
	</g>
</g>
</svg>
