<?xml version="1.0" encoding="UTF-8"?>
<svg xmlns="http://www.w3.org/2000/svg"
viewBox="0 0 200 200"
preserveAspectRatio="xMidYMid meet">
<circle fill="#E9E9EA" cx="100.5" cy="99.39" r="100"/>
<g>
	<path fill="#A53083" d="M108.285,113.63c0.168,0,0.168,0,0.335,0c3.518,2.345,7.706,3.853,12.23,3.853c0.67,0,1.34-0.503,1.34-1.34
		c0-0.838-0.503-1.34-1.34-1.34c-10.387,0-18.931-8.544-18.931-18.931V81.799c0-0.67-0.503-1.34-1.34-1.34
		c-0.67,0-1.34,0.503-1.34,1.34v14.072c0,10.387-8.544,18.931-18.931,18.931c-0.67,0-1.34,0.503-1.34,1.34
		c0,0.838,0.503,1.34,1.34,1.34c4.523,0,8.711-1.508,12.23-3.853c0.168,0,0.168,0,0.335,0c2.848,0,5.863,7.036,6.366,16.753h-31.16
		c-6.534-7.706-10.052-17.423-10.052-27.475c0-13.737,6.366-31.663,15.58-44.73h54.447c8.041,11.392,13.905,26.469,15.245,39.202
		c0.838,0.168,1.675,0.335,2.513,0.67c-1.173-12.9-6.869-28.145-14.743-39.872h28.145c1.34,0,2.513,1.173,2.513,2.513v46.405
		l5.026,2.848V60.691c0-4.188-3.351-7.539-7.539-7.539H42.279c-4.188,0-7.539,3.351-7.539,7.539v67.179
		c0,4.188,3.351,7.539,7.539,7.539h86.277v-5.026h-26.637C102.422,120.666,105.437,113.63,108.285,113.63z M42.279,130.383
		c-1.34,0-2.513-1.173-2.513-2.513V60.691c0-1.34,1.173-2.513,2.513-2.513h28.145c-8.879,13.235-14.91,31.16-14.91,44.73
		c0,10.052,3.351,19.601,9.214,27.475H42.279z M101.919,105.923c0.838,1.508,1.675,2.848,2.848,4.021
		c-0.335,0.335-1.005,0.67-1.675,0.67c-0.503,0-0.838-0.168-1.173-0.335V105.923z M99.406,105.923v4.356
		c-0.335,0.168-0.838,0.335-1.173,0.335c-0.67,0-1.173-0.335-1.675-0.67C97.563,108.771,98.568,107.431,99.406,105.923z
		 M96.893,112.96c0.335,0.168,0.838,0.168,1.34,0.168c0.838,0,1.843-0.168,2.513-0.67c0.67,0.503,1.675,0.67,2.513,0.67
		c0.503,0,0.838,0,1.34-0.168c-1.675,1.843-3.016,4.858-3.853,8.544C99.741,117.985,98.568,114.97,96.893,112.96z"/>
	<path fill="#A53083" d="M170.271,120.833l-26.469-15.245c-0.838-0.503-1.675-0.67-2.513-0.67c-2.68,0-5.026,2.178-5.026,5.026
		v30.658c0,3.016,2.345,5.026,5.026,5.026c0.838,0,1.675-0.168,2.513-0.67l26.469-15.413
		C173.621,127.702,173.621,122.844,170.271,120.833z"/>
</g>
</svg>
