<?xml version="1.0" encoding="UTF-8"?>
<svg xmlns="http://www.w3.org/2000/svg"
viewBox="0 0 200 200"
preserveAspectRatio="xMidYMid meet">
<g>
	<circle fill="#FFFFFF" cx="100" cy="100" r="100"/>
	<g>
		<path fill="#653489" d="M26.377,112.553c0-23.251,14.508-53.209,55.92-66.903l0.422,1.427
			C60.886,56.919,49.477,76.89,44.97,96.291c3.38-6.848,10.142-13.409,22.255-13.409c18.171,0,32.538,12.553,32.538,33.809
			c0,22.538-16.198,37.66-36.199,37.66C40.885,154.351,26.377,135.805,26.377,112.553z M83.423,118.972
			c0-21.968-8.31-30.242-20.425-30.242c-7.887,0-15.212,3.139-18.733,11.128c-1.127,5.563-1.55,10.841-1.55,15.977
			c0,18.544,5.775,35.663,20.847,35.663C75.958,151.497,83.423,140.228,83.423,118.972z"/>
		<path fill="#653489" d="M117.281,152.924c21.129-10.271,32.82-29.529,37.609-48.788c-3.521,6.848-10.564,12.982-22.819,12.982
			c-17.466,0-31.833-12.553-31.833-33.809c0-22.539,16.058-37.66,36.341-37.66c22.114,0,37.044,18.687,37.044,41.797
			c0,23.253-14.508,53.209-55.919,66.904L117.281,152.924z M155.735,100.428c0.985-5.849,1.55-11.27,1.55-16.405
			c0-18.26-5.634-35.52-20.706-35.52c-12.396,0-20.002,11.27-20.002,32.239c0,22.254,8.31,30.527,20.566,30.527
			C144.889,111.269,151.931,107.988,155.735,100.428z"/>
		<path fill="#653489" d="M63.726,113.485c0,0,0.357-5.424,6.07-5.304c1.082,0.023,2.336,0.92,3.047,1.655
			c2.201,2.275,1.985,5.702,1.395,8.583c-0.366,1.791-1.123,3.104-2.079,4.615c-0.669,1.057-1.361,2.101-2.073,3.129
			c-1.584,2.284-3.74,4.408-5.003,6.877c-0.633,1.238-1.247,2.858-1.06,4.293c-0.273-2.094-1.322-4.095-2.435-5.825
			c-0.988-1.535-2.447-2.639-3.753-3.873c-1.34-1.266-2.487-2.789-3.52-4.318c-2.163-3.204-3.826-7.274-2.091-11.062
			c1.354-2.955,4.154-5.026,7.395-3.833C62.893,109.628,63.726,113.485,63.726,113.485z"/>
		<path fill="#653489" d="M137.587,70.665c0,0,0.357-5.424,6.07-5.304c1.082,0.023,2.336,0.92,3.047,1.655
			c2.201,2.275,1.985,5.702,1.395,8.583c-0.366,1.791-1.123,3.104-2.079,4.615c-0.669,1.057-1.361,2.101-2.073,3.129
			c-1.584,2.284-3.74,4.408-5.003,6.877c-0.633,1.238-1.247,2.858-1.06,4.293c-0.273-2.094-1.322-4.095-2.435-5.825
			c-0.988-1.535-2.447-2.639-3.753-3.873c-1.34-1.266-2.487-2.789-3.52-4.318c-2.163-3.204-3.826-7.274-2.091-11.062
			c1.354-2.955,4.154-5.026,7.395-3.833C136.754,66.808,137.587,70.665,137.587,70.665z"/>
	</g>
</g>
</svg>
