<?xml version="1.0" encoding="UTF-8"?>
<svg xmlns="http://www.w3.org/2000/svg"
viewBox="0 0 200 200"
preserveAspectRatio="xMidYMid meet">
<g>
	<circle fill="#FFFFFF" cx="100.5" cy="100.39" r="100"/>
	<path fill-rule="evenodd" clip-rule="evenodd" fill="#653489" d="M141.529,87.333c-0.264-0.072-0.539-0.144-0.803-0.21
		c-11.276-2.846-25.176-3.511-40.227-3.511s-28.951,0.665-40.227,3.511c-10.641,2.69-18.987,7.352-24.007,14.991
		c-3.367,5.129-5.267,11.611-5.267,19.845c0,11.066,5.422,23.451,13.625,31.575c5.638,5.596,12.582,9.167,19.927,9.167
		c9.203,0,14.553-5.698,19.779-11.594c4.338-4.889,8.55-9.976,16.171-9.976c7.621,0,11.833,5.087,16.171,9.976
		c5.225,5.896,10.575,11.594,19.779,11.594c7.346,0,14.29-3.571,19.927-9.167c8.202-8.124,13.625-20.509,13.625-31.575
		c0-8.232-1.899-14.715-5.267-19.845c-3.05-4.637-7.322-8.178-12.594-10.845c-33.678-37.123-75.505-38.813-75.505-38.813
		c-1.324-0.054-2.438,0.971-2.492,2.295c-0.054,1.324,0.971,2.438,2.295,2.492c0,0,34.41,1.54,65.097,30.083L141.529,87.333z
		 M100.5,136.337c-9.191,0-14.529,5.698-19.76,11.594c-4.332,4.889-8.55,9.976-16.189,9.976c-6.123,0-11.851-3.115-16.555-7.777
		c-7.322-7.256-12.205-18.292-12.205-28.172c0-7.13,1.558-12.774,4.482-17.208c4.404-6.71,11.833-10.617,21.174-12.977
		c10.94-2.768,24.446-3.367,39.053-3.367s28.112,0.599,39.053,3.367c9.341,2.361,16.777,6.273,21.18,12.977
		c2.918,4.434,4.476,10.078,4.476,17.208c0,9.88-4.883,20.917-12.205,28.172c-4.703,4.661-10.431,7.777-16.555,7.777
		c-7.639,0-11.857-5.087-16.189-9.976C115.029,142.034,109.691,136.337,100.5,136.337L100.5,136.337z M55.085,125.642l-1.809,1.809
		c-0.935,0.935-0.935,2.457,0,3.391c0.935,0.935,2.457,0.935,3.391,0l2.097-2.097c1.923,1.324,3.864,2.175,5.788,2.558v2.636
		c0,1.324,1.072,2.397,2.397,2.397c1.324,0,2.397-1.072,2.397-2.397v-2.636c1.923-0.383,3.858-1.234,5.794-2.558l2.097,2.097
		c0.935,0.935,2.457,0.935,3.391,0c0.935-0.935,0.935-2.457,0-3.391l-1.809-1.809c0.653-0.659,1.3-1.372,1.953-2.139
		c0.851-1.013,0.719-2.522-0.288-3.379c-1.019-0.851-2.534-0.719-3.385,0.288c-3.421,4.062-6.728,6.339-10.15,6.339
		c-3.421,0-6.728-2.277-10.15-6.339c-0.851-1.013-2.367-1.138-3.379-0.288c-1.013,0.851-1.138,2.367-0.288,3.379
		C53.779,124.27,54.432,124.989,55.085,125.642L55.085,125.642z M122.19,125.642l-1.809,1.809c-0.935,0.935-0.935,2.457,0,3.391
		c0.935,0.935,2.457,0.935,3.391,0l2.097-2.097c1.923,1.324,3.864,2.175,5.788,2.558v2.636c0,1.324,1.072,2.397,2.397,2.397
		c1.324,0,2.397-1.072,2.397-2.397v-2.636c1.923-0.383,3.858-1.234,5.794-2.558l2.097,2.097c0.935,0.935,2.457,0.935,3.391,0
		c0.935-0.935,0.935-2.457,0-3.391l-1.809-1.809c0.653-0.659,1.3-1.372,1.953-2.139c0.851-1.013,0.719-2.522-0.288-3.379
		c-1.019-0.851-2.534-0.719-3.385,0.288c-3.421,4.062-6.728,6.339-10.15,6.339c-3.421,0-6.728-2.277-10.15-6.339
		c-0.851-1.013-2.367-1.138-3.379-0.288c-1.013,0.851-1.138,2.367-0.288,3.379C120.883,124.27,121.536,124.989,122.19,125.642
		L122.19,125.642z M55.025,43.96c-0.036,0.216-0.06,0.737-0.06,0.779c0,5.255,0.839,8.484,1.582,11.384
		c0.635,2.486,1.198,4.685,0.833,8.059c-0.144,1.318,0.803,2.498,2.121,2.642c1.318,0.144,2.498-0.803,2.642-2.121
		c0.449-4.086-0.18-6.758-0.953-9.766c-0.126-0.497-0.258-1.007-0.383-1.534c2.211,1.947,4.769,3.918,7.01,5.716
		c1.534,1.228,2.409,2.241,2.367,3.361c-0.048,1.168-0.995,2.193-2.325,3.355c-3.787,3.307-10.737,6.704-18.783,10.851
		c-18.628,9.598-25.267,27.345-25.267,35.686c0,1.324,1.072,2.397,2.397,2.397c1.324,0,2.397-1.072,2.397-2.397
		c0-7.393,6.165-22.917,22.665-31.419c6.716-3.463,12.678-6.453,16.812-9.269c1.019-0.695,1.935-1.384,2.732-2.073
		c-0.21,3.625-1.51,7.34-3.463,10.281c-0.731,1.102-0.437,2.588,0.665,3.325c1.102,0.731,2.588,0.437,3.325-0.665
		c3.152-4.727,4.871-11.084,4.122-16.722l-0.497-3.667c-0.084-2.145-1.252-4.452-4.152-6.782c-3.08-2.475-6.842-5.267-9.233-7.849
		c-0.659-0.707-1.21-1.39-1.558-2.049c-0.114-0.216-0.234-0.407-0.264-0.599c0-0.15,0.084-0.258,0.306-0.395
		c0.377-0.252,0.887-0.461,1.528-0.653c2.121-0.635,5.398-0.965,10.15-0.965c33.019,0,62.749,16.86,81.257,35.434
		c12.043,12.091,19.4,24.823,19.4,34.068c0,1.324,1.072,2.397,2.397,2.397c1.324,0,2.397-1.072,2.397-2.397
		c0-10.102-7.639-24.242-20.797-37.447c-19.274-19.352-50.263-36.847-84.653-36.847c-6.579,0-10.689,0.683-13.02,1.708
		c-2.438,1.072-3.439,2.606-3.697,4.176L55.025,43.96z"/>
</g>
</svg>
