<?xml version="1.0" encoding="UTF-8"?>
<svg xmlns="http://www.w3.org/2000/svg"
viewBox="0 0 200 200"
preserveAspectRatio="xMidYMid meet">
<g>
	<circle fill="#FFFFFF" cx="100" cy="100" r="100"/>
	<g>
		<path fill="#653489" d="M157.219,42.783c-8.392-8.393-15.875-14.505-23.778-6.602L90.5,79.107
			c-4.406,4.406-10.783,31.039-10.783,31.039v0.013l-38.969,38.969c-2.797,2.797-2.804,7.33,0,10.126
			c2.797,2.797,7.33,2.797,10.127,0l38.968-38.968h0.008c0,0,26.631-6.386,31.037-10.791l42.933-42.934
			C171.724,58.658,165.611,51.176,157.219,42.783z M102.578,89.423c1.008,1.014,1.574,2.231,1.707,3.644
			c0.077,1.036-0.189,2.155-0.791,3.378c1.287-0.574,2.448-0.811,3.476-0.713c1.385,0.118,2.58,0.692,3.601,1.713
			c1.021,1.021,1.566,2.169,1.651,3.463c0.085,1.294-0.321,2.383-1.223,3.279c-0.481,0.489-1.055,0.868-1.713,1.155
			c-0.664,0.287-1.497,0.489-2.489,0.623c-0.602,0.09-2.12,0.216-4.533,0.384c-3.301,0.231-5.624,0.484-6.994,0.791
			c-1.37,0.302-2.673,0.784-3.916,1.448c0.635-1.21,1.118-2.517,1.411-3.916c0.378-1.77,0.645-4.246,0.784-7.449
			c0.098-2.449,0.35-4.267,0.727-5.456c0.37-1.204,0.923-2.168,1.651-2.889c0.832-0.832,1.902-1.196,3.189-1.098
			C100.417,87.87,101.572,88.422,102.578,89.423z M122.839,69.169c1.007,1.007,1.574,2.225,1.7,3.644
			c0.083,1.036-0.183,2.155-0.791,3.371c1.287-0.567,2.448-0.812,3.476-0.714c1.385,0.126,2.588,0.7,3.609,1.721
			c1.014,1.021,1.561,2.168,1.644,3.463c0.083,1.294-0.321,2.385-1.217,3.28c-0.489,0.489-1.063,0.868-1.721,1.147
			c-0.657,0.295-1.491,0.491-2.49,0.63c-0.6,0.091-2.111,0.217-4.531,0.385c-3.295,0.224-5.624,0.481-6.994,0.783
			c-1.37,0.302-2.672,0.791-3.916,1.448c0.643-1.21,1.119-2.517,1.413-3.916c0.377-1.763,0.643-4.244,0.79-7.441
			c0.098-2.449,0.343-4.267,0.721-5.456c0.378-1.204,0.93-2.168,1.651-2.889c0.84-0.832,1.902-1.202,3.197-1.098
			C120.678,67.616,121.833,68.162,122.839,69.169z M143.091,48.91c1.007,1.014,1.573,2.231,1.706,3.65
			c0.077,1.029-0.183,2.155-0.798,3.371c1.286-0.574,2.447-0.812,3.482-0.714c1.385,0.126,2.588,0.7,3.609,1.721
			c1.007,1.014,1.553,2.168,1.636,3.455c0.085,1.3-0.321,2.391-1.217,3.287c-0.489,0.489-1.063,0.868-1.721,1.147
			c-0.657,0.287-1.489,0.489-2.489,0.63c-0.6,0.083-2.111,0.21-4.531,0.377c-3.287,0.231-5.622,0.489-6.994,0.783
			c-1.372,0.308-2.672,0.798-3.91,1.455c0.636-1.215,1.112-2.517,1.406-3.916c0.378-1.768,0.644-4.244,0.791-7.441
			c0.106-2.448,0.343-4.267,0.721-5.462c0.377-1.197,0.938-2.161,1.657-2.889c0.833-0.825,1.897-1.196,3.197-1.098
			C140.937,47.356,142.084,47.901,143.091,48.91z"/>
	</g>
</g>
</svg>
