<?xml version="1.0" encoding="UTF-8"?>
<svg xmlns="http://www.w3.org/2000/svg"
viewBox="0 0 200 200"
preserveAspectRatio="xMidYMid meet">
<g>
	<circle fill="#FFFFFF" cx="100" cy="100" r="100"/>
	<g>
		<path fill="#653489" d="M87.006,73.645c0,8.317-4.346,15.609-10.889,19.806c3.009,1.729,4.908,4.901,4.92,8.516
			c0.012,1.705-0.006,9.428,0,11.014h4.096c2.398,0,4.371-1.973,4.371-4.371v-8.441c5.307-5.164,8.922-11.788,10.446-18.912
			c1.523,7.118,5.132,13.749,10.446,18.912v8.441c0,2.398,1.973,4.371,4.371,4.371h4.096c-0.019-1.548,0.012-9.291,0-11.014
			c0.012-3.615,1.911-6.787,4.92-8.516c-14.866-9.166-14.248-31.906,1.049-40.235c-4.239-2.697-6.337-8.198-4.995-12.987
			c-10.196,5.007-17.52,14.411-19.886,25.568c-2.366-11.158-9.69-20.56-19.886-25.568c1.342,4.795-0.762,10.29-4.995,12.987
			c7.118,4.021,11.938,11.663,11.938,20.429H87.006z"/>
		<path fill="#653489" d="M172.302,64.179c-4.495-16.358-19.93-27.798-37.513-27.798h-3.472c-3.709-0.056-6.968,3.178-6.893,6.893
			c-0.056,3.646,3.172,6.968,6.893,6.893h5.045c13.23-0.293,24.575,11.807,23.452,25.001c-0.774,12.313-11.438,21.928-24.251,21.928
			h-6.843c-2.672,0-4.87,2.198-4.87,4.87v18.506c-0.006,2.735,2.31,4.964,5.039,4.87v6.643c-0.169,1.355,0.937,2.267,0.849,3.247
			v6.943c0,2.797,1.723,5.17,4.146,6.144v2.26c-0.924-0.475-8.666-0.119-9.809-0.225c-2.779,0-5.157,1.717-6.15,4.146h-6.681
			c-0.993-2.429-3.372-4.146-6.15-4.146H96.92c-2.778,0-5.157,1.717-6.15,4.146h-8.791c-0.993-2.429-3.372-4.146-6.15-4.146
			c-1.068,0.044-8.91-0.181-9.828,0.231v-2.273c2.423-0.974,4.14-3.347,4.14-6.144c0.012-0.212,0.025-7.468-0.05-7.442
			c1.474-1.517,0.737-6.881,0.899-9.391c2.735,0.094,5.051-2.135,5.045-4.87v-18.506c0-2.672-2.198-4.87-4.87-4.87h-6.843
			c-16.951,0.35-29.265-17.408-22.453-32.593c3.584-8.56,12.294-14.454,21.654-14.336c3.097-0.069,7.692,0.631,9.915-2.048
			c3.128-2.985,2.479-8.535-1.224-10.689c-1.892-1.417-4.926-0.98-7.118-1.049C32.148,36.607,13.897,73.214,36.2,98.939
			c7.517,9.491,8.542,18.057,8.492,22.328c-0.081,2.16,1.823,4.121,3.996,4.071h7.343v6.643c0,0.999,0.3,1.948,0.824,2.697v7.493
			c0,2.772,1.723,5.176,4.152,6.144v8.679c0,3.665,2.978,6.643,6.643,6.643h8.179c2.778,0,5.157-1.717,6.15-4.146h8.791
			c0.993,2.429,3.372,4.146,6.15,4.146h8.173c2.778,0,5.157-1.717,6.15-4.146h6.681c0.993,2.429,3.372,4.146,6.15,4.146h8.179
			c3.665,0,6.643-2.978,6.643-6.643c0-0.056-0.012-0.112-0.019-0.169v-8.51c2.423-0.974,4.146-3.372,4.146-6.144v-7.493
			c1.38-1.467,0.656-7.243,0.824-9.341h7.349c2.167,0.05,4.083-1.911,3.996-4.071c-0.05-4.271,0.974-12.837,8.492-22.328
			c8.904-11.389,11.963-22.178,8.616-34.765L172.302,64.179z M52.716,111.732c0.05-3.284,4.945-3.284,4.995,0v4.945
			c-0.062,3.278-4.933,3.284-4.995,0V111.732z M138.031,142.176c-0.05,2.16-3.247,2.16-3.297,0v-5.37h3.297V142.176z
			 M61.857,142.176v-5.37h3.297v5.37C65.104,144.337,61.907,144.337,61.857,142.176z M75.837,158.648h-8.179
			c-2.154-0.012-2.154-3.29,0-3.297h8.179C77.991,155.364,77.997,158.642,75.837,158.648z M105.102,158.648h-8.173
			c-2.154-0.012-2.16-3.284,0-3.297h8.173C107.256,155.364,107.262,158.642,105.102,158.648z M132.256,158.648h-8.179
			c-2.154-0.012-2.16-3.29,0-3.297h8.179C134.404,155.395,134.416,158.617,132.256,158.648z M147.178,116.677
			c-0.062,3.278-4.932,3.284-4.995,0v-4.945c0.05-3.284,4.945-3.284,4.995,0V116.677z"/>
	</g>
</g>
</svg>
