<?xml version="1.0" encoding="UTF-8"?>
<svg xmlns="http://www.w3.org/2000/svg"
viewBox="0 0 200 200"
preserveAspectRatio="xMidYMid meet">
<g>
	<circle fill="#FFFFFF" cx="100" cy="100" r="100"/>
	<g>
		<g>
			<path fill="#1A1D1E" d="M90.365,176.691c-0.091,0-0.184-0.008-0.276-0.023c-0.913-0.152-1.531-1.017-1.379-1.929l4.102-24.649
				c0.044-0.264-0.03-0.533-0.201-0.738l-1.845-2.199c-0.178-0.212-0.437-0.327-0.701-0.327c-0.125,0-0.251,0.026-0.371,0.079
				c-3.629,1.612-7.633,2.464-11.579,2.464c-0.924,0-1.676-0.752-1.676-1.676c0-0.924,0.752-1.676,1.676-1.676
				c2.97,0,5.92-0.535,8.768-1.591c0.279-0.104,0.49-0.336,0.566-0.624c0.076-0.287,0.008-0.594-0.184-0.822l-10.947-13.047
				c-0.012-0.015-0.025-0.029-0.038-0.042c-0.023-0.024-0.044-0.049-0.065-0.074c-4.784-5.712-4.037-14.261,1.668-19.054
				c2.431-2.04,5.516-3.164,8.686-3.164c0.096,0,0.191,0.008,0.285,0.015c0.085,0.006,0.169,0.013,0.254,0.017
				c0.014,0.001,0.027,0.001,0.041,0.001c0.307,0,0.595-0.154,0.764-0.412c0.177-0.269,0.199-0.612,0.059-0.903
				c-1.745-3.591-3.888-7.089-6.369-10.395c-0.173-0.23-0.444-0.366-0.732-0.366h-2.755c-13.862,0-25.18,11.277-25.23,25.137
				c0,0.023,0.001,0.045,0.002,0.068l0.247,3.496c0.002,0.035,0.007,0.07,0.013,0.104l9.427,50.341
				c0.019,0.107,0.029,0.209,0.029,0.31c0,0.805-0.576,1.497-1.37,1.647c-0.098,0.018-0.204,0.027-0.309,0.027
				c-0.805,0-1.497-0.575-1.645-1.368l-9.448-50.454c-0.004-0.06-0.007-0.1-0.012-0.141c-0.005-0.04-0.012-0.077-0.019-0.112
				l-0.26-3.709c-0.004-0.048-0.005-0.083-0.005-0.117c0-11.925,7.555-22.703,18.8-26.819c0.409-0.15,0.656-0.568,0.59-0.999
				l-4.254-27.557c-0.014-0.088-0.02-0.171-0.02-0.256c0-5.686,4.626-10.312,10.312-10.312c1.161,0,2.304,0.193,3.396,0.573
				l0.762,0.279c0.028,0.01,0.057,0.019,0.086,0.027c1.85,0.475,3.872,0.912,6.182,1.335c0.055,0.01,0.11,0.015,0.165,0.015
				c0.202,0,0.4-0.067,0.562-0.193c0.206-0.16,0.333-0.401,0.351-0.661l0.974-14.776c0.007-0.038,0.015-0.087,0.018-0.144
				c0.512-10.087,8.813-17.985,18.899-17.985c10.446,0,18.945,8.499,18.945,18.946c0,0.018,0,0.035,0.002,0.053l0.686,11.854
				c0.015,0.261,0.141,0.503,0.346,0.665c0.163,0.129,0.363,0.197,0.567,0.197c0.053,0,0.106-0.005,0.159-0.014
				c0.636-0.113,1.225-0.167,1.799-0.167c5.686,0,10.312,4.626,10.312,10.312v2.062c0,0.091-0.008,0.181-0.023,0.27l-4.49,27.041
				c-0.065,0.389,0.128,0.776,0.477,0.959c9.453,4.973,15.325,14.667,15.325,25.297c0,1.567-0.13,3.144-0.385,4.688l-0.247,1.284
				l-10.697,48.613c-0.168,0.763-0.856,1.316-1.635,1.316c-0.123,0-0.244-0.013-0.359-0.039c-0.44-0.097-0.814-0.357-1.055-0.734
				c-0.241-0.377-0.321-0.825-0.225-1.263l10.913-49.739c0.003-0.015,0.006-0.031,0.009-0.046c0.216-1.301,0.33-2.713,0.33-4.083
				c0-13.912-11.32-25.23-25.234-25.23h-2.96c-0.288,0-0.558,0.135-0.731,0.365c-2.474,3.291-4.62,6.794-6.379,10.413
				c-0.142,0.292-0.118,0.638,0.062,0.908c0.17,0.255,0.456,0.406,0.76,0.406c0.019,0,0.037-0.001,0.056-0.002
				c0.091-0.005,0.181-0.012,0.272-0.019c0.215-0.015,0.417-0.03,0.612-0.03c3.167,0,6.249,1.124,8.68,3.164
				c5.715,4.791,6.467,13.341,1.676,19.058c-0.005,0.006-0.01,0.012-0.015,0.019c-0.022,0.028-0.048,0.054-0.071,0.079
				c-0.014,0.015-0.028,0.03-0.041,0.045l-10.959,13.061c-0.191,0.228-0.26,0.535-0.183,0.823c0.077,0.288,0.289,0.52,0.568,0.623
				c2.783,1.025,5.694,1.545,8.652,1.545c0.924,0,1.676,0.752,1.676,1.676c0,0.924-0.752,1.676-1.676,1.676
				c-3.904,0-7.871-0.836-11.472-2.417c-0.119-0.052-0.244-0.077-0.368-0.077c-0.264,0-0.523,0.115-0.701,0.327l-3.29,3.922
				c-0.146,0.174-0.222,0.395-0.213,0.622l0.867,23.203c0.017,0.447-0.141,0.873-0.445,1.201c-0.305,0.329-0.72,0.519-1.168,0.536
				c-0.021,0.001-0.059,0.001-0.064,0.001c-0.905,0-1.64-0.709-1.673-1.613l-0.656-17.542c-0.013-0.354-0.229-0.668-0.555-0.807
				c-0.116-0.049-0.238-0.073-0.359-0.073c-0.22,0-0.437,0.079-0.608,0.231c-0.312,0.278-0.703,0.431-1.099,0.431
				c-0.497,0-0.965-0.218-1.284-0.599l-1.793-2.137c-0.176-0.21-0.435-0.327-0.701-0.327c-0.08,0-0.161,0.01-0.241,0.032
				c-0.344,0.094-0.603,0.38-0.661,0.732l-3.377,20.277C91.879,176.101,91.185,176.691,90.365,176.691z M86.57,110.947
				c-2.383,0-4.703,0.845-6.532,2.38c-4.236,3.558-4.835,9.943-1.337,14.235c0.009,0.011,0.019,0.022,0.028,0.033
				c0.024,0.027,0.048,0.053,0.071,0.08c0,0,7.604,9.061,7.612,9.069c0.017,0.019,0.045,0.054,0.06,0.075
				c0.011,0.015,0.023,0.029,0.034,0.044l12.864,15.327c0.174,0.207,0.43,0.327,0.701,0.327c0.27,0,0.527-0.12,0.701-0.327
				l12.904-15.377c0.009-0.01,0.065-0.084,0.065-0.084c0.006-0.007,7.605-9.057,7.605-9.057c0.018-0.021,0.037-0.044,0.059-0.065
				c0.023-0.023,0.046-0.048,0.066-0.073c3.468-4.288,2.851-10.66-1.376-14.204c-1.828-1.534-4.145-2.38-6.525-2.382
				c-3.02,0-5.864,1.326-7.804,3.638l-4.411,5.256c-0.319,0.381-0.787,0.599-1.284,0.599s-0.965-0.218-1.284-0.599l-4.412-5.258
				C92.434,112.272,89.589,110.947,86.57,110.947z M87.247,95.554c-0.337,0-0.647,0.186-0.806,0.483
				c-0.159,0.297-0.142,0.658,0.045,0.939c2.45,3.675,4.564,7.678,6.282,11.9c0.078,0.192,0.22,0.352,0.401,0.454
				c1.463,0.818,2.733,1.86,3.774,3.099l2.428,2.894c0.174,0.207,0.43,0.327,0.701,0.327s0.527-0.12,0.701-0.327l2.427-2.893
				c0.95-1.134,2.075-2.1,3.345-2.872c0.168-0.103,0.299-0.257,0.373-0.44c1.738-4.315,3.884-8.401,6.379-12.142
				c0.187-0.281,0.205-0.642,0.045-0.939c-0.159-0.297-0.469-0.483-0.806-0.483H87.247z M78.023,92.202
				c0.031,0.003,0.061,0.005,0.093,0.005h43.759c1.45,0,2.98,0.137,4.676,0.418c0.05,0.008,0.1,0.012,0.15,0.012
				c0.29,0,0.566-0.138,0.74-0.377c0.203-0.28,0.231-0.651,0.072-0.959c-3.764-7.259-5.733-15.383-5.694-23.496
				c0.004-0.944,0.733-1.662,1.694-1.668c0.438,0.002,0.858,0.178,1.173,0.496c0.315,0.318,0.487,0.739,0.485,1.187
				c-0.035,7.513,1.777,15.044,5.24,21.781c0.158,0.308,0.475,0.497,0.813,0.497c0.047,0,0.094-0.004,0.142-0.011
				c0.39-0.061,0.697-0.365,0.761-0.754l3.681-22.177c0.008-0.049,0.012-0.1,0.012-0.15v-1.85c0-3.838-3.122-6.96-6.96-6.96
				c-0.762,0-1.511,0.123-2.224,0.364l-0.969,0.331c-0.036,0.012-0.078,0.025-0.121,0.037c-0.078,0.02-0.175,0.043-0.271,0.066
				c-0.11,0.026-0.22,0.052-0.329,0.081l-0.07,0.019c-0.021,0.006-0.042,0.013-0.063,0.017c-0.028,0.005-0.052,0.01-0.079,0.017
				c-2.29,0.593-4.49,1.085-6.54,1.463c-0.874,0.161-1.789,0.317-2.72,0.462c-0.077,0.011-0.163,0.018-0.248,0.018
				c-0.838,0-1.537-0.596-1.664-1.417c-0.142-0.914,0.487-1.772,1.4-1.914c0.836-0.128,1.719-0.278,2.622-0.445
				c1.322-0.243,2.746-0.548,4.48-0.959c0.433-0.103,0.73-0.503,0.702-0.947l-0.813-12.999c-0.021-8.676-7.012-15.729-15.598-15.729
				c-8.6,0-15.596,6.995-15.596,15.594c0,0.052-0.011,0.131-0.024,0.215l-0.003,0.024c-0.003,0.023-0.006,0.047-0.007,0.07
				l-0.945,14.332c-0.032,0.483,0.318,0.908,0.799,0.968c1.516,0.19,2.922,0.334,4.3,0.44c0.446,0.034,0.853,0.24,1.144,0.58
				c0.291,0.34,0.433,0.773,0.399,1.22c-0.066,0.867-0.806,1.547-1.683,1.547c-0.04,0-0.081-0.001-0.122-0.004
				c-1.998-0.152-4.15-0.401-6.573-0.759c-0.044-0.007-0.089-0.01-0.134-0.01c-0.011,0-0.052,0-0.063-0.001
				c-0.124-0.008-0.236-0.028-0.353-0.06c-0.034-0.009-0.068-0.017-0.103-0.022c-3.185-0.492-6.261-1.118-9.143-1.861
				c-0.053-0.014-0.104-0.028-0.153-0.046l-0.863-0.315c-0.71-0.249-1.491-0.379-2.269-0.379c-3.726,0-6.847,3.029-6.958,6.751
				c-0.002,0.056,0.002,0.112,0.01,0.167l3.511,22.747c0.061,0.395,0.372,0.705,0.767,0.765c0.046,0.007,0.092,0.01,0.137,0.01
				c0.346,0,0.667-0.196,0.822-0.514c3.115-6.392,4.717-13.23,4.761-20.322c0.005-0.919,0.757-1.666,1.676-1.666
				c0.458,0.003,0.878,0.18,1.192,0.498c0.314,0.318,0.486,0.74,0.484,1.188c-0.05,7.992-2.06,15.991-5.812,23.132
				c-0.153,0.292-0.138,0.644,0.041,0.922c0.169,0.262,0.459,0.419,0.769,0.419c0.018,0,0.036-0.001,0.054-0.002
				c0.155-0.009,0.309-0.02,0.463-0.03C77.273,92.232,77.647,92.206,78.023,92.202z"/>
		</g>
		<g>
			<path fill="#1A1D1E" d="M116.136,124.73c-0.362,0-0.709-0.115-1.003-0.333c-0.739-0.552-0.893-1.605-0.341-2.345
				c0.491-0.654,0.382-1.581-0.249-2.109c-0.284-0.237-0.61-0.356-0.972-0.356c-0.336,0-0.817,0.097-1.195,0.56
				c-0.312,0.372-0.78,0.59-1.277,0.59l0,0c-0.397,0-0.767-0.135-1.071-0.391c-0.345-0.289-0.555-0.693-0.594-1.138
				c-0.039-0.446,0.098-0.881,0.385-1.224c1.276-1.522,2.901-1.749,3.757-1.749c0.808,0,2.006,0.198,3.126,1.141
				c1.988,1.666,2.331,4.6,0.781,6.68C117.162,124.483,116.671,124.73,116.136,124.73z"/>
		</g>
		<g>
			<path fill="#1A1D1E" d="M102.369,52.241c-0.465,0-0.897-0.186-1.217-0.523c-2.62-2.766-4.095-6.388-4.153-10.199
				c-0.015-0.918,0.716-1.677,1.632-1.701c0.967,0.035,1.705,0.741,1.719,1.65c0.047,2.967,1.196,5.788,3.237,7.943
				c0.308,0.325,0.471,0.751,0.459,1.198s-0.198,0.864-0.524,1.172C103.208,52.078,102.799,52.241,102.369,52.241z"/>
		</g>
		<g>
			<path fill="#1A1D1E" d="M114.642,50.947c-0.772,0-1.46-0.549-1.634-1.305c-1.197-5.259-3.868-10.066-7.724-13.897
				c-0.655-0.651-0.658-1.715-0.008-2.37c0.318-0.319,0.741-0.496,1.19-0.496c0.445,0,0.865,0.173,1.181,0.488
				c4.304,4.274,7.288,9.644,8.63,15.531c0.204,0.9-0.362,1.8-1.263,2.005C114.893,50.933,114.768,50.947,114.642,50.947z"/>
		</g>
	</g>
</g>
<g>
</g>
<g>
</g>
<g>
</g>
<g>
</g>
<g>
</g>
<g>
</g>
</svg>
