<?xml version="1.0" encoding="UTF-8"?>
<svg xmlns="http://www.w3.org/2000/svg"
viewBox="0 0 200 200"
preserveAspectRatio="xMidYMid meet">
	<circle fill="#FFFFFF" cx="100" cy="100" r="100"/>
	<path fill="#1A1D1E" d="M176.072,86.87c-4.201-0.057-8.414-1.16-12.257-3.627c-0.843-0.543-1.64-1.141-2.398-1.782
		c-3.093-2.431-5.451-5.475-7.67-8.607c-4.798-6.683-8.766-15.169-18.681-19.846c-0.342-0.161-0.694-0.302-1.049-0.434
		c-3.59-1.528-7.893-2.419-12.52-2.421c-9.877,0.007-18.299,4.042-21.498,9.794c-3.199-5.752-11.622-9.788-21.497-9.794
		c-4.627,0.002-8.931,0.892-12.531,2.425c-0.344,0.128-0.696,0.269-1.038,0.43c-9.916,4.676-13.883,13.162-18.681,19.844
		c-2.22,3.133-4.578,6.177-7.663,8.601c-0.766,0.648-1.563,1.246-2.406,1.788c-3.844,2.468-8.056,3.571-12.258,3.627l-0.617,0.009
		l0.431,0.441c3.496,3.563,12.697,16.862,21.854,31.739c9.477,14.53,26.003,30.771,54.393,30.785h0.024l0.001,0.001
		c28.388-0.015,44.919-16.257,54.548-30.78c9.006-14.884,18.2-28.183,21.698-31.746l0.433-0.442L176.072,86.87z M108.525,109.749
		c-5.634,1.113-11.417,1.113-17.052,0c-13.553-2.678-26.46-8.849-35.701-17.583c0.185-0.003,0.37-0.006,0.555-0.01
		c7.087-0.151,14.034-1.263,21.102-2.573c2.008-0.372,3.974-0.621,5.909-0.641c0.09-0.001,0.179-0.002,0.269-0.002
		c2.666,0.001,5.271,0.441,7.839,1.603c3.192,1.439,5.424,3.172,8.434,4.039c0.034,0.01,0.065,0.014,0.095,0.015l0.002,0h0.03
		c0.039,0,0.07-0.006,0.095-0.012c3.025-0.872,5.257-2.605,8.449-4.044c2.567-1.161,5.172-1.602,7.838-1.603
		c0.089,0,0.178,0,0.266,0.002c1.938,0.021,3.905,0.27,5.911,0.641c7.069,1.31,14.017,2.421,21.105,2.573
		c0.184,0.004,0.369,0.007,0.554,0.01C134.986,100.9,122.078,107.071,108.525,109.749z"/>
</svg>
