<?xml version="1.0" encoding="UTF-8"?>
<svg xmlns="http://www.w3.org/2000/svg"
viewBox="0 0 200 200"
preserveAspectRatio="xMidYMid meet">
<g>
	<circle fill="#FFFFFF" cx="100" cy="100" r="100"/>
	<g>
		<g>
			<g>
				<g>
					<path fill="#1B1D1E" d="M54.823,127.368c-17.375,0-31.514-14.136-31.514-31.514c0-14.479,9.792-27.044,23.811-30.557
						c0.457-0.114,0.825-0.445,0.994-0.883c2.276-6.013,6.255-11.108,11.507-14.74c5.273-3.644,11.485-5.571,17.964-5.571
						c5.295,0,10.326,1.267,14.955,3.764c0.212,0.114,0.445,0.172,0.681,0.172c0.153,0,0.304-0.025,0.451-0.074
						c0.374-0.126,0.681-0.399,0.85-0.758c2.519-5.436,6.506-10.013,11.537-13.234c5.068-3.246,10.961-4.96,17.041-4.96
						c17.378,0,31.517,14.139,31.517,31.517v4.206c0,0.61,0.387,1.153,0.96,1.353c12.626,4.408,21.115,16.369,21.115,29.765
						c0,17.378-14.139,31.517-31.517,31.517H54.823V127.368z M77.471,48.042c-12.096,0.043-22.627,7.816-26.228,19.366
						c-0.221,0.699-0.801,1.215-1.515,1.347C36.696,71.19,27.242,82.587,27.242,95.851c0,15.206,12.372,27.578,27.578,27.578h90.342
						c15.206,0,27.578-12.372,27.578-27.578c0-12.553-8.47-23.526-20.599-26.688c-0.871-0.224-1.479-1.006-1.479-1.902v-6.73
						c0-15.206-12.372-27.578-27.578-27.578c-12.12,0-22.694,7.761-26.314,19.314c-0.19,0.604-0.66,1.083-1.258,1.279
						c-0.202,0.067-0.414,0.101-0.626,0.101c-0.417,0-0.819-0.129-1.163-0.377c-4.727-3.423-10.313-5.233-16.148-5.233
						C77.539,48.039,77.505,48.039,77.471,48.042z"/>
				</g>
				<path fill="#1B1D1E" d="M53.231,159.814c2.374,0,4.31,1.936,4.31,4.31s-1.936,4.31-4.31,4.31s-4.31-1.936-4.31-4.31
					S50.853,159.814,53.231,159.814 M53.231,157.262c-3.792,0-6.862,3.071-6.862,6.862s3.071,6.862,6.862,6.862
					s6.862-3.071,6.862-6.862C60.093,160.336,57.019,157.262,53.231,157.262L53.231,157.262z"/>
				<path fill="#1B1D1E" d="M72.459,139.51c2.969,0,5.387,2.414,5.387,5.387c0,2.969-2.414,5.387-5.387,5.387
					c-2.969,0-5.387-2.414-5.387-5.387C67.072,141.924,69.486,139.51,72.459,139.51 M72.459,136.319
					c-4.736,0-8.577,3.841-8.577,8.577s3.841,8.577,8.577,8.577s8.577-3.841,8.577-8.577S77.195,136.319,72.459,136.319
					L72.459,136.319z"/>
			</g>
		</g>
		<g>
			<path fill="#1B1D1E" d="M58.611,91.561L49.85,78.42c-0.299-0.449,0.023-1.05,0.562-1.05h9.478c0.246,0,0.473,0.134,0.592,0.349
				l3.857,7c0.254,0.46,0.913,0.467,1.176,0.012l4.062-7.024c0.121-0.209,0.344-0.337,0.585-0.337h9.193
				c0.541,0,0.863,0.605,0.56,1.053l-9.03,13.364c-0.154,0.228-0.154,0.527-0.001,0.755l9.835,14.622
				c0.302,0.449-0.02,1.052-0.56,1.052h-9.478c-0.243,0-0.467-0.13-0.587-0.341l-4.888-8.592c-0.256-0.45-0.901-0.456-1.167-0.013
				l-5.15,8.617c-0.122,0.204-0.342,0.329-0.58,0.329h-9.091c-0.54,0-0.862-0.603-0.561-1.051l9.955-14.854
				C58.762,92.085,58.763,91.789,58.611,91.561z"/>
			<path fill="#1B1D1E" d="M93.675,91.311L81.463,72.675c-0.294-0.449,0.028-1.046,0.565-1.046H92.56
				c0.239,0,0.46,0.126,0.582,0.332l6.545,11.096c0.259,0.439,0.891,0.444,1.158,0.01l6.813-11.116
				c0.123-0.2,0.341-0.322,0.576-0.322h9.97c0.537,0,0.859,0.596,0.565,1.045L106.439,91.54c-0.146,0.224-0.147,0.513-0.001,0.738
				l13.42,20.637c0.292,0.449-0.03,1.044-0.566,1.044h-10.48c-0.239,0-0.46-0.126-0.582-0.332l-7.802-13.212
				c-0.259-0.438-0.891-0.444-1.157-0.01l-8.127,13.232c-0.123,0.2-0.341,0.322-0.575,0.322h-9.915
				c-0.536,0-0.859-0.595-0.566-1.044l13.589-20.865C93.822,91.825,93.822,91.535,93.675,91.311z"/>
			<path fill="#1B1D1E" d="M129.235,91.561l-8.761-13.141c-0.299-0.449,0.023-1.05,0.562-1.05h9.478
				c0.246,0,0.473,0.134,0.592,0.349l3.857,7c0.254,0.46,0.913,0.467,1.176,0.012l4.062-7.024c0.121-0.209,0.344-0.337,0.585-0.337
				h9.193c0.541,0,0.863,0.605,0.56,1.053l-9.03,13.364c-0.154,0.228-0.154,0.527-0.001,0.755l9.835,14.622
				c0.302,0.449-0.02,1.052-0.56,1.052h-9.478c-0.243,0-0.467-0.13-0.587-0.341l-4.888-8.592c-0.256-0.45-0.901-0.456-1.167-0.013
				l-5.15,8.617c-0.122,0.204-0.342,0.329-0.58,0.329h-9.091c-0.54,0-0.862-0.603-0.561-1.051l9.955-14.854
				C129.386,92.085,129.386,91.789,129.235,91.561z"/>
		</g>
	</g>
</g>
<g>
</g>
<g>
</g>
<g>
</g>
<g>
</g>
<g>
</g>
<g>
</g>
</svg>
