<?xml version="1.0" encoding="UTF-8"?>
<svg xmlns="http://www.w3.org/2000/svg"
viewBox="0 0 200 200"
preserveAspectRatio="xMidYMid meet">
<g>
	<circle fill="#FFFFFF" cx="100" cy="100" r="100"/>
	<g>
		<g>
			<path fill="#1A1D1E" d="M112.429,127.675c5.114-0.462,6.975-5.941,11.496-6.319l28.159-0.002c2.379,0.378,2.397,3.762,0,4.138
				l-27.901,0.03c-1.493,0.216-3.628,2.629-4.925,3.58c-2.034,1.493-4.162,2.409-6.709,2.601c-0.405,0.03-2.043-0.117-2.196,0.103
				l-0.457,7.361c1.116,0.667,2.337,1.154,3.433,1.86c12.07,7.776,12.057,24.661,0.991,33.357
				c-5.231,4.111-13.409,4.95-19.532,2.535c-0.362-0.143-1.652-0.689-1.886-0.872c-0.148-0.115-0.205-0.183-0.191-0.384
				l-0.001-10.802c-0.674-2.133-3.599-1.998-4.005,0.232l-0.029,10.832c-1.976,0.892-4.406,2.021-6.592,2.2
				c-8.381,0.687-15.186-1.851-19.918-8.927c-8.077-12.078-0.854-28.493,13.225-31.066c0.333-0.146,0.176-1.733,0.202-2.124
				c0.143-2.138,0.38-4.28,0.556-6.415c-2.084-2.145-2.213-4.927-1.032-7.584c-2.488-2.625-2.533-6.334-1.534-9.632
				c-2.739-3.281-2.856-7.677-0.654-11.289c-2.556-3.374-1.765-9.307,2.601-10.653c1.875-0.578,4.392-0.025,6.368-0.241
				c1.661-6.827,3.548-13.651,6.632-19.98c-1.482-5.037,2.479-10.417,5.57-14.077c5.063-5.994,11.531-10.718,19.016-4.999
				c0.19,0.145,0.405,0.49,0.602,0.548c0.289,0.085,0.671-0.009,0.996,0.038c10.337,1.503,10.513,11.724,9.366,20.023
				c-0.458,3.315-1.541,7.81-4.235,10.016c-0.365,0.299-1.225,0.701-1.407,1.007c-0.435,0.73-1.094,3.634-1.344,4.632
				c-0.106,0.421-0.583,1.962-0.415,2.234c0.105,0.171,3.156,1.373,3.665,1.623c2.659,1.304,5.17,2.913,7.63,4.553
				c2.053,0,4.139,0.15,6.174-0.092c3.926,0.404,8.594-0.579,12.421-0.113c1.776,0.216,2.466,2.728,0.826,3.704
				c-0.954,0.568-3.206,0.282-4.396,0.316c-2.56,0.073-5.127,0.087-7.701,0.115c-2.652,0.028-7.286,0.677-9.555-0.55
				c-1.29-0.698-2.604-1.758-3.911-2.526c-5.643-3.312-12.992-6.061-19.637-5.658c-0.335,0.02-1.061,0.078-1.351,0.143
				c-1.378,0.309-3.899,5.554-4.469,6.909c-0.761,1.809-2.416,6.089-2.547,7.91c-0.113,1.57,1.211,2.43,2.683,2.11
				c2.106-0.458,4.869-4.496,6.419-6.003c-0.193-1.284-1.305-2.563-0.581-3.905c0.525-0.974,1.894-1.278,2.82-0.704
				c0.939,0.582,0.914,1.48,1.32,2.357c1.866,4.028,4.938,6.12,9.192,7.128c0.654,0.155,1.276,0.088,1.906,0.393
				c1.37,0.665,1.609,2.406,0.419,3.378c-1.283,1.048-3.911-0.138-5.404-0.29l-1.954,17.239
				C111.226,127.637,111.857,127.726,112.429,127.675z M106.781,71.778c2.544,1.511,3.369,3.142,5.414,4.989
				c1.406,1.269,3.923,3.408,5.558,1.414c2.352-2.868,3.096-11.762,2.649-15.365c-0.288-2.329-1.206-4.869-3.317-6.107
				c-0.52-0.305-2.443-1.184-2.935-0.746c-0.672,1.211-1.092,2.672-1.76,3.871c-1.214,2.18-4.157,1.15-3.921-1.042
				c0.098-0.913,2.066-4.146,1.935-4.591c-4.207-3.437-8.43-0.558-11.541,2.681c-2.131,2.219-6.735,7.886-6.731,10.977
				c0.002,1.75,2.009,2.267,3.412,2.457C99.886,70.905,102.581,69.283,106.781,71.778z M93.636,94.232H76.912
				c-0.816,0-1.433,1.559-1.446,2.242c-0.019,0.988,0.614,2.269,1.355,2.906l14.578,0.032L93.636,94.232z M90.188,103.426h-13.85
				c-1.124,1.786-1.291,4.283,0.133,5.958l14.118,0.135c0.22-0.011-0.515-1.419-0.573-1.61
				C89.512,106.259,89.838,105.046,90.188,103.426z M77.453,113.564c-0.502,1.99-0.892,4.525,0.977,5.928l13.648,0.017
				c0.632-0.1,1.251-1.11,1.413-1.69c0.165-0.589,0.128-2.064-0.058-2.64c-0.48-1.486-2.663-1.685-3.988-1.759
				c-3.271-0.184-8.15-0.24-11.389,0C77.848,113.435,77.633,113.444,77.453,113.564z M79,123.671
				c-1.255,1.535-0.313,3.35,1.387,3.978l11.812,0.025c0.502-0.096,1.259-0.189,1.412-0.772c0.269-1.028,0.309-3.073-1.094-3.222
				L79,123.671z M68.893,156.088c-2.485,0.461-1.223,4.954-0.599,6.522c1.677,4.218,7.109,8.306,11.81,7.445
				c1.916-0.351,2.021-3.518-0.255-3.943c-1.839-0.343-2.607-0.069-4.408-1.109c-2.967-1.713-3.613-3.98-4.001-7.148
				C71.274,156.502,70.21,155.843,68.893,156.088z M111.411,166.594c2.017-2.001,3.931-6.094,3.481-8.974
				c-0.327-2.096-3.686-2.145-4.006,0.118c-0.422,2.986-0.634,4.898-3.305,6.809c-1.952,1.397-2.808,1.19-4.987,1.565
				c-2.448,0.421-2.262,3.653-0.274,3.964C105.363,170.551,109.288,168.7,111.411,166.594z"/>
		</g>
		<g>
			<g>
				<path fill="#1A1D1E" d="M119.935,39.84c-0.122,0-0.242-0.02-0.357-0.059c-0.302-0.103-0.545-0.333-0.666-0.63
					c-0.005-0.012-0.009-0.024-0.013-0.036c-0.435-1.085-3.61-9.211-2.451-12.603c0.876-2.397,2.969-4.173,5.466-4.646
					c0.445-0.084,0.9-0.127,1.352-0.127c2.075,0,4.054,0.891,5.429,2.445c1.685,1.902,2.253,4.588,1.482,7.009
					c-1.138,3.33-8.267,7.66-9.684,8.495C120.322,39.788,120.13,39.84,119.935,39.84L119.935,39.84z M123.227,23.924
					c-2.101,0-3.987,1.329-4.694,3.308c-0.559,1.636,0.551,6.035,1.959,9.875c3.465-2.177,7.036-4.977,7.596-6.617
					c0.848-2.599-0.579-5.417-3.184-6.274C124.354,24.021,123.794,23.924,123.227,23.924z"/>
			</g>
			<g>
				<path fill="#1A1D1E" d="M132.818,47.05c-1.581,0-2.983-0.614-4.338-1.207c-0.409-0.179-0.871-0.382-1.311-0.547
					c-1.045-0.393-2.057-0.591-3.01-0.591c-0.757,0-1.47,0.13-2.119,0.385c-0.218,0.085-0.428,0.189-0.625,0.31
					c-0.171,0.107-0.373,0.165-0.579,0.165c-0.296,0-0.584-0.122-0.791-0.335c-0.358-0.369-0.412-0.947-0.13-1.376
					c2.076-3.14,5.738-5.09,9.556-5.09c1.305,0,2.566,0.228,3.748,0.679c2.042,0.775,3.251,2.211,3.315,3.942
					c0.111,1.763-1.182,3.358-2.943,3.617c-0.016,0.002-0.031,0.004-0.047,0.005C133.306,47.035,133.061,47.05,132.818,47.05z
					 M127.98,43.246c0.453,0.17,0.896,0.363,1.385,0.578c1.199,0.525,2.332,1.021,3.454,1.021c0.161,0,0.322-0.01,0.478-0.031
					c0.631-0.095,1.09-0.677,1.036-1.322c-0.046-1.167-1.341-1.779-1.895-1.988c-0.087-0.034-0.172-0.063-0.254-0.091
					c-0.893-0.284-1.833-0.43-2.781-0.43c-0.698,0-1.395,0.08-2.074,0.237c-1.076,0.25-2.094,0.69-3.006,1.295
					c1.248,0.014,2.469,0.256,3.631,0.72C127.962,43.238,127.971,43.242,127.98,43.246z"/>
			</g>
			<g>
				<path fill="#1A1D1E" d="M115.718,43.813c-0.459,0-0.873-0.289-1.032-0.719c-0.075-0.197-0.171-0.398-0.286-0.594
					c-0.006-0.009-0.012-0.018-0.018-0.028c-1.012-1.701-2.833-2.557-4.182-2.976c-0.442-0.137-0.914-0.255-1.371-0.37
					c-1.672-0.42-3.401-0.854-4.746-2.21c-1.239-1.288-1.284-3.339-0.11-4.675c0.749-0.895,1.844-1.373,3.161-1.373
					c0.594,0,1.221,0.099,1.865,0.295c4.841,1.474,8.203,6.473,7.82,11.629c-0.041,0.522-0.429,0.936-0.945,1.009
					C115.822,43.809,115.77,43.813,115.718,43.813z M105.65,35.363c0.912,0.92,2.274,1.262,3.716,1.624l0.072,0.018
					c0.467,0.118,0.949,0.239,1.416,0.385c0.113,0.035,0.23,0.074,0.347,0.114c1.057,0.337,2.054,0.855,2.941,1.524
					c-0.94-2.724-3.12-4.942-5.786-5.755c-0.239-0.073-0.714-0.195-1.222-0.195c-0.653,0-1.15,0.198-1.478,0.59
					c-0.45,0.489-0.448,1.218-0.015,1.687C105.643,35.356,105.646,35.359,105.65,35.363z"/>
			</g>
		</g>
	</g>
</g>
<g>
</g>
<g>
</g>
<g>
</g>
<g>
</g>
<g>
</g>
<g>
</g>
</svg>
