<?xml version="1.0" encoding="UTF-8"?>
<svg xmlns="http://www.w3.org/2000/svg"
viewBox="0 0 200 200"
preserveAspectRatio="xMidYMid meet">
<g>
	<circle fill="#FFFFFF" cx="100" cy="100" r="100"/>
	<g>
		<path fill="#571C3F" d="M121.838,62.747v-4.498c0-4.826-3.909-8.735-8.735-8.735h-4.367v-8.735h17.469
			c2.402,0,4.367-1.965,4.367-4.367v-4.367c0-2.402-1.965-4.367-4.367-4.367h-17.841c-0.59,0-1.136-0.218-1.55-0.633l-1.812-1.812
			c-1.223-1.245-2.882-1.922-4.629-1.922h-9.106c-3.603,0-6.551,2.948-6.551,6.551v4.367c0,3.603,2.948,6.551,6.551,6.551v8.735
			h-4.367c-4.826,0-8.735,3.909-8.735,8.735v4.498c-9.805,1.092-17.469,9.434-17.469,19.522v74.769
			c0,10.831,8.822,19.652,19.652,19.652h39.306c10.831,0,19.652-8.822,19.652-19.652V82.269c0-10.089-7.665-18.431-17.469-19.522
			L121.838,62.747z M89.082,34.228v-4.367c0-1.201,0.983-2.184,2.184-2.184h9.106c0.59,0,1.136,0.218,1.55,0.633l1.812,1.812
			c1.223,1.245,2.882,1.922,4.629,1.922h17.841v4.367H91.266C90.065,36.412,89.083,35.429,89.082,34.228L89.082,34.228z
			 M82.531,58.249c0-2.402,1.965-4.367,4.367-4.367h26.204c2.402,0,4.367,1.965,4.367,4.367v4.367H82.531V58.249z M134.939,152.671
			H65.062V86.636h69.878V152.671z"/>
		<path fill="#571C3F" d="M114.158,95.772c-11.221,0.105-14.157,11.64-14.157,11.64s-2.936-11.535-14.157-11.64
			c0,0-13.737,0.839-11.326,15.94c2.412,15.101,25.482,31.823,25.482,31.823s23.071-16.723,25.482-31.823
			C127.896,96.611,114.158,95.772,114.158,95.772z"/>
	</g>
</g>
</svg>
