<?xml version="1.0" encoding="UTF-8"?>
<svg xmlns="http://www.w3.org/2000/svg"
viewBox="0 0 200 200"
preserveAspectRatio="xMidYMid meet">
<g>
	<circle fill="#FFFFFF" cx="100.5" cy="100" r="100"/>
	<path fill-rule="evenodd" clip-rule="evenodd" fill="#571C3F" d="M146.239,107.682l28.977-27.306
		c0.602-0.541,1.102-1.183,1.488-1.9c0.331-0.656,0.5-1.38,0.487-2.11c0-1.528-0.744-2.962-1.988-3.848l-35.145-25.819
		c-4.605-3.483-10.123-5.552-15.878-5.958c-5.762-0.413-11.51,0.852-16.561,3.645l-6.384,3.415v0.007
		c-0.453,0.243-0.994,0.243-1.447,0.007l-6.397-3.429c-5.052-2.793-10.8-4.058-16.561-3.645c-5.755,0.406-11.273,2.475-15.878,5.958
		L25.805,72.518c-1.251,0.886-1.995,2.319-1.995,3.848c-0.014,0.737,0.156,1.461,0.487,2.11c0.385,0.717,0.886,1.359,1.488,1.9
		l28.984,27.306V82.533c-0.068-5.396,2.414-10.502,6.702-13.782c6.688-5.255,13.423-7.418,20.206-6.424
		c6.33,0.926,12.592,4.605,18.827,11.104c6.235-6.492,12.497-10.171,18.82-11.097c6.783-0.994,13.518,1.17,20.206,6.424l0.007-0.007
		c4.287,3.28,6.769,8.386,6.702,13.782L146.239,107.682z M102.033,76.251c5.964-6.431,11.882-10.042,17.738-10.908
		c5.917-0.866,11.875,1.089,17.88,5.802v0.007c3.557,2.691,5.613,6.918,5.538,11.381v34.123c0,15.243-8.135,29.335-21.335,36.957
		c-13.207,7.628-29.477,7.628-42.684,0c-13.2-7.621-21.335-21.714-21.335-36.957V82.533c-0.074-4.463,1.981-8.69,5.538-11.381
		c6.005-4.72,11.963-6.668,17.88-5.802c5.856,0.866,11.773,4.477,17.738,10.908v35.983c0,0.845,0.683,1.528,1.528,1.528
		c0.845,0,1.528-0.683,1.528-1.528L102.033,76.251z"/>
</g>
</svg>
