<?xml version="1.0" encoding="UTF-8"?>
<svg xmlns="http://www.w3.org/2000/svg"
viewBox="0 0 200 200"
preserveAspectRatio="xMidYMid meet">
<g>
	<circle fill="#FFFFFF" cx="100.5" cy="100" r="100"/>
	<g>
		<g transform="translate(602.000000, 405.000000)">
			<path fill-rule="evenodd" clip-rule="evenodd" fill="#571C3F" d="M-538.471-315.637c0.469,0.469,1.085,0.705,1.701,0.705
				s1.232-0.236,1.701-0.705l19.244-19.243c0.94-0.941,0.94-2.461,0-3.401c-0.941-0.941-2.461-0.941-3.401,0l-19.243,19.243
				C-539.411-318.098-539.411-316.578-538.471-315.637"/>
			<path fill-rule="evenodd" clip-rule="evenodd" fill="#571C3F" d="M-539.175-326.96c0.616,0,1.232-0.236,1.701-0.705l9.622-9.622
				c0.941-0.941,0.941-2.461,0-3.401c-0.94-0.941-2.461-0.941-3.401,0l-9.622,9.622c-0.941,0.941-0.941,2.461,0,3.401
				C-540.407-327.196-539.791-326.96-539.175-326.96"/>
			<path fill-rule="evenodd" clip-rule="evenodd" fill="#571C3F" d="M-450.879-307.012c-0.941-0.941-2.461-0.941-3.401,0
				l-19.243,19.243c-0.941,0.941-0.941,2.461,0,3.401c0.469,0.469,1.085,0.705,1.701,0.705c0.616,0,1.232-0.236,1.701-0.705
				l19.243-19.243C-449.939-304.551-449.939-306.071-450.879-307.012"/>
			<path fill-rule="evenodd" clip-rule="evenodd" fill="#571C3F" d="M-451.875-294.984l-9.622,9.622
				c-0.941,0.941-0.941,2.461,0,3.401c0.469,0.469,1.085,0.705,1.701,0.705s1.232-0.236,1.701-0.705l9.622-9.622
				c0.941-0.941,0.941-2.461,0-3.401C-449.414-295.925-450.934-295.925-451.875-294.984"/>
		</g>
		<path fill="#571C3F" d="M161.171,64.121c1.654-3.415,3.069-6.941,4.234-10.552c0.397-1.549,2.791-12.18-1.346-14.606
			c-0.795-0.413-1.699-0.57-2.587-0.448c-7.244,0.694-17.373,4.374-21.91,11.652c-4.028,6.14-6.724,13.056-7.913,20.302
			c-2.435,13.005-16.956,16.9-16.956,16.9s-14.414,4.92-15.44,5.321c-1.026,0.401,1.163-4.813,4.974-8.355
			c3.811-3.542,7.587-6.771,7.986-10.258s0.448-6.487,0.448-6.487s0.436-4.682-3.729-3.609C102.03,65.8,95.856,69.7,91.247,75.151
			c-7.161,9.755-5.693,21.055-5.242,23.888c0.092,0.768-0.036,1.546-0.369,2.243c-0.228,0.531-0.569,1.005-0.999,1.39l-5.823,4.435
			l-22.675,17.173c-2.153,1.529-4.69,3.416-7.223,5.473l0,0l0,0c-4.582,3.705-9.087,7.949-11.126,11.605
			c-4.864,8.73-2.816,13.3-2.816,13.3s2.978,8.085,11.386,6.71c3.979-0.638,8.045-2.395,15.94-7.512
			c3.082-2,5.563-3.779,7.256-5.049l0,0c14.938-10.34,22.355-18.752,26.27-24.959c3.719-6.156,8.699-11.455,14.614-15.548
			c3.344-2.26,6.95-4.105,10.739-5.496c7.353-2.956,17.881-9.215,30.729-23.714C155.513,74.439,158.619,69.422,161.171,64.121z"/>
	</g>
</g>
</svg>
